<svg width="16" height="16" viewBox="0 0 16 16" fill="none" xmlns="http://www.w3.org/2000/svg">
<path d="M2 12.6667V3.33333C2 2.59695 2.59695 2 3.33333 2H12.6667C13.4031 2 14 2.59695 14 3.33333V12.6667C14 13.4031 13.4031 14 12.6667 14H3.33333C2.59695 14 2 13.4031 2 12.6667Z" stroke="black" stroke-width="1.5"/>
<path d="M8.33334 8.107L11 8L10.6667 11" stroke="black" stroke-width="1.5" stroke-linecap="round" stroke-linejoin="round"/>
<path d="M7.88888 7.99999L9.00001 6.35897L7.22221 5.33333L6.33334 6.5641" stroke="black" stroke-width="1.5" stroke-linecap="round" stroke-linejoin="round"/>
<path d="M10.3333 4.99999C10.1493 4.99999 10 4.85075 10 4.66666C10 4.48257 10.1493 4.33333 10.3333 4.33333C10.5174 4.33333 10.6667 4.48257 10.6667 4.66666C10.6667 4.85075 10.5174 4.99999 10.3333 4.99999Z" fill="black" stroke="black" stroke-width="1.5" stroke-linecap="round" stroke-linejoin="round"/>
<path d="M7 12C5.89543 12 5 11.1046 5 10C5 8.8954 5.89543 8 7 8C8.1046 8 9 8.8954 9 10C9 11.1046 8.1046 12 7 12Z" stroke="black" stroke-width="1.5" stroke-linecap="round" stroke-linejoin="round"/>
</svg>
