<svg width="16" height="16" viewBox="0 0 16 16" fill="none" xmlns="http://www.w3.org/2000/svg">
<path d="M14.6666 2.4V7.33333H1.33331V2.4C1.33331 2.17909 1.5124 2 1.73331 2H14.2666C14.4876 2 14.6666 2.17909 14.6666 2.4Z" stroke="black" stroke-width="1.5" stroke-linecap="round" stroke-linejoin="round"/>
<path d="M12 4.66667H12.6667" stroke="black" stroke-width="1.5" stroke-linecap="round" stroke-linejoin="round"/>
<path d="M1.33331 7.33333L1.85977 9.05626C2.0311 9.61699 2.54861 9.99999 3.13491 9.99999H3.99998" stroke="black" stroke-width="1.5" stroke-linecap="round" stroke-linejoin="round"/>
<path d="M14.6667 7.33333L14.1402 9.05626C13.9689 9.61699 13.4514 9.99999 12.8651 9.99999H12" stroke="black" stroke-width="1.5" stroke-linecap="round" stroke-linejoin="round"/>
<path d="M6.33333 9.66667C6.33333 9.66667 6.33333 14.3333 4 14.3333" stroke="black" stroke-width="1.5" stroke-linecap="round" stroke-linejoin="round"/>
<path d="M9.66669 9.66667C9.66669 9.66667 9.66669 14.3333 12 14.3333" stroke="black" stroke-width="1.5" stroke-linecap="round" stroke-linejoin="round"/>
<path d="M8 9.66667V14.3333" stroke="black" stroke-width="1.5" stroke-linecap="round" stroke-linejoin="round"/>
</svg>
