<svg width="17" height="16" viewBox="0 0 17 16" fill="none" xmlns="http://www.w3.org/2000/svg">
<path d="M15.6666 10.6667C15.6666 6.9848 12.6818 4 8.99991 4C6.26619 4 3.91674 5.64546 2.888 8" stroke="black" stroke-width="1.5" stroke-linecap="round" stroke-linejoin="round" stroke-dasharray="3 3"/>
<path d="M2.33335 11.3333C2.70154 11.3333 3.00002 11.0349 3.00002 10.6667C3.00002 10.2985 2.70154 10 2.33335 10C1.96517 10 1.66669 10.2985 1.66669 10.6667C1.66669 11.0349 1.96517 11.3333 2.33335 11.3333Z" fill="black" stroke="black" stroke-width="1.5" stroke-linecap="round" stroke-linejoin="round"/>
<path d="M2.33331 10.6667H8.99998" stroke="black" stroke-width="1.5" stroke-linecap="round" stroke-linejoin="round"/>
<path d="M8.99998 11.3333C9.36818 11.3333 9.66665 11.0349 9.66665 10.6667C9.66665 10.2985 9.36818 10 8.99998 10C8.63178 10 8.33331 10.2985 8.33331 10.6667C8.33331 11.0349 8.63178 11.3333 8.99998 11.3333Z" fill="black" stroke="black" stroke-width="1.5" stroke-linecap="round" stroke-linejoin="round"/>
</svg>
