<svg width="16" height="16" viewBox="0 0 16 16" fill="none" xmlns="http://www.w3.org/2000/svg">
<g clip-path="url(#clip0_1_7776)">
<path d="M14.6666 10.6667C14.6666 6.9848 11.6818 4 7.99998 4C4.31808 4 1.33331 6.9848 1.33331 10.6667" stroke="black" stroke-width="1.5" stroke-linecap="round" stroke-linejoin="round"/>
<path d="M1.33335 11.3333C1.70154 11.3333 2.00002 11.0349 2.00002 10.6667C2.00002 10.2985 1.70154 10 1.33335 10C0.965167 10 0.666687 10.2985 0.666687 10.6667C0.666687 11.0349 0.965167 11.3333 1.33335 11.3333Z" fill="black" stroke="black" stroke-width="1.5" stroke-linecap="round" stroke-linejoin="round"/>
<path d="M14.6667 11.3333C15.0349 11.3333 15.3333 11.0349 15.3333 10.6667C15.3333 10.2985 15.0349 10 14.6667 10C14.2985 10 14 10.2985 14 10.6667C14 11.0349 14.2985 11.3333 14.6667 11.3333Z" fill="black" stroke="black" stroke-width="1.5" stroke-linecap="round" stroke-linejoin="round"/>
</g>
<defs>
<clipPath id="clip0_1_7776">
<rect width="16" height="16" fill="white"/>
</clipPath>
</defs>
</svg>
