<svg width="16" height="16" viewBox="0 0 16 16" fill="none" xmlns="http://www.w3.org/2000/svg">
<g clip-path="url(#clip0_1_7771)">
<path d="M14.6666 10.6667C14.6666 6.9848 11.6818 4 7.99991 4C5.26619 4 2.91674 5.64546 1.888 8" stroke="black" stroke-width="1.5" stroke-linecap="round" stroke-linejoin="round" stroke-dasharray="3 3"/>
<path d="M1.33335 11.3333C1.70154 11.3333 2.00002 11.0349 2.00002 10.6667C2.00002 10.2985 1.70154 10 1.33335 10C0.965167 10 0.666687 10.2985 0.666687 10.6667C0.666687 11.0349 0.965167 11.3333 1.33335 11.3333Z" fill="black" stroke="black" stroke-width="1.5" stroke-linecap="round" stroke-linejoin="round"/>
<path d="M1.33331 10.6667H7.99998" stroke="black" stroke-width="1.5" stroke-linecap="round" stroke-linejoin="round"/>
<path d="M7.99998 11.3333C8.36818 11.3333 8.66665 11.0349 8.66665 10.6667C8.66665 10.2985 8.36818 10 7.99998 10C7.63178 10 7.33331 10.2985 7.33331 10.6667C7.33331 11.0349 7.63178 11.3333 7.99998 11.3333Z" fill="black" stroke="black" stroke-width="1.5" stroke-linecap="round" stroke-linejoin="round"/>
</g>
<defs>
<clipPath id="clip0_1_7771">
<rect width="16" height="16" fill="white"/>
</clipPath>
</defs>
</svg>
