<svg width="16" height="16" viewBox="0 0 16 16" fill="none" xmlns="http://www.w3.org/2000/svg">
<path d="M11.6667 12.7497C10.6527 13.5335 9.3808 14 8 14C4.68629 14 2 11.3137 2 8C2 4.68629 4.68629 2 8 2C11.3137 2 14 4.68629 14 8C14 11.6667 10 11.6667 10 9.33333C10 8 10 5.33333 10 5.33333" stroke="black" stroke-width="1.5" stroke-linecap="round" stroke-linejoin="round"/>
<path d="M10 8.00001V7.00001C10 6.07954 9.1046 5.33334 8 5.33334C6.8954 5.33334 6 6.07954 6 7.00001V8.00001" stroke="black" stroke-width="1.5" stroke-linecap="round" stroke-linejoin="round"/>
<path d="M10 8V9C10 9.92047 9.1046 10.6667 8 10.6667C6.8954 10.6667 6 9.92047 6 9V8" stroke="black" stroke-width="1.5" stroke-linecap="round" stroke-linejoin="round"/>
</svg>
