<svg width="18" height="16" viewBox="0 0 18 16" fill="none" xmlns="http://www.w3.org/2000/svg">
<path d="M16.3334 6.66666V9.33332" stroke="black" stroke-width="1.5" stroke-linecap="round" stroke-linejoin="round"/>
<path d="M1.66663 10.6667V5.33333C1.66663 4.59695 2.26358 4 2.99996 4H13C13.7364 4 14.3333 4.59695 14.3333 5.33333V10.6667C14.3333 11.4031 13.7364 12 13 12H2.99996C2.26358 12 1.66663 11.4031 1.66663 10.6667Z" stroke="black" stroke-width="1.5"/>
<path d="M3.66663 9.6V6.4C3.66663 6.17909 3.84571 6 4.06663 6H7.26663C7.48754 6 7.66663 6.17909 7.66663 6.4V9.6C7.66663 9.82093 7.48754 10 7.26663 10H4.06663C3.84571 10 3.66663 9.82093 3.66663 9.6Z" stroke="black" stroke-width="1.5"/>
</svg>
