<svg width="16" height="16" viewBox="0 0 16 16" fill="none" xmlns="http://www.w3.org/2000/svg">
<g clip-path="url(#clip0_1_7397)">
<path d="M3.33341 12.6667C4.80617 12.6667 6.00008 11.4727 6.00008 10C6.00008 8.52728 4.80617 7.33334 3.33341 7.33334C1.86065 7.33334 0.666748 8.52728 0.666748 10C0.666748 11.4727 1.86065 12.6667 3.33341 12.6667Z" stroke="black" stroke-width="1.5" stroke-linecap="round" stroke-linejoin="round"/>
<path d="M5.66675 5H9.66675M9.66675 5H10.0001L12.6667 10M9.66675 5L11.0001 3M11.0001 3H9.33341M11.0001 3H12.3334" stroke="black" stroke-width="1.5" stroke-linecap="round" stroke-linejoin="round"/>
<path d="M3.33325 10L5.66659 5L7.99992 9.33333H9.99992" stroke="black" stroke-width="1.5" stroke-linecap="round" stroke-linejoin="round"/>
<path d="M5.66659 5C5.44437 4.33333 4.66659 3 3.33325 3" stroke="black" stroke-width="1.5" stroke-linecap="round" stroke-linejoin="round"/>
<path d="M12.6667 12.6667C14.1394 12.6667 15.3333 11.4727 15.3333 10C15.3333 8.52728 14.1394 7.33334 12.6667 7.33334C11.1939 7.33334 10 8.52728 10 10C10 11.4727 11.1939 12.6667 12.6667 12.6667Z" stroke="black" stroke-width="1.5" stroke-linecap="round" stroke-linejoin="round"/>
</g>
<defs>
<clipPath id="clip0_1_7397">
<rect width="16" height="16" fill="white"/>
</clipPath>
</defs>
</svg>
