<svg width="16" height="17" viewBox="0 0 16 17" fill="none" xmlns="http://www.w3.org/2000/svg">
<path d="M7.99992 15.3333C8.36812 15.3333 8.66659 15.0349 8.66659 14.6667C8.66659 14.2985 8.36812 14 7.99992 14C7.63172 14 7.33325 14.2985 7.33325 14.6667C7.33325 15.0349 7.63172 15.3333 7.99992 15.3333Z" fill="black" stroke="black" stroke-width="1.5" stroke-linecap="round" stroke-linejoin="round"/>
<path d="M1.99992 5.33333C2.36811 5.33333 2.66659 5.03485 2.66659 4.66667C2.66659 4.29848 2.36811 4 1.99992 4C1.63173 4 1.33325 4.29848 1.33325 4.66667C1.33325 5.03485 1.63173 5.33333 1.99992 5.33333Z" fill="black" stroke="black" stroke-width="1.5" stroke-linecap="round" stroke-linejoin="round"/>
<path d="M1.99992 12C2.36811 12 2.66659 11.7015 2.66659 11.3333C2.66659 10.9651 2.36811 10.6667 1.99992 10.6667C1.63173 10.6667 1.33325 10.9651 1.33325 11.3333C1.33325 11.7015 1.63173 12 1.99992 12Z" fill="black" stroke="black" stroke-width="1.5" stroke-linecap="round" stroke-linejoin="round"/>
<path d="M14 4.90204V11.098C14 11.2433 13.9213 11.3771 13.7943 11.4477L8.19428 14.5587C8.07348 14.6259 7.92655 14.6259 7.80575 14.5587L2.20575 11.4477C2.07877 11.3771 2.00001 11.2433 2.00001 11.098L2 4.90204C2 4.75677 2.07876 4.62293 2.20575 4.55238L7.80575 1.44127C7.92655 1.37415 8.07348 1.37415 8.19428 1.44127L13.7943 4.55238C13.9212 4.62293 14 4.75677 14 4.90204Z" stroke="black" stroke-width="1.5" stroke-linecap="round" stroke-linejoin="round"/>
<path d="M2.35229 4.86243L7.80574 7.89214C7.92654 7.95921 8.07347 7.95921 8.19427 7.89214L13.6667 4.8519" stroke="black" stroke-width="1.5" stroke-linecap="round" stroke-linejoin="round"/>
<path d="M8 14V8" stroke="black" stroke-width="1.5" stroke-linecap="round" stroke-linejoin="round"/>
</svg>
