<svg width="16" height="16" viewBox="0 0 16 16" fill="none" xmlns="http://www.w3.org/2000/svg">
<path d="M6.66669 6.00667L6.67335 5.99927" stroke="black" stroke-width="1.5" stroke-linecap="round" stroke-linejoin="round"/>
<path d="M9.33331 6.00667L9.33998 5.99927" stroke="black" stroke-width="1.5" stroke-linecap="round" stroke-linejoin="round"/>
<path d="M6.66669 8.67332L6.67335 8.66592" stroke="black" stroke-width="1.5" stroke-linecap="round" stroke-linejoin="round"/>
<path d="M9.33331 8.67332L9.33998 8.66592" stroke="black" stroke-width="1.5" stroke-linecap="round" stroke-linejoin="round"/>
<path d="M6.66669 11.34L6.67335 11.3326" stroke="black" stroke-width="1.5" stroke-linecap="round" stroke-linejoin="round"/>
<path d="M9.33331 11.34L9.33998 11.3326" stroke="black" stroke-width="1.5" stroke-linecap="round" stroke-linejoin="round"/>
<path d="M4 13.6V3.73333C4 3.51242 4.17909 3.33333 4.4 3.33333H8V2.4C8 2.17909 8.17907 2 8.4 2H11.6C11.8209 2 12 2.17909 12 2.4V13.6C12 13.8209 11.8209 14 11.6 14H4.4C4.17909 14 4 13.8209 4 13.6Z" stroke="black" stroke-width="1.5" stroke-linecap="round" stroke-linejoin="round"/>
</svg>
