<svg width="16" height="16" viewBox="0 0 16 16" fill="none" xmlns="http://www.w3.org/2000/svg">
<g clip-path="url(#clip0_1_6608)">
<path d="M5.66663 2.66669H3.99996C3.26358 2.66669 2.66663 3.26364 2.66663 4.00002V13.3334C2.66663 14.0698 3.26358 14.6667 3.99996 14.6667H7.99996" stroke="black" stroke-width="1.5" stroke-linecap="round"/>
<path d="M10.3334 2.66669H12C12.7364 2.66669 13.3334 3.26364 13.3334 4.00002V10" stroke="black" stroke-width="1.5" stroke-linecap="round"/>
<path d="M5.33337 4.26669V3.00002C5.33337 2.81593 5.48261 2.66669 5.66671 2.66669C5.8508 2.66669 6.00285 2.51738 6.03439 2.33601C6.13316 1.76783 6.51603 0.666687 8.00004 0.666687C9.48404 0.666687 9.86691 1.76783 9.96571 2.33601C9.99724 2.51738 10.1493 2.66669 10.3334 2.66669C10.5174 2.66669 10.6667 2.81593 10.6667 3.00002V4.26669C10.6667 4.4876 10.4876 4.66669 10.2667 4.66669H5.73337C5.51246 4.66669 5.33337 4.4876 5.33337 4.26669Z" stroke="black" stroke-width="1.5" stroke-linecap="round"/>
<path d="M10.3334 13.6667L11.6667 15L15 11.6667" stroke="black" stroke-width="1.5" stroke-linecap="round" stroke-linejoin="round"/>
</g>
<defs>
<clipPath id="clip0_1_6608">
<rect width="16" height="16" fill="white"/>
</clipPath>
</defs>
</svg>
