<svg width="16" height="16" viewBox="0 0 16 16" fill="none" xmlns="http://www.w3.org/2000/svg">
<g clip-path="url(#clip0_1_6572)">
<path d="M13.3333 11.7382C14.3291 11.348 15.3333 10.4592 15.3333 8.66665C15.3333 5.99998 13.1111 5.33331 12 5.33331C12 3.99998 12 1.33331 7.99996 1.33331C3.99996 1.33331 3.99996 3.99998 3.99996 5.33331C2.88885 5.33331 0.666626 5.99998 0.666626 8.66665C0.666626 10.4592 1.67081 11.348 2.66663 11.7382" stroke="black" stroke-width="1.5" stroke-linecap="round" stroke-linejoin="round"/>
<path d="M10.9468 12.9916L9.76829 14.1701C8.72689 15.2115 7.03843 15.2115 5.99705 14.1701L5.76135 13.9344" stroke="black" stroke-width="1.5" stroke-linecap="round" stroke-linejoin="round"/>
<path d="M10.7111 14.6415L10.9468 12.9916L9.29688 13.2273L10.7111 14.6415Z" stroke="black" stroke-width="1.5" stroke-linecap="round" stroke-linejoin="round"/>
<path d="M5.05371 11.2677L6.23222 10.0893C7.27365 9.04788 8.96205 9.04788 10.0035 10.0893L10.2392 10.3249" stroke="black" stroke-width="1.5" stroke-linecap="round" stroke-linejoin="round"/>
<path d="M5.28941 9.61786L5.05371 11.2678L6.70359 11.0321L5.28941 9.61786Z" stroke="black" stroke-width="1.5" stroke-linecap="round" stroke-linejoin="round"/>
</g>
<defs>
<clipPath id="clip0_1_6572">
<rect width="16" height="16" fill="white"/>
</clipPath>
</defs>
</svg>
