<svg width="16" height="16" viewBox="0 0 16 16" fill="none" xmlns="http://www.w3.org/2000/svg">
<g clip-path="url(#clip0_1_6385)">
<path d="M2.00002 15.3334C1.26364 15.3334 0.666687 14.7364 0.666687 14C0.666687 13.2636 1.26364 12.6667 2.00002 12.6667C2.7364 12.6667 3.33335 13.2636 3.33335 14C3.33335 14.7364 2.7364 15.3334 2.00002 15.3334Z" stroke="black" stroke-width="1.5" stroke-linecap="round" stroke-linejoin="round"/>
<path d="M14 15.3334C13.2636 15.3334 12.6667 14.7364 12.6667 14C12.6667 13.2636 13.2636 12.6667 14 12.6667C14.7364 12.6667 15.3334 13.2636 15.3334 14C15.3334 14.7364 14.7364 15.3334 14 15.3334Z" stroke="black" stroke-width="1.5" stroke-linecap="round" stroke-linejoin="round"/>
<path d="M2.00002 3.33335C1.26364 3.33335 0.666687 2.7364 0.666687 2.00002C0.666687 1.26364 1.26364 0.666687 2.00002 0.666687C2.7364 0.666687 3.33335 1.26364 3.33335 2.00002C3.33335 2.7364 2.7364 3.33335 2.00002 3.33335Z" stroke="black" stroke-width="1.5" stroke-linecap="round" stroke-linejoin="round"/>
<path d="M14 3.33335C13.2636 3.33335 12.6667 2.7364 12.6667 2.00002C12.6667 1.26364 13.2636 0.666687 14 0.666687C14.7364 0.666687 15.3334 1.26364 15.3334 2.00002C15.3334 2.7364 14.7364 3.33335 14 3.33335Z" stroke="black" stroke-width="1.5" stroke-linecap="round" stroke-linejoin="round"/>
<path d="M8.66669 8.00011C8.66669 7.16905 7.89435 6.33331 6.95235 6.33331H6.38102C5.43435 6.33331 4.66669 7.07971 4.66669 8.00011C4.66669 8.79318 5.23669 9.45685 6.00002 9.62531C6.12515 9.65285 6.2529 9.66671 6.38102 9.66665" stroke="black" stroke-width="1.5" stroke-linecap="round" stroke-linejoin="round"/>
<path d="M7.33331 8.00018C7.33331 8.83091 8.10565 9.66665 9.04765 9.66665H9.61898C10.5656 9.66665 11.3333 8.92058 11.3333 8.00018C11.3333 7.20678 10.7633 6.54275 9.99998 6.37467C9.87485 6.34711 9.74711 6.33325 9.61898 6.33331" stroke="black" stroke-width="1.5" stroke-linecap="round" stroke-linejoin="round"/>
<path d="M14 12.6666V3.33331" stroke="black" stroke-width="1.5" stroke-linecap="round" stroke-linejoin="round"/>
<path d="M2 12.6666V3.33331" stroke="black" stroke-width="1.5" stroke-linecap="round" stroke-linejoin="round"/>
<path d="M3.33331 2H12.6666" stroke="black" stroke-width="1.5" stroke-linecap="round" stroke-linejoin="round"/>
<path d="M3.33331 14H12.6666" stroke="black" stroke-width="1.5" stroke-linecap="round" stroke-linejoin="round"/>
</g>
<defs>
<clipPath id="clip0_1_6385">
<rect width="16" height="16" fill="white"/>
</clipPath>
</defs>
</svg>
