<svg width="16" height="16" viewBox="0 0 16 16" fill="none" xmlns="http://www.w3.org/2000/svg">
<path d="M2.35229 4.8623L6 6.8888" stroke="black" stroke-width="1.5" stroke-linecap="round" stroke-linejoin="round"/>
<path d="M14.6667 1.33331H13.3333M8 7.99998V6.66665C8 4.30317 9.5374 2.29876 11.6667 1.5989" stroke="black" stroke-width="1.5" stroke-linecap="round" stroke-linejoin="round"/>
<path d="M14.6667 8H13.3333M8 14.6667V13.3333C8 10.9699 9.5374 8.96547 11.6667 8.2656" stroke="black" stroke-width="1.5" stroke-linecap="round" stroke-linejoin="round"/>
<path d="M8.00001 14.6667L2.20575 11.4477C2.07877 11.3771 2.00001 11.2433 2.00001 11.098L2 4.90204C2 4.75677 2.07876 4.62292 2.20575 4.55238L7.80575 1.44127C7.92655 1.37415 8.07348 1.37415 8.19428 1.44127L10 2.44446" stroke="black" stroke-width="1.5" stroke-linecap="round" stroke-linejoin="round"/>
<path d="M8.00002 7.99993L2.35229 4.8623" stroke="black" stroke-width="1.5" stroke-linecap="round" stroke-linejoin="round"/>
<path d="M8 14V8" stroke="black" stroke-width="1.5" stroke-linecap="round" stroke-linejoin="round"/>
<path d="M10 9.00002V2.66669" stroke="black" stroke-width="1.5" stroke-linecap="round" stroke-linejoin="round"/>
</svg>
