<svg width="16" height="16" viewBox="0 0 16 16" fill="none" xmlns="http://www.w3.org/2000/svg">
<g clip-path="url(#clip0_1_6055)">
<path d="M8 2.66669V5.33335" stroke="black" stroke-width="1.5" stroke-linecap="round" stroke-linejoin="round"/>
<path d="M2.66669 5.33331L4.33335 6.99998" stroke="black" stroke-width="1.5" stroke-linecap="round" stroke-linejoin="round"/>
<path d="M11.6667 6.99998L13.3334 5.33331" stroke="black" stroke-width="1.5" stroke-linecap="round" stroke-linejoin="round"/>
<path d="M2 11.3333H4" stroke="black" stroke-width="1.5" stroke-linecap="round" stroke-linejoin="round"/>
<path d="M8 11.3333L8.66667 7.33331" stroke="black" stroke-width="1.5" stroke-linecap="round" stroke-linejoin="round"/>
<path d="M12 11.3333H14" stroke="black" stroke-width="1.5" stroke-linecap="round" stroke-linejoin="round"/>
<path d="M5.66665 13.334H2.66665C1.82943 12.2197 1.33331 10.8344 1.33331 9.33335C1.33331 5.65145 4.31808 2.66669 7.99998 2.66669C11.6818 2.66669 14.6666 5.65145 14.6666 9.33335C14.6666 10.8344 14.1705 12.2197 13.3333 13.334L10.3333 13.3334" stroke="black" stroke-width="1.5" stroke-linecap="round" stroke-linejoin="round"/>
<path d="M8 15.3333C9.1046 15.3333 10 14.4379 10 13.3333C10 12.2287 9.1046 11.3333 8 11.3333C6.8954 11.3333 6 12.2287 6 13.3333C6 14.4379 6.8954 15.3333 8 15.3333Z" stroke="black" stroke-width="1.5" stroke-linecap="round" stroke-linejoin="round"/>
</g>
<defs>
<clipPath id="clip0_1_6055">
<rect width="16" height="16" fill="white"/>
</clipPath>
</defs>
</svg>
