<svg width="16" height="16" viewBox="0 0 16 16" fill="none" xmlns="http://www.w3.org/2000/svg">
<path d="M11.4142 14.2426L12.8284 12.8284M12.8284 12.8284L14.2427 11.4142M12.8284 12.8284L11.4142 11.4142M12.8284 12.8284L14.2427 14.2426" stroke="black" stroke-width="1.5" stroke-linecap="round" stroke-linejoin="round"/>
<path d="M2.66663 4V8C2.66663 8 2.66663 10 7.33329 10C12 10 12 8 12 8V4" stroke="black" stroke-width="1.5" stroke-linecap="round" stroke-linejoin="round"/>
<path d="M7.33329 2C12 2 12 4 12 4C12 4 12 6 7.33329 6C2.66663 6 2.66663 4 2.66663 4C2.66663 4 2.66663 2 7.33329 2Z" stroke="black" stroke-width="1.5" stroke-linecap="round" stroke-linejoin="round"/>
<path d="M7.33329 14C2.66663 14 2.66663 12 2.66663 12V8" stroke="black" stroke-width="1.5" stroke-linecap="round" stroke-linejoin="round"/>
</svg>
