<svg width="16" height="16" viewBox="0 0 16 16" fill="none" xmlns="http://www.w3.org/2000/svg">
<g clip-path="url(#clip0_1_5968)">
<path d="M14.6667 9.33333V5.66667M4 8.66667V4C4 2.89543 4.89543 2 6 2H9.33333" stroke="black" stroke-width="1.5" stroke-linecap="round" stroke-linejoin="round"/>
<path d="M11.3281 2.66669H13.3281M13.3281 2.66669H15.3281M13.3281 2.66669V0.666687M13.3281 2.66669V4.66669" stroke="black" stroke-width="1.5" stroke-linecap="round" stroke-linejoin="round"/>
<path d="M8.00004 14H4.00004C2.52728 14 1.33337 12.8061 1.33337 11.3334C1.33337 9.86062 2.52728 8.66669 4.00004 8.66669H11.3334H12C10.5273 8.66669 9.33337 9.86062 9.33337 11.3334C9.33337 12.8061 10.5273 14 12 14C13.4728 14 14.6667 12.8061 14.6667 11.3334V9.33335" stroke="black" stroke-width="1.5" stroke-linecap="round" stroke-linejoin="round"/>
</g>
<defs>
<clipPath id="clip0_1_5968">
<rect width="16" height="16" fill="white"/>
</clipPath>
</defs>
</svg>
