<svg width="16" height="16" viewBox="0 0 16 16" fill="none" xmlns="http://www.w3.org/2000/svg">
<g clip-path="url(#clip0_1_5907)">
<path d="M5.33333 12.6667C6.06971 12.6667 6.66667 12.0697 6.66667 11.3333C6.66667 10.5969 6.06971 10 5.33333 10C4.59695 10 4 10.5969 4 11.3333C4 12.0697 4.59695 12.6667 5.33333 12.6667Z" stroke="black" stroke-width="1.5" stroke-miterlimit="1.5" stroke-linecap="round" stroke-linejoin="round"/>
<path d="M12.0001 12.6667C12.7365 12.6667 13.3334 12.0697 13.3334 11.3333C13.3334 10.5969 12.7365 10 12.0001 10C11.2637 10 10.6667 10.5969 10.6667 11.3333C10.6667 12.0697 11.2637 12.6667 12.0001 12.6667Z" stroke="black" stroke-width="1.5" stroke-miterlimit="1.5" stroke-linecap="round" stroke-linejoin="round"/>
<path d="M6.70008 11.3333H10.0001V4.4C10.0001 4.17909 9.82101 4 9.60008 4H0.666748" stroke="black" stroke-width="1.5" stroke-linecap="round"/>
<path d="M3.76667 11.3334H2.4C2.17909 11.3334 2 11.1543 2 10.9334V7.66669" stroke="black" stroke-width="1.5" stroke-linecap="round"/>
<path d="M1.33325 6H3.99992" stroke="black" stroke-width="1.5" stroke-linecap="round" stroke-linejoin="round"/>
<path d="M10 6H13.7401C13.8981 6 14.0414 6.09309 14.1056 6.23755L15.2989 8.9224C15.3216 8.9736 15.3333 9.02893 15.3333 9.08487V10.9333C15.3333 11.1543 15.1543 11.3333 14.9333 11.3333H13.6667" stroke="black" stroke-width="1.5" stroke-linecap="round"/>
<path d="M10 11.3333H10.6667" stroke="black" stroke-width="1.5" stroke-linecap="round"/>
</g>
<defs>
<clipPath id="clip0_1_5907">
<rect width="16" height="16" fill="white"/>
</clipPath>
</defs>
</svg>
