<svg width="16" height="16" viewBox="0 0 16 16" fill="none" xmlns="http://www.w3.org/2000/svg">
<g clip-path="url(#clip0_1_5756)">
<path d="M8 14V11.3333C8 9.4924 6.50761 8 4.66667 8H2" stroke="black" stroke-width="1.5" stroke-linecap="round" stroke-linejoin="round"/>
<path d="M8 14V11.3333C8 9.4924 9.4924 8 11.3333 8H14" stroke="black" stroke-width="1.5" stroke-linecap="round" stroke-linejoin="round"/>
<path d="M8 1.33337V14.6667" stroke="black" stroke-width="1.5" stroke-linecap="round" stroke-linejoin="round"/>
<path d="M3.99998 5.33331C2.95858 6.37471 2.37471 6.95858 1.33331 7.99998C2.37471 9.04138 2.95858 9.62525 3.99998 10.6666" stroke="black" stroke-width="1.5" stroke-linecap="round" stroke-linejoin="round"/>
<path d="M10.6666 3.99998C9.62525 2.95858 9.04138 2.37471 7.99998 1.33331C6.95858 2.37471 6.37471 2.95858 5.33331 3.99998" stroke="black" stroke-width="1.5" stroke-linecap="round" stroke-linejoin="round"/>
<path d="M12 5.33331C13.0414 6.37471 13.6253 6.95858 14.6667 7.99998C13.6253 9.04138 13.0414 9.62525 12 10.6666" stroke="black" stroke-width="1.5" stroke-linecap="round" stroke-linejoin="round"/>
</g>
<defs>
<clipPath id="clip0_1_5756">
<rect width="16" height="16" fill="white"/>
</clipPath>
</defs>
</svg>
