<svg width="16" height="16" viewBox="0 0 16 16" fill="none" xmlns="http://www.w3.org/2000/svg">
<g clip-path="url(#clip0_1_5331)">
<path d="M1.86663 5.39999C1.86663 5.73136 1.598 5.99999 1.26663 5.99999C0.935253 5.99999 0.666626 5.73136 0.666626 5.39999C0.666626 5.06861 0.935253 4.79999 1.26663 4.79999C1.598 4.79999 1.86663 5.06861 1.86663 5.39999Z" fill="black"/>
<path d="M1.86663 5.4C1.86663 5.73137 1.598 6 1.26663 6C0.935253 6 0.666626 5.73137 0.666626 5.4C0.666626 5.06863 0.935253 4.8 1.26663 4.8C1.598 4.8 1.86663 5.06863 1.86663 5.4ZM1.86663 5.4V2.4C1.86663 2.17909 2.04571 2 2.26663 2H3.33329" stroke="black" stroke-width="1.5" stroke-linecap="round"/>
<path d="M5.33333 11.3334C6.06971 11.3334 6.66667 10.7364 6.66667 10C6.66667 9.26362 6.06971 8.66669 5.33333 8.66669C4.59695 8.66669 4 9.26362 4 10C4 10.7364 4.59695 11.3334 5.33333 11.3334Z" stroke="black" stroke-width="1.5" stroke-linecap="round" stroke-linejoin="round"/>
<path d="M1.36621 8.66665C1.70069 12.0355 4.54306 14.6666 7.99996 14.6666C11.6818 14.6666 14.6666 11.6818 14.6666 7.99998C14.6666 4.31808 11.6818 1.33331 7.99996 1.33331C7.05182 1.33331 6.1499 1.53125 5.33329 1.88804" stroke="black" stroke-width="1.5" stroke-linecap="round" stroke-linejoin="round"/>
<path d="M10.3333 5.99998C10.5174 5.99998 10.6667 5.85074 10.6667 5.66665C10.6667 5.48255 10.5174 5.33331 10.3333 5.33331C10.1493 5.33331 10 5.48255 10 5.66665C10 5.85074 10.1493 5.99998 10.3333 5.99998Z" fill="black" stroke="black" stroke-width="1.5" stroke-linecap="round" stroke-linejoin="round"/>
<path d="M5.66671 5.99998C5.8508 5.99998 6.00004 5.85074 6.00004 5.66665C6.00004 5.48255 5.8508 5.33331 5.66671 5.33331C5.48261 5.33331 5.33337 5.48255 5.33337 5.66665C5.33337 5.85074 5.48261 5.99998 5.66671 5.99998Z" fill="black" stroke="black" stroke-width="1.5" stroke-linecap="round" stroke-linejoin="round"/>
</g>
<defs>
<clipPath id="clip0_1_5331">
<rect width="16" height="16" fill="white"/>
</clipPath>
</defs>
</svg>
