<svg width="16" height="16" viewBox="0 0 16 16" fill="none" xmlns="http://www.w3.org/2000/svg">
<path d="M7 10H6.4C6.17909 10 6 10.1791 6 10.4V13.6C6 13.8209 6.17909 14 6.4 14H13.6C13.8209 14 14 13.8209 14 13.6V6.4C14 6.17909 13.8209 6 13.6 6H10.4C10.1791 6 10 6.17909 10 6.4V7" stroke="black" stroke-width="1.5" stroke-linecap="round" stroke-linejoin="round"/>
<path d="M9 10H9.6C9.82093 10 10 9.82093 10 9.6V9" stroke="black" stroke-width="1.5" stroke-linecap="round" stroke-linejoin="round"/>
<path d="M6 9V9.6C6 9.82093 5.82091 10 5.6 10H2.4C2.17909 10 2 9.82093 2 9.6V2.4C2 2.17909 2.17909 2 2.4 2H9.6C9.82093 2 10 2.17909 10 2.4V5.6C10 5.82091 9.82093 6 9.6 6H9" stroke="black" stroke-width="1.5" stroke-linecap="round" stroke-linejoin="round"/>
<path d="M6 7V6.4C6 6.17909 6.17909 6 6.4 6H7" stroke="black" stroke-width="1.5" stroke-linecap="round" stroke-linejoin="round"/>
</svg>
