<svg width="16" height="16" viewBox="0 0 16 16" fill="none" xmlns="http://www.w3.org/2000/svg">
<path d="M4.66667 2H3.33333C2.59695 2 2 2.59695 2 3.33333V4.66667" stroke="black" stroke-width="1.5" stroke-linecap="round" stroke-linejoin="round"/>
<path d="M11.3334 2H12.6667C13.4031 2 14 2.59695 14 3.33333V4.66667" stroke="black" stroke-width="1.5" stroke-linecap="round" stroke-linejoin="round"/>
<path d="M10.6666 5.33331V6.66665" stroke="black" stroke-width="1.5" stroke-linecap="round" stroke-linejoin="round"/>
<path d="M5.33337 5.33331V6.66665" stroke="black" stroke-width="1.5" stroke-linecap="round" stroke-linejoin="round"/>
<path d="M6 10.6667C6 10.6667 6.66667 11.3334 8 11.3334C9.33333 11.3334 10 10.6667 10 10.6667" stroke="black" stroke-width="1.5" stroke-linecap="round" stroke-linejoin="round"/>
<path d="M8.00004 5.33331V8.66665H7.33337" stroke="black" stroke-width="1.5" stroke-linecap="round" stroke-linejoin="round"/>
<path d="M4.66667 14H3.33333C2.59695 14 2 13.403 2 12.6666V11.3333" stroke="black" stroke-width="1.5" stroke-linecap="round" stroke-linejoin="round"/>
<path d="M11.3334 14H12.6667C13.4031 14 14 13.403 14 12.6666V11.3333" stroke="black" stroke-width="1.5" stroke-linecap="round" stroke-linejoin="round"/>
</svg>
