<svg width="16" height="16" viewBox="0 0 16 16" fill="none" xmlns="http://www.w3.org/2000/svg">
<path fill-rule="evenodd" clip-rule="evenodd" d="M2 5.04139C2 4.09836 2.76439 3.33347 3.70879 3.33347C4.22959 3.33347 4.6664 3.33347 4.6664 3.33347V2H8V3.33347H9.3344C11.9108 3.33347 14 5.42219 14 7.99847C14 9.52607 14 11.1283 14 12.2933C14 12.7456 13.82 13.1809 13.4996 13.5009C13.1792 13.8209 12.7448 14.0012 12.2912 14.0012C10.01 14.0012 5.98999 14.0012 3.70879 14.0012C3.25519 14.0012 2.82081 13.8209 2.50041 13.5009C2.18001 13.1809 2 12.7456 2 12.2933C2 10.3027 2 7.032 2 5.04139Z" stroke="black" stroke-width="1.49348" stroke-miterlimit="1.5" stroke-linecap="round" stroke-linejoin="round"/>
<path d="M5.33325 5.91878L10.6666 11.4103L7.99992 8.6632M7.99992 8.6632L5.33325 11.4103M7.99992 8.6632L10.6666 5.91602" stroke="black" stroke-width="1.50217" stroke-miterlimit="1.5" stroke-linecap="round" stroke-linejoin="round"/>
</svg>
