<svg width="16" height="16" viewBox="0 0 16 16" fill="none" xmlns="http://www.w3.org/2000/svg">
<g clip-path="url(#clip0_1_4428)">
<path d="M8 10.6667V9.33333V8" stroke="black" stroke-width="1.5" stroke-linecap="round" stroke-linejoin="round"/>
<path d="M8 6.00004V5.66671V5.33337" stroke="black" stroke-width="1.5" stroke-linecap="round" stroke-linejoin="round"/>
<path d="M8.00008 13.3333C10.9456 13.3333 13.3334 10.9455 13.3334 7.99996C13.3334 5.05444 10.9456 2.66663 8.00008 2.66663C5.05456 2.66663 2.66675 5.05444 2.66675 7.99996C2.66675 10.9455 5.05456 13.3333 8.00008 13.3333Z" stroke="black" stroke-width="1.5"/>
<path d="M2.63555 3C1.41411 4.30992 0.666748 6.06768 0.666748 8C0.666748 9.93233 1.41411 11.6901 2.63555 13" stroke="black" stroke-width="1.5" stroke-linecap="round" stroke-linejoin="round"/>
<path d="M13.3645 3C14.5859 4.30992 15.3333 6.06768 15.3333 8C15.3333 9.93233 14.5859 11.6901 13.3645 13" stroke="black" stroke-width="1.5" stroke-linecap="round" stroke-linejoin="round"/>
</g>
<defs>
<clipPath id="clip0_1_4428">
<rect width="16" height="16" fill="white"/>
</clipPath>
</defs>
</svg>
