<svg width="16" height="16" viewBox="0 0 16 16" fill="none" xmlns="http://www.w3.org/2000/svg">
<path d="M2.66665 7.66653L2.34327 7.7474C1.74971 7.8958 1.33331 8.42907 1.33331 9.04093V10.2921C1.33331 10.904 1.74971 11.4373 2.34327 11.5857L3.50297 11.8756C3.75543 11.9387 3.99998 11.7478 3.99998 11.4875V7.84553C3.99998 7.58527 3.75543 7.39433 3.50297 7.45747L2.66665 7.66653ZM2.66665 7.66653V7.33333C2.66665 4.38781 5.05446 2 7.99998 2C10.9455 2 13.3333 4.38781 13.3333 7.33333V7.66653M13.3333 7.66653L13.6567 7.7474C14.2502 7.8958 14.6666 8.42907 14.6666 9.04093V10.2921C14.6666 10.904 14.2502 11.4373 13.6567 11.5857L13.3333 11.6665M13.3333 7.66653L12.497 7.45747C12.2445 7.39433 12 7.58527 12 7.84553V11.4875C12 11.7478 12.2445 11.9387 12.497 11.8756L13.3333 11.6665M13.3333 11.6665V12V12.3333C13.3333 13.0697 12.7364 13.6667 12 13.6667H9.99998M9.99998 13.6667C9.99998 13.1144 9.55225 12.6667 8.99998 12.6667H6.99998C6.44769 12.6667 5.99998 13.1144 5.99998 13.6667C5.99998 14.2189 6.44769 14.6667 6.99998 14.6667H8.99998C9.55225 14.6667 9.99998 14.2189 9.99998 13.6667Z" stroke="black" stroke-width="1.5"/>
</svg>
