<svg width="16" height="16" viewBox="0 0 16 16" fill="none" xmlns="http://www.w3.org/2000/svg">
<g clip-path="url(#clip0_1_4128)">
<path d="M9.33335 5.99996L9.16669 6.24996M6.66669 5.99996C6.05855 5.19039 5.09051 4.66663 4.00002 4.66663C2.15907 4.66663 0.666687 6.15901 0.666687 7.99996C0.666687 9.84089 2.15907 11.3333 4.00002 11.3333C5.09057 11.3333 6.05879 10.8096 6.66695 9.99996L6.88915 9.66663" stroke="black" stroke-width="1.5" stroke-linecap="round" stroke-linejoin="round"/>
<path d="M6.66669 5.99996L9.33309 9.99996C9.94122 10.8096 10.9095 11.3333 12 11.3333C13.841 11.3333 15.3334 9.84089 15.3334 7.99996C15.3334 6.15901 13.841 4.66663 12 4.66663C10.9095 4.66663 9.94122 5.19033 9.33309 5.99996" stroke="black" stroke-width="1.5" stroke-linecap="round" stroke-linejoin="round"/>
</g>
<defs>
<clipPath id="clip0_1_4128">
<rect width="16" height="16" fill="white"/>
</clipPath>
</defs>
</svg>
