<svg width="16" height="16" viewBox="0 0 16 16" fill="none" xmlns="http://www.w3.org/2000/svg">
<path d="M8.00004 10.6667C9.47277 10.6667 10.6667 9.47277 10.6667 8.00004C10.6667 6.52728 9.47277 5.33337 8.00004 5.33337C6.52728 5.33337 5.33337 6.52728 5.33337 8.00004C5.33337 9.47277 6.52728 10.6667 8.00004 10.6667Z" stroke="black" stroke-width="1.5" stroke-linecap="round" stroke-linejoin="round"/>
<path d="M2 10.6667V5.33333C2 3.49239 3.49239 2 5.33333 2H10.6667C12.5076 2 14 3.49239 14 5.33333V10.6667C14 12.5076 12.5076 14 10.6667 14H5.33333C3.49239 14 2 12.5076 2 10.6667Z" stroke="black" stroke-width="1.5"/>
<path d="M11.6666 4.34005L11.6733 4.33264" stroke="black" stroke-width="1.5" stroke-linecap="round" stroke-linejoin="round"/>
</svg>
