<svg width="16" height="16" viewBox="0 0 16 16" fill="none" xmlns="http://www.w3.org/2000/svg">
<path d="M4 4H9.33333" stroke="black" stroke-width="1.5" stroke-linecap="round" stroke-linejoin="round"/>
<path d="M4 6.66663H12" stroke="black" stroke-width="1.5" stroke-linecap="round" stroke-linejoin="round"/>
<path d="M8.66663 9.33337H12" stroke="black" stroke-width="1.5" stroke-linecap="round" stroke-linejoin="round"/>
<path d="M8.66663 12H12" stroke="black" stroke-width="1.5" stroke-linecap="round" stroke-linejoin="round"/>
<path d="M1.33337 14.2667V1.73337C1.33337 1.51246 1.51246 1.33337 1.73337 1.33337H12.1677C12.2738 1.33337 12.3755 1.37551 12.4505 1.45053L14.5496 3.54955C14.6246 3.62457 14.6667 3.72631 14.6667 3.83239V14.2667C14.6667 14.4876 14.4876 14.6667 14.2667 14.6667H1.73337C1.51246 14.6667 1.33337 14.4876 1.33337 14.2667Z" stroke="black" stroke-width="1.5" stroke-linecap="round" stroke-linejoin="round"/>
<path d="M4 12V9.33337H6V12H4Z" stroke="black" stroke-width="1.5" stroke-linecap="round" stroke-linejoin="round"/>
<path d="M12 1.33337V3.60004C12 3.82095 12.1791 4.00004 12.4 4.00004H14.6667" stroke="black" stroke-width="1.5" stroke-linecap="round" stroke-linejoin="round"/>
</svg>
