<svg width="16" height="16" viewBox="0 0 16 16" fill="none" xmlns="http://www.w3.org/2000/svg">
<path d="M2.66663 4V2.4C2.66663 2.17909 2.84571 2 3.06663 2H12.9333C13.1542 2 13.3333 2.17909 13.3333 2.4V4" stroke="black" stroke-width="1.5" stroke-linecap="round"/>
<path d="M2.66663 12V13.6C2.66663 13.8209 2.84571 14 3.06663 14H12.9333C13.1542 14 13.3333 13.8209 13.3333 13.6V12" stroke="black" stroke-width="1.5" stroke-linecap="round"/>
<path d="M6.66663 10V8M6.66663 8V6H8.66663V8H6.66663Z" stroke="black" stroke-width="1.5" stroke-linecap="round" stroke-linejoin="round"/>
<path d="M12.6666 6H10.6666V10H12.6666V8.4" stroke="black" stroke-width="1.5" stroke-linecap="round" stroke-linejoin="round"/>
<path d="M4.66671 6C4.66671 6 4.66671 7.6 4.66671 8.8C4.66671 10 3.33337 10 3.33337 10" stroke="black" stroke-width="1.5" stroke-linecap="round" stroke-linejoin="round"/>
</svg>
