<svg width="16" height="16" viewBox="0 0 16 16" fill="none" xmlns="http://www.w3.org/2000/svg">
<g clip-path="url(#clip0_1_3655)">
<path d="M2.66666 12V6.66671C2.66666 5.93033 3.26361 5.33337 3.99999 5.33337H7.46666H9.86666H13.3333C14.0697 5.33337 14.6667 5.93033 14.6667 6.66671V12C14.6667 12.7364 14.0697 13.3334 13.3333 13.3334H9.86666H7.46666H3.99999C3.26361 13.3334 2.66666 12.7364 2.66666 12Z" stroke="black" stroke-width="1.5" stroke-linecap="round" stroke-linejoin="round"/>
<path d="M12.3333 9.34004L12.34 9.33264" stroke="black" stroke-width="1.5" stroke-linecap="round" stroke-linejoin="round"/>
<path d="M5 9.34004L5.00667 9.33264" stroke="black" stroke-width="1.5" stroke-linecap="round" stroke-linejoin="round"/>
<path d="M2.66666 10.6666H1.99999C1.26361 10.6666 0.666656 10.0697 0.666656 9.33329V3.99996C0.666656 3.26358 1.26361 2.66663 1.99999 2.66663H11.3333C12.0697 2.66663 12.6667 3.26358 12.6667 3.99996V5.33329" stroke="black" stroke-width="1.5" stroke-linecap="round" stroke-linejoin="round"/>
<path d="M8.66668 10.6667C7.93028 10.6667 7.33334 10.0697 7.33334 9.33333C7.33334 8.59693 7.93028 8 8.66668 8C9.40308 8 10 8.59693 10 9.33333C10 10.0697 9.40308 10.6667 8.66668 10.6667Z" stroke="black" stroke-width="1.5" stroke-linecap="round" stroke-linejoin="round"/>
</g>
<defs>
<clipPath id="clip0_1_3655">
<rect width="16" height="16" fill="white"/>
</clipPath>
</defs>
</svg>
