<svg width="16" height="16" viewBox="0 0 16 16" fill="none" xmlns="http://www.w3.org/2000/svg">
<path d="M2 13.6V2.4C2 2.17909 2.17909 2 2.4 2H13.6C13.8209 2 14 2.17909 14 2.4V13.6C14 13.8209 13.8209 14 13.6 14H2.4C2.17909 14 2 13.8209 2 13.6Z" stroke="black" stroke-width="1.5"/>
<path d="M10 5.66663C9.54333 5.20997 8.73913 4.89233 8 4.87244M8 4.87244C7.1206 4.84877 6.33333 5.24661 6.33333 6.3333C6.33333 8.33329 10 7.33329 10 9.33329C10 10.474 9.02413 10.9641 8 10.9273M8 4.87244V3.66663M6 9.99996C6.42965 10.5728 7.22853 10.8996 8 10.9273M8 10.9273V12.3333" stroke="black" stroke-width="1.5" stroke-linecap="round" stroke-linejoin="round"/>
</svg>
