<svg width="16" height="16" viewBox="0 0 16 16" fill="none" xmlns="http://www.w3.org/2000/svg">
<path d="M2.66675 4V2.4C2.66675 2.17909 2.84583 2 3.06675 2H12.9334C13.1543 2 13.3334 2.17909 13.3334 2.4V4" stroke="black" stroke-width="1.5" stroke-linecap="round"/>
<path d="M2.66675 12V13.6C2.66675 13.8209 2.84583 14 3.06675 14H12.9334C13.1543 14 13.3334 13.8209 13.3334 13.6V12" stroke="black" stroke-width="1.5" stroke-linecap="round"/>
<path d="M5 10V8M5 8V6H7V8H5Z" stroke="black" stroke-width="1.5" stroke-linecap="round" stroke-linejoin="round"/>
<path d="M1 10V6L2 8L3 6V10" stroke="black" stroke-width="1.5" stroke-linecap="round" stroke-linejoin="round"/>
<path d="M11 6H9V10H11" stroke="black" stroke-width="1.5" stroke-linecap="round" stroke-linejoin="round"/>
<path d="M15 6H13V10H15V8.4" stroke="black" stroke-width="1.5" stroke-linecap="round" stroke-linejoin="round"/>
<path d="M9 8H10.3333" stroke="black" stroke-width="1.5" stroke-linecap="round" stroke-linejoin="round"/>
</svg>
