<svg width="16" height="16" viewBox="0 0 16 16" fill="none" xmlns="http://www.w3.org/2000/svg">
<path d="M1.91388 14.0808L3.32809 12.6666M3.32809 12.6666L4.74231 11.2524M3.32809 12.6666L1.91388 11.2524M3.32809 12.6666L4.74231 14.0808" stroke="black" stroke-width="1.5" stroke-linecap="round" stroke-linejoin="round"/>
<path d="M4.66666 1.33337H11L14 4.33337V12.6667" stroke="black" stroke-width="1.5" stroke-linecap="round" stroke-linejoin="round"/>
<path d="M7.33333 14.6667H11C11.5523 14.6667 12 14.219 12 13.6667V5.83239C12 5.72631 11.9579 5.62457 11.8829 5.54955L9.7838 3.45053C9.7088 3.37551 9.60707 3.33337 9.501 3.33337H3C2.44771 3.33337 2 3.78109 2 4.33337V8.66671" stroke="black" stroke-width="1.5" stroke-linecap="round" stroke-linejoin="round"/>
<path d="M9.33334 3.33337V5.60004C9.33334 5.82095 9.51241 6.00004 9.73334 6.00004H12" stroke="black" stroke-width="1.5" stroke-linecap="round" stroke-linejoin="round"/>
</svg>
