<svg width="16" height="16" viewBox="0 0 16 16" fill="none" xmlns="http://www.w3.org/2000/svg">
<path d="M2 13.6V2.4C2 2.17909 2.17909 2 2.4 2H13.6C13.8209 2 14 2.17909 14 2.4V13.6C14 13.8209 13.8209 14 13.6 14H2.4C2.17909 14 2 13.8209 2 13.6Z" stroke="black" stroke-width="1.5"/>
<path d="M6.33337 7.20004V6.93337C6.33337 6.04972 7.02217 5.33337 7.87184 5.33337C8.72151 5.33337 9.41031 6.04972 9.41031 6.93337C9.41031 7.23804 9.32844 7.52277 9.18631 7.76511C8.48597 8.95977 6.33337 10.6667 6.33337 10.6667H9.66671" stroke="black" stroke-width="1.5" stroke-linecap="round" stroke-linejoin="round"/>
</svg>
