<svg width="16" height="16" viewBox="0 0 16 16" fill="none" xmlns="http://www.w3.org/2000/svg">
<path d="M2 13.6V2.4C2 2.17909 2.17909 2 2.4 2H13.6C13.8209 2 14 2.17909 14 2.4V13.6C14 13.8209 13.8209 14 13.6 14H2.4C2.17909 14 2 13.8209 2 13.6Z" stroke="black" stroke-width="1.5"/>
<path d="M7.99992 10.6666C7.07945 10.6666 6.33325 10.3333 6.33325 8.99996C6.33325 7.99996 7.07945 7.66663 7.99992 7.66663C8.92039 7.66663 9.66659 7.99996 9.66659 8.99996C9.66659 10.3333 8.92039 10.6666 7.99992 10.6666Z" stroke="black" stroke-width="1.5" stroke-linecap="round" stroke-linejoin="round"/>
<path d="M6.33325 8.66671C6.33325 6.66671 6.33325 5.33337 9.33325 5.33337" stroke="black" stroke-width="1.5" stroke-linecap="round" stroke-linejoin="round"/>
</svg>
