<svg width="16" height="16" viewBox="0 0 16 16" fill="none" xmlns="http://www.w3.org/2000/svg">
<path d="M6 3.33337H14" stroke="black" stroke-width="1.5" stroke-linecap="round" stroke-linejoin="round"/>
<path d="M3.33325 4.66667V2L2.33325 3" stroke="black" stroke-width="1.5" stroke-linecap="round" stroke-linejoin="round"/>
<path d="M3.66659 9.33329H2.33325L3.60306 7.35803C3.64453 7.29349 3.66802 7.21783 3.65131 7.14296C3.61282 6.97043 3.47725 6.66663 2.99992 6.66663C2.33326 6.66663 2.33325 7.25923 2.33325 7.25923V7.40736" stroke="black" stroke-width="1.5" stroke-linecap="round" stroke-linejoin="round"/>
<path d="M2.66659 12.6666H2.99992C3.36811 12.6666 3.66659 12.9651 3.66659 13.3333C3.66659 13.7015 3.36811 14 2.99992 14H2.33325" stroke="black" stroke-width="1.5" stroke-linecap="round" stroke-linejoin="round"/>
<path d="M2.33325 11.3334H3.66659L2.66659 12.6667" stroke="black" stroke-width="1.5" stroke-linecap="round" stroke-linejoin="round"/>
<path d="M6 8H14" stroke="black" stroke-width="1.5" stroke-linecap="round" stroke-linejoin="round"/>
<path d="M6 12.6666H14" stroke="black" stroke-width="1.5" stroke-linecap="round" stroke-linejoin="round"/>
</svg>
