<svg width="16" height="16" viewBox="0 0 16 16" fill="none" xmlns="http://www.w3.org/2000/svg">
<path d="M6 12C6 12 6.6 9.50587 8 8" stroke="black" stroke-width="1.5" stroke-linecap="round" stroke-linejoin="round"/>
<path d="M10.7905 4.82758L11.0401 7.42043C11.2021 9.10243 9.94092 10.6001 8.25885 10.762C6.60843 10.921 5.11332 9.71456 4.9544 8.06416C4.79548 6.41373 6.0046 4.94696 7.65505 4.78805L10.4195 4.52185C10.6064 4.50386 10.7725 4.64074 10.7905 4.82758Z" stroke="black" stroke-width="1.5" stroke-linecap="round" stroke-linejoin="round"/>
<path d="M14 2.4V13.6C14 13.8209 13.8209 14 13.6 14H2.4C2.17909 14 2 13.8209 2 13.6V2.4C2 2.17909 2.17909 2 2.4 2H13.6C13.8209 2 14 2.17909 14 2.4Z" stroke="black" stroke-width="1.5" stroke-linecap="round" stroke-linejoin="round"/>
</svg>
