<svg width="16" height="16" viewBox="0 0 16 16" fill="none" xmlns="http://www.w3.org/2000/svg">
<g clip-path="url(#clip0_1_2879)">
<path d="M6 12C6 12 6.6 9.50587 8 8" stroke="black" stroke-width="1.5" stroke-linecap="round" stroke-linejoin="round"/>
<path d="M10.7905 4.82758L11.0401 7.42043C11.2021 9.10243 9.94092 10.6001 8.25885 10.762C6.60843 10.921 5.11332 9.71456 4.9544 8.06416C4.79548 6.41373 6.0046 4.94696 7.65505 4.78805L10.4195 4.52185C10.6064 4.50386 10.7725 4.64074 10.7905 4.82758Z" stroke="black" stroke-width="1.5" stroke-linecap="round" stroke-linejoin="round"/>
<path d="M7.99998 14.6667C11.6818 14.6667 14.6666 11.6819 14.6666 8.00004C14.6666 4.31814 11.6818 1.33337 7.99998 1.33337C4.31808 1.33337 1.33331 4.31814 1.33331 8.00004C1.33331 11.6819 4.31808 14.6667 7.99998 14.6667Z" stroke="black" stroke-width="1.5" stroke-linecap="round" stroke-linejoin="round"/>
</g>
<defs>
<clipPath id="clip0_1_2879">
<rect width="16" height="16" fill="white"/>
</clipPath>
</defs>
</svg>
