<svg width="16" height="16" viewBox="0 0 16 16" fill="none" xmlns="http://www.w3.org/2000/svg">
<path d="M2 10.6667V5.33333C2 3.49239 3.49239 2 5.33333 2H10.6667C12.5076 2 14 3.49239 14 5.33333V10.6667C14 12.5076 12.5076 14 10.6667 14H5.33333C3.49239 14 2 12.5076 2 10.6667Z" stroke="black" stroke-width="1.5"/>
<path d="M11 9.66663C11 9.66663 10 11 8 11C6 11 5 9.66663 5 9.66663" stroke="black" stroke-width="1.5" stroke-linecap="round" stroke-linejoin="round"/>
<path d="M5.66665 6.66667C5.48255 6.66667 5.33331 6.51743 5.33331 6.33333C5.33331 6.14924 5.48255 6 5.66665 6C5.85074 6 5.99998 6.14924 5.99998 6.33333C5.99998 6.51743 5.85074 6.66667 5.66665 6.66667Z" fill="black" stroke="black" stroke-width="1.5" stroke-linecap="round" stroke-linejoin="round"/>
<path d="M10.3333 6.66667C10.1493 6.66667 10 6.51743 10 6.33333C10 6.14924 10.1493 6 10.3333 6C10.5174 6 10.6667 6.14924 10.6667 6.33333C10.6667 6.51743 10.5174 6.66667 10.3333 6.66667Z" fill="black" stroke="black" stroke-width="1.5" stroke-linecap="round" stroke-linejoin="round"/>
</svg>
