<svg width="16" height="16" viewBox="0 0 16 16" fill="none" xmlns="http://www.w3.org/2000/svg">
<g clip-path="url(#clip0_1_2603)">
<path d="M7.99998 14.6667C11.6818 14.6667 14.6666 11.6819 14.6666 8.00004C14.6666 4.31814 11.6818 1.33337 7.99998 1.33337C4.31808 1.33337 1.33331 4.31814 1.33331 8.00004C1.33331 11.6819 4.31808 14.6667 7.99998 14.6667Z" stroke="black" stroke-width="1.5" stroke-linecap="round" stroke-linejoin="round"/>
<path d="M10.3333 10.6667C10.5174 10.6667 10.6667 10.5174 10.6667 10.3333C10.6667 10.1493 10.5174 10 10.3333 10C10.1493 10 10 10.1493 10 10.3333C10 10.5174 10.1493 10.6667 10.3333 10.6667Z" fill="black" stroke="black" stroke-width="1.5" stroke-linecap="round" stroke-linejoin="round"/>
<path d="M5.66665 6.00004C5.85074 6.00004 5.99998 5.8508 5.99998 5.66671C5.99998 5.48261 5.85074 5.33337 5.66665 5.33337C5.48255 5.33337 5.33331 5.48261 5.33331 5.66671C5.33331 5.8508 5.48255 6.00004 5.66665 6.00004Z" fill="black" stroke="black" stroke-width="1.5" stroke-linecap="round" stroke-linejoin="round"/>
<path d="M10.6666 5.33337L5.33331 10.6667" stroke="black" stroke-width="1.5" stroke-linecap="round" stroke-linejoin="round"/>
</g>
<defs>
<clipPath id="clip0_1_2603">
<rect width="16" height="16" fill="white"/>
</clipPath>
</defs>
</svg>
