<svg width="16" height="16" viewBox="0 0 16 16" fill="none" xmlns="http://www.w3.org/2000/svg">
<g clip-path="url(#clip0_1_2451)">
<path d="M11.6668 11.6666C13.3335 14 15.9659 12.2767 15.3335 9.99996C14.3837 6.58071 13.8669 4.677 13.5981 3.67191C13.4399 3.08087 12.9043 2.66663 12.2924 2.66663H3.70782C3.096 2.66663 2.56279 3.08317 2.41402 3.67663C1.85445 5.90895 1.35519 7.86769 0.762888 9.99996C0.130455 12.2767 2.76289 14 4.42955 11.6666" stroke="black" stroke-width="1.5" stroke-linecap="round" stroke-linejoin="round"/>
<path d="M10.6666 2.66663V3.99996C10.6666 4.73634 10.0697 5.33329 9.33325 5.33329H6.66659C5.93021 5.33329 5.33325 4.73634 5.33325 3.99996V2.66663" stroke="black" stroke-width="1.5" stroke-linecap="round" stroke-linejoin="round"/>
<path d="M5.33333 10.6667C6.06971 10.6667 6.66667 10.0697 6.66667 9.33333C6.66667 8.59693 6.06971 8 5.33333 8C4.59695 8 4 8.59693 4 9.33333C4 10.0697 4.59695 10.6667 5.33333 10.6667Z" stroke="black" stroke-width="1.5" stroke-linecap="round" stroke-linejoin="round"/>
<path d="M10.6666 10.6667C11.403 10.6667 11.9999 10.0697 11.9999 9.33333C11.9999 8.59693 11.403 8 10.6666 8C9.93019 8 9.33325 8.59693 9.33325 9.33333C9.33325 10.0697 9.93019 10.6667 10.6666 10.6667Z" stroke="black" stroke-width="1.5" stroke-linecap="round" stroke-linejoin="round"/>
</g>
<defs>
<clipPath id="clip0_1_2451">
<rect width="16" height="16" fill="white"/>
</clipPath>
</defs>
</svg>
