<svg width="16" height="16" viewBox="0 0 16 16" fill="none" xmlns="http://www.w3.org/2000/svg">
<path d="M7.99999 14.6667C11.6819 14.6667 14.6667 11.6819 14.6667 8.00004C14.6667 4.31814 11.6819 1.33337 7.99999 1.33337C4.3181 1.33337 1.33333 4.31814 1.33333 8.00004C1.33333 11.6819 4.3181 14.6667 7.99999 14.6667Z" stroke="black" stroke-width="1.5"/>
<path d="M11.0553 6.44441C10.5397 5.39794 9.36201 4.66663 7.99174 4.66663C6.25903 4.66663 4.83433 5.83601 4.66667 7.33329" stroke="black" stroke-width="1.5" stroke-linecap="round" stroke-linejoin="round"/>
<path d="M9.6626 6.48148H10.9334C11.1543 6.48148 11.3334 6.30239 11.3334 6.08148V5" stroke="black" stroke-width="1.5" stroke-linecap="round" stroke-linejoin="round"/>
<path d="M4.94472 9.11113C5.46036 10.4192 6.63799 11.3333 8.00827 11.3333C9.741 11.3333 11.1657 9.8716 11.3333 8" stroke="black" stroke-width="1.5" stroke-linecap="round" stroke-linejoin="round"/>
<path d="M6.3374 9.08142H5.06661C4.8457 9.08142 4.66661 9.26055 4.66661 9.48142V10.9333" stroke="black" stroke-width="1.5" stroke-linecap="round" stroke-linejoin="round"/>
</svg>
