<svg width="16" height="16" viewBox="0 0 16 16" fill="none" xmlns="http://www.w3.org/2000/svg">
<g clip-path="url(#clip0_1_1987)">
<path d="M1.33337 14.2667V1.73337C1.33337 1.51246 1.51246 1.33337 1.73337 1.33337H14.2667C14.4876 1.33337 14.6667 1.51246 14.6667 1.73337V6.26671C14.6667 6.48762 14.4876 6.66671 14.2667 6.66671H7.06671C6.84577 6.66671 6.66671 6.84577 6.66671 7.06671V14.2667C6.66671 14.4876 6.48762 14.6667 6.26671 14.6667H1.73337C1.51246 14.6667 1.33337 14.4876 1.33337 14.2667Z" stroke="black" stroke-width="1.5" stroke-linecap="round" stroke-linejoin="round"/>
<path d="M10.6666 6.66663V4.66663" stroke="black" stroke-width="1.5" stroke-linecap="round" stroke-linejoin="round"/>
<path d="M6.66663 6.66663V4.66663" stroke="black" stroke-width="1.5" stroke-linecap="round" stroke-linejoin="round"/>
<path d="M6.66663 10.6666H4.66663" stroke="black" stroke-width="1.5" stroke-linecap="round" stroke-linejoin="round"/>
<path d="M6.66663 6.66663H4.66663" stroke="black" stroke-width="1.5" stroke-linecap="round" stroke-linejoin="round"/>
</g>
<defs>
<clipPath id="clip0_1_1987">
<rect width="16" height="16" fill="white"/>
</clipPath>
</defs>
</svg>
