<svg width="16" height="16" viewBox="0 0 16 16" fill="none" xmlns="http://www.w3.org/2000/svg">
<path d="M7.73772 1.56129C7.88819 1.43058 8.11192 1.43058 8.26239 1.56129L9.56125 2.68969C9.64312 2.7608 9.75032 2.79563 9.85832 2.78622L11.5725 2.63679C11.771 2.61948 11.952 2.75099 11.9969 2.94518L12.3845 4.62155C12.4089 4.72719 12.4751 4.81838 12.5681 4.87425L14.0427 5.76088C14.2135 5.86359 14.2826 6.07637 14.2047 6.25986L13.533 7.84386C13.4907 7.94373 13.4907 8.05639 13.533 8.15626L14.2047 9.74026C14.2826 9.92373 14.2135 10.1365 14.0427 10.2393L12.5681 11.1259C12.4751 11.1817 12.4089 11.2729 12.3845 11.3786L11.9969 13.0549C11.952 13.2491 11.771 13.3807 11.5725 13.3633L9.85832 13.2139C9.75032 13.2045 9.64312 13.2393 9.56125 13.3104L8.26239 14.4389C8.11192 14.5695 7.88819 14.5695 7.73772 14.4389L6.43883 13.3104C6.35698 13.2393 6.24977 13.2045 6.14176 13.2139L4.42767 13.3633C4.22911 13.3807 4.04811 13.2491 4.00321 13.0549L3.61564 11.3786C3.59122 11.2729 3.52496 11.1817 3.43204 11.1259L1.95749 10.2393C1.78667 10.1365 1.71753 9.92373 1.79535 9.74026L2.46715 8.15626C2.50948 8.05639 2.50948 7.94373 2.46715 7.84386L1.79535 6.25986C1.71753 6.07637 1.78667 5.86359 1.95749 5.76088L3.43204 4.87425C3.52496 4.81838 3.59122 4.72719 3.61564 4.62155L4.00321 2.94518C4.04811 2.75099 4.22911 2.61948 4.42767 2.63679L6.14176 2.78622C6.24977 2.79563 6.35698 2.7608 6.43883 2.68969L7.73772 1.56129Z" stroke="black" stroke-width="1.5"/>
<path d="M6 8.66663L7.33333 9.99996L10.6667 6.66663" stroke="black" stroke-width="1.5" stroke-linecap="round" stroke-linejoin="round"/>
</svg>
