<svg width="16" height="16" viewBox="0 0 16 16" fill="none" xmlns="http://www.w3.org/2000/svg">
<path d="M3.33337 12.6667L4.88893 13.3334H11.1112L12.6667 12.6667" stroke="black" stroke-width="1.5" stroke-linecap="round" stroke-linejoin="round"/>
<path d="M5.33337 14.6734L5.34004 14.666" stroke="black" stroke-width="1.5" stroke-linecap="round" stroke-linejoin="round"/>
<path d="M10.6666 14.6734L10.6733 14.666" stroke="black" stroke-width="1.5" stroke-linecap="round" stroke-linejoin="round"/>
<path d="M4.66663 5.22233C4.66663 5.22233 5.88558 4.61286 6.66663 4.22233C7.99996 3.55567 9.51363 4.60074 9.51363 4.60074L6.64147 6.69087L9.33329 8.889V11.5557" stroke="black" stroke-width="1.5" stroke-linecap="round" stroke-linejoin="round"/>
<path d="M6.36587 8.89624L5.53883 9.44764H3.33337" stroke="black" stroke-width="1.5" stroke-linecap="round" stroke-linejoin="round"/>
<path d="M10.1102 6.13965H11.9247" stroke="black" stroke-width="1.5" stroke-linecap="round" stroke-linejoin="round"/>
<path d="M11.3333 3.99992C12.0697 3.99992 12.6667 3.40297 12.6667 2.66659C12.6667 1.93021 12.0697 1.33325 11.3333 1.33325C10.5969 1.33325 10 1.93021 10 2.66659C10 3.40297 10.5969 3.99992 11.3333 3.99992Z" stroke="black" stroke-width="1.5" stroke-linecap="round" stroke-linejoin="round"/>
</svg>
