<svg width="18" height="16" viewBox="0 0 18 16" fill="none" xmlns="http://www.w3.org/2000/svg">
<path d="M9 8V11.3333M9 11.3333V14.6667M9 11.3333L6 9.66667M9 11.3333L12 13M9 11.3333L12 9.66667M9 11.3333L6 13" stroke="black" stroke-width="1.5" stroke-linecap="round" stroke-linejoin="round"/>
<path d="M14.3334 11.7381C15.3292 11.348 16.3334 10.4592 16.3334 8.66659C16.3334 5.99992 14.1112 5.33325 13.0001 5.33325C13.0001 3.99992 13.0001 1.33325 9.00008 1.33325C5.00008 1.33325 5.00008 3.99992 5.00008 5.33325C3.88897 5.33325 1.66675 5.99992 1.66675 8.66659C1.66675 10.4592 2.67093 11.348 3.66675 11.7381" stroke="black" stroke-width="1.5" stroke-linecap="round" stroke-linejoin="round"/>
</svg>
