<svg width="16" height="16" viewBox="0 0 16 16" fill="none" xmlns="http://www.w3.org/2000/svg">
<g clip-path="url(#clip0_1_1122)">
<path d="M10.6666 1.33325H5.33325C3.12411 1.33325 1.33325 3.12411 1.33325 5.33325V10.6666C1.33325 12.8757 3.12411 14.6666 5.33325 14.6666H10.6666C12.8757 14.6666 14.6666 12.8757 14.6666 10.6666V5.33325C14.6666 3.12411 12.8757 1.33325 10.6666 1.33325Z" stroke="black" stroke-width="1.4992" stroke-miterlimit="1.5" stroke-linecap="round" stroke-linejoin="round" stroke-dasharray="2 2"/>
<path d="M10.6666 3.33325H5.33325C4.22869 3.33325 3.33325 4.22869 3.33325 5.33325V10.6666C3.33325 11.7712 4.22869 12.6666 5.33325 12.6666H10.6666C11.7712 12.6666 12.6666 11.7712 12.6666 10.6666V5.33325C12.6666 4.22869 11.7712 3.33325 10.6666 3.33325Z" stroke="black" stroke-width="1.4992" stroke-miterlimit="1.5" stroke-linecap="round" stroke-linejoin="round"/>
</g>
<defs>
<clipPath id="clip0_1_1122">
<rect width="16" height="16" fill="white"/>
</clipPath>
</defs>
</svg>
