<svg width="16" height="16" viewBox="0 0 16 16" fill="none" xmlns="http://www.w3.org/2000/svg">
<path d="M14 2.4V13.6C14 13.8209 13.8209 14 13.6 14H2.4C2.17909 14 2 13.8209 2 13.6V2.4C2 2.17909 2.17909 2 2.4 2H13.6C13.8209 2 14 2.17909 14 2.4Z" stroke="black" stroke-width="1.5" stroke-linecap="round" stroke-linejoin="round"/>
<path d="M9.66667 7C8.5 8.25493 7.33333 11.3333 7.33333 11.3333C7.33333 11.3333 5.66667 7 4 6" stroke="black" stroke-width="1.5" stroke-linecap="round" stroke-linejoin="round"/>
<path d="M12.0103 4.48678L12.2081 6.54009C12.3363 7.87214 11.3376 9.05814 10.0055 9.18641C8.69855 9.31227 7.51455 8.35687 7.38868 7.04987C7.26281 5.74288 8.22035 4.58132 9.52735 4.45547L11.7166 4.24467C11.8646 4.23042 11.9961 4.33882 12.0103 4.48678Z" stroke="black" stroke-width="1.5" stroke-linecap="round" stroke-linejoin="round"/>
</svg>
