<svg width="16" height="16" viewBox="0 0 16 16" fill="none" xmlns="http://www.w3.org/2000/svg">
<path d="M7.66661 7.3334L7.36141 1.84019C7.34708 1.58185 7.09495 1.4049 6.84708 1.47925L4.54261 2.1706C4.27795 2.25 4.17159 2.56745 4.33499 2.79027L7.66661 7.3334Z" stroke="black" stroke-width="1.5" stroke-linecap="round" stroke-linejoin="round"/>
<path d="M9.33325 8.33337L12.3794 7.77951C12.668 7.72704 12.8038 7.39217 12.6333 7.15351L11.6701 5.80496C11.5074 5.57717 11.1671 5.58266 11.0118 5.81557L9.33325 8.33337Z" stroke="black" stroke-width="1.5" stroke-linecap="round" stroke-linejoin="round"/>
<path d="M9.66675 10.6667L11.0439 13.4212C11.1769 13.6871 11.5433 13.7202 11.7217 13.4823L12.9451 11.8512C13.1235 11.6133 12.9892 11.2708 12.6966 11.2176L9.66675 10.6667Z" stroke="black" stroke-width="1.5" stroke-linecap="round" stroke-linejoin="round"/>
<path d="M7.66673 11L5.43932 13.2274C5.23361 13.4331 5.30932 13.7827 5.58171 13.8848L7.12626 14.464C7.3878 14.5621 7.66673 14.3687 7.66673 14.0895V11Z" stroke="black" stroke-width="1.5" stroke-linecap="round" stroke-linejoin="round"/>
<path d="M6.33333 9.33329L3.57889 7.95609C3.31293 7.82309 3 8.01649 3 8.31382V10.0758C3 10.3588 3.28581 10.5523 3.54855 10.4472L6.33333 9.33329Z" stroke="black" stroke-width="1.5" stroke-linecap="round" stroke-linejoin="round"/>
</svg>
