<svg width="16" height="16" viewBox="0 0 16 16" fill="none" xmlns="http://www.w3.org/2000/svg">
<g clip-path="url(#clip0_1_8005)">
<path d="M7.99974 9.99967C9.10434 9.99967 9.99974 9.10427 9.99974 7.99967C9.99974 6.89514 9.10434 5.99968 7.99974 5.99968C6.8952 5.99968 5.99976 6.89514 5.99976 7.99967C5.99976 9.10427 6.8952 9.99967 7.99974 9.99967Z" stroke="black" stroke-width="1.5" stroke-miterlimit="1.5" stroke-linecap="round" stroke-linejoin="round"/>
<path fill-rule="evenodd" clip-rule="evenodd" d="M7.99996 6C7.99996 6 6.67463 4.68334 6.66663 3.33334C6.66729 2.00467 6.63329 0.666005 7.99996 0.666672C9.29863 0.667339 9.33129 1.98401 9.33329 3.33334C9.33529 4.65667 7.99996 6 7.99996 6Z" stroke="black" stroke-width="1.5" stroke-miterlimit="1.5" stroke-linecap="round" stroke-linejoin="round"/>
<path fill-rule="evenodd" clip-rule="evenodd" d="M10 8.00001C10 8.00001 11.3167 6.67467 12.6667 6.66667C13.9953 6.66734 15.334 6.63334 15.3333 8.00001C15.3327 9.29867 14.016 9.33134 12.6667 9.33334C11.3433 9.33534 10 8.00001 10 8.00001Z" stroke="black" stroke-width="1.5" stroke-miterlimit="1.5" stroke-linecap="round" stroke-linejoin="round"/>
<path fill-rule="evenodd" clip-rule="evenodd" d="M5.99996 7.99999C5.99996 7.99999 4.68329 9.32533 3.33329 9.33333C2.00463 9.33266 0.66596 9.36666 0.666626 7.99999C0.667293 6.70133 1.98396 6.66866 3.33329 6.66666C4.65663 6.66466 5.99996 7.99999 5.99996 7.99999Z" stroke="black" stroke-width="1.5" stroke-miterlimit="1.5" stroke-linecap="round" stroke-linejoin="round"/>
<path fill-rule="evenodd" clip-rule="evenodd" d="M7.99996 10C7.99996 10 9.32529 11.3167 9.33329 12.6667C9.33263 13.9953 9.36663 15.334 7.99996 15.3333C6.70129 15.3327 6.66863 14.016 6.66663 12.6667C6.66463 11.3433 7.99996 10 7.99996 10Z" stroke="black" stroke-width="1.5" stroke-miterlimit="1.5" stroke-linecap="round" stroke-linejoin="round"/>
</g>
<defs>
<clipPath id="clip0_1_8005">
<rect width="16" height="16" fill="white"/>
</clipPath>
</defs>
</svg>
