<svg width="16" height="16" viewBox="0 0 16 16" fill="none" xmlns="http://www.w3.org/2000/svg">
<g clip-path="url(#clip0_1_7956)">
<path d="M10 1.46667C13.043 2.08437 15.3333 4.77471 15.3333 8C15.3333 11.2253 13.043 13.9156 10 14.5333" stroke="black" stroke-width="1.5" stroke-linecap="round" stroke-linejoin="round"/>
<path d="M10 6C10.7607 6.18909 11.3333 7.01267 11.3333 8C11.3333 8.98733 10.7607 9.81093 10 10" stroke="black" stroke-width="1.5" stroke-linecap="round" stroke-linejoin="round"/>
<path d="M0.666626 1.33333H7.33329V14.6667H0.666626" stroke="black" stroke-width="1.5" stroke-linecap="round" stroke-linejoin="round"/>
<path d="M2.66663 10.3333C2.66663 10.8856 2.21891 11.3333 1.66663 11.3333C1.11434 11.3333 0.666626 10.8856 0.666626 10.3333C0.666626 9.78107 1.11434 9.33334 1.66663 9.33334C2.21891 9.33334 2.66663 9.78107 2.66663 10.3333ZM2.66663 10.3333V5.06667C2.66663 4.84576 2.84571 4.66667 3.06663 4.66667H4.66663" stroke="black" stroke-width="1.5" stroke-linecap="round"/>
</g>
<defs>
<clipPath id="clip0_1_7956">
<rect width="16" height="16" fill="white"/>
</clipPath>
</defs>
</svg>
