<svg width="16" height="16" viewBox="0 0 16 16" fill="none" xmlns="http://www.w3.org/2000/svg">
<g clip-path="url(#clip0_1_7859)">
<path d="M7.99992 3.33333C8.36812 3.33333 8.66659 3.03485 8.66659 2.66667C8.66659 2.29848 8.36812 2 7.99992 2C7.63172 2 7.33325 2.29848 7.33325 2.66667C7.33325 3.03485 7.63172 3.33333 7.99992 3.33333Z" fill="black" stroke="black" stroke-width="1.5" stroke-linecap="round" stroke-linejoin="round"/>
<path d="M10.6667 0.666672C10.6667 0.666672 11.6667 1.33334 11.6667 2.66667C11.6667 4.00001 10.6667 4.66667 10.6667 4.66667" stroke="black" stroke-width="1.5" stroke-linecap="round" stroke-linejoin="round"/>
<path d="M5.33325 0.666672C5.33325 0.666672 4.33325 1.33334 4.33325 2.66667C4.33325 4.00001 5.33325 4.66667 5.33325 4.66667" stroke="black" stroke-width="1.5" stroke-linecap="round" stroke-linejoin="round"/>
<path d="M4.66675 15.3333L5.40749 12.6667M5.40749 12.6667L6.33341 9.33333M5.40749 12.6667H10.5927M11.3334 15.3333L10.5927 12.6667M10.5927 12.6667L9.66675 9.33333M9.66675 9.33333L8.00008 3.33333L6.33341 9.33333M9.66675 9.33333H6.33341" stroke="black" stroke-width="1.5" stroke-linecap="round" stroke-linejoin="round"/>
</g>
<defs>
<clipPath id="clip0_1_7859">
<rect width="16" height="16" fill="white"/>
</clipPath>
</defs>
</svg>
