<svg width="16" height="16" viewBox="0 0 16 16" fill="none" xmlns="http://www.w3.org/2000/svg">
<g clip-path="url(#clip0_1_7485)">
<path d="M15.3334 6.66666V9.33332" stroke="black" stroke-width="1.5" stroke-linecap="round" stroke-linejoin="round"/>
<path d="M0.666626 10.6667V5.33333C0.666626 4.59695 1.26358 4 1.99996 4H12C12.7364 4 13.3333 4.59695 13.3333 5.33333V10.6667C13.3333 11.4031 12.7364 12 12 12H1.99996C1.26358 12 0.666626 11.4031 0.666626 10.6667Z" stroke="black" stroke-width="1.5"/>
<path d="M2.66663 9.6V6.4C2.66663 6.17909 2.84571 6 3.06663 6H8.93329C9.15423 6 9.33329 6.17909 9.33329 6.4V9.6C9.33329 9.82093 9.15423 10 8.93329 10H3.06663C2.84571 10 2.66663 9.82093 2.66663 9.6Z" stroke="black" stroke-width="1.5"/>
</g>
<defs>
<clipPath id="clip0_1_7485">
<rect width="16" height="16" fill="white"/>
</clipPath>
</defs>
</svg>
