<svg width="16" height="16" viewBox="0 0 16 16" fill="none" xmlns="http://www.w3.org/2000/svg">
<g clip-path="url(#clip0_1_7004)">
<path d="M6.63495 6.41514L7.67393 4.2121C7.80733 3.9293 8.19267 3.9293 8.32607 4.2121L9.36507 6.41514L11.6886 6.7706C11.9867 6.8162 12.1055 7.19973 11.8897 7.41973L10.2087 9.1334L10.6054 11.5543C10.6563 11.8652 10.3445 12.1023 10.0778 11.9554L8 10.8118L5.92219 11.9554C5.65544 12.1023 5.34364 11.8652 5.39458 11.5543L5.7913 9.1334L4.1103 7.41973C3.89447 7.19973 4.01329 6.8162 4.31141 6.7706L6.63495 6.41514Z" stroke="black" stroke-width="1.5" stroke-linecap="round" stroke-linejoin="round"/>
<path d="M14.6667 8H15.3334" stroke="black" stroke-width="1.5" stroke-linecap="round" stroke-linejoin="round"/>
<path d="M8 1.33332V0.666656" stroke="black" stroke-width="1.5" stroke-linecap="round" stroke-linejoin="round"/>
<path d="M8 15.3333V14.6667" stroke="black" stroke-width="1.5" stroke-linecap="round" stroke-linejoin="round"/>
<path d="M13.3334 13.3333L12.6667 12.6667" stroke="black" stroke-width="1.5" stroke-linecap="round" stroke-linejoin="round"/>
<path d="M13.3334 2.66666L12.6667 3.33332" stroke="black" stroke-width="1.5" stroke-linecap="round" stroke-linejoin="round"/>
<path d="M2.66675 13.3333L3.33341 12.6667" stroke="black" stroke-width="1.5" stroke-linecap="round" stroke-linejoin="round"/>
<path d="M2.66675 2.66666L3.33341 3.33332" stroke="black" stroke-width="1.5" stroke-linecap="round" stroke-linejoin="round"/>
<path d="M0.666748 8H1.33341" stroke="black" stroke-width="1.5" stroke-linecap="round" stroke-linejoin="round"/>
</g>
<defs>
<clipPath id="clip0_1_7004">
<rect width="16" height="16" fill="white"/>
</clipPath>
</defs>
</svg>
