<svg width="16" height="16" viewBox="0 0 16 16" fill="none" xmlns="http://www.w3.org/2000/svg">
<g clip-path="url(#clip0_1_6593)">
<path d="M0.666626 10V6C0.666626 3.79086 2.45749 2 4.66663 2H11.3333C13.5424 2 15.3333 3.79086 15.3333 6V10C15.3333 12.2091 13.5424 14 11.3333 14H4.66663C2.45749 14 0.666626 12.2091 0.666626 10Z" stroke="black" stroke-width="1.5"/>
<path d="M6.99996 6.66667L6.88556 6.55229C6.53195 6.19866 6.05234 6 5.55225 6C4.51085 6 3.66663 6.8442 3.66663 7.8856V8.1144C3.66663 9.1558 4.51085 10 5.55225 10C6.05234 10 6.53195 9.80133 6.88556 9.44773L6.99996 9.33333" stroke="black" stroke-width="1.5" stroke-linecap="round"/>
<path d="M12.3333 6.66667L12.2189 6.55229C11.8653 6.19866 11.3857 6 10.8856 6C9.8442 6 9 6.8442 9 7.8856V8.1144C9 9.1558 9.8442 10 10.8856 10C11.3857 10 11.8653 9.80133 12.2189 9.44773L12.3333 9.33333" stroke="black" stroke-width="1.5" stroke-linecap="round"/>
</g>
<defs>
<clipPath id="clip0_1_6593">
<rect width="16" height="16" fill="white"/>
</clipPath>
</defs>
</svg>
