<svg width="16" height="16" viewBox="0 0 16 16" fill="none" xmlns="http://www.w3.org/2000/svg">
<g clip-path="url(#clip0_1_6557)">
<path d="M3.99996 8.66669C2.88885 8.66669 0.666626 9.33335 0.666626 12C0.666626 14.6667 2.88885 15.3334 3.99996 15.3334H12C13.1111 15.3334 15.3333 14.6667 15.3333 12C15.3333 9.33335 13.1111 8.66669 12 8.66669" stroke="black" stroke-width="1.5" stroke-linecap="round" stroke-linejoin="round"/>
<path d="M8 8C9.1046 8 10 7.1046 10 6C10 4.89543 9.1046 4 8 4C6.8954 4 6 4.89543 6 6C6 7.1046 6.8954 8 8 8Z" stroke="black" stroke-width="1.5" stroke-linecap="round" stroke-linejoin="round"/>
<path d="M12.6666 6H13.3333" stroke="black" stroke-width="1.5" stroke-linecap="round" stroke-linejoin="round"/>
<path d="M8 1.33335V0.666687" stroke="black" stroke-width="1.5" stroke-linecap="round" stroke-linejoin="round"/>
<path d="M12.3333 2.33331L11.6666 2.99998" stroke="black" stroke-width="1.5" stroke-linecap="round" stroke-linejoin="round"/>
<path d="M3.66663 2.33331L4.33329 2.99998" stroke="black" stroke-width="1.5" stroke-linecap="round" stroke-linejoin="round"/>
<path d="M2.66663 6H3.33329" stroke="black" stroke-width="1.5" stroke-linecap="round" stroke-linejoin="round"/>
</g>
<defs>
<clipPath id="clip0_1_6557">
<rect width="16" height="16" fill="white"/>
</clipPath>
</defs>
</svg>
