<svg width="16" height="16" viewBox="0 0 16 16" fill="none" xmlns="http://www.w3.org/2000/svg">
<g clip-path="url(#clip0_1_6439)">
<path d="M4.66675 12V11.3333C4.66675 9.4924 6.15913 8 8.00008 8C9.84101 8 11.3334 9.4924 11.3334 11.3333V12" stroke="black" stroke-width="1.5" stroke-linecap="round" stroke-linejoin="round"/>
<path d="M0.666748 12V11.3333C0.666748 10.2287 1.56218 9.33331 2.66675 9.33331" stroke="black" stroke-width="1.5" stroke-linecap="round" stroke-linejoin="round"/>
<path d="M15.3333 12V11.3333C15.3333 10.2287 14.4379 9.33331 13.3333 9.33331" stroke="black" stroke-width="1.5" stroke-linecap="round" stroke-linejoin="round"/>
<path d="M8 8C9.1046 8 10 7.1046 10 6C10 4.89543 9.1046 4 8 4C6.8954 4 6 4.89543 6 6C6 7.1046 6.8954 8 8 8Z" stroke="black" stroke-width="1.5" stroke-linecap="round" stroke-linejoin="round"/>
<path d="M2.66659 9.33335C3.40297 9.33335 3.99992 8.73642 3.99992 8.00002C3.99992 7.26362 3.40297 6.66669 2.66659 6.66669C1.93021 6.66669 1.33325 7.26362 1.33325 8.00002C1.33325 8.73642 1.93021 9.33335 2.66659 9.33335Z" stroke="black" stroke-width="1.5" stroke-linecap="round" stroke-linejoin="round"/>
<path d="M13.3333 9.33335C14.0697 9.33335 14.6667 8.73642 14.6667 8.00002C14.6667 7.26362 14.0697 6.66669 13.3333 6.66669C12.5969 6.66669 12 7.26362 12 8.00002C12 8.73642 12.5969 9.33335 13.3333 9.33335Z" stroke="black" stroke-width="1.5" stroke-linecap="round" stroke-linejoin="round"/>
</g>
<defs>
<clipPath id="clip0_1_6439">
<rect width="16" height="16" fill="white"/>
</clipPath>
</defs>
</svg>
