<svg width="18" height="16" viewBox="0 0 18 16" fill="none" xmlns="http://www.w3.org/2000/svg">
<path d="M12.3333 8H12.6667H13" stroke="black" stroke-width="1.5" stroke-linecap="round" stroke-linejoin="round"/>
<path d="M15.6667 8H16H16.3333" stroke="black" stroke-width="1.5" stroke-linecap="round" stroke-linejoin="round"/>
<path d="M5.15741 4.66665C5.47411 4.31281 5.66667 3.84555 5.66667 3.33331C5.66667 2.22875 4.77124 1.33331 3.66667 1.33331C2.56211 1.33331 1.66667 2.22875 1.66667 3.33331C1.66667 4.43788 2.56211 5.33331 3.66667 5.33331C4.25901 5.33331 4.7912 5.07581 5.15741 4.66665ZM5.15741 4.66665L13.6667 12" stroke="black" stroke-width="1.5" stroke-linecap="round" stroke-linejoin="round"/>
<path d="M5.15741 11.3333C5.47411 11.6872 5.66667 12.1544 5.66667 12.6667C5.66667 13.7713 4.77124 14.6667 3.66667 14.6667C2.56211 14.6667 1.66667 13.7713 1.66667 12.6667C1.66667 11.5621 2.56211 10.6667 3.66667 10.6667C4.25901 10.6667 4.7912 10.9242 5.15741 11.3333ZM5.15741 11.3333L13.6667 4" stroke="black" stroke-width="1.5" stroke-linecap="round" stroke-linejoin="round"/>
</svg>
