<svg width="16" height="16" viewBox="0 0 16 16" fill="none" xmlns="http://www.w3.org/2000/svg">
<g clip-path="url(#clip0_1_6103)">
<path d="M11.3333 8H11.6667H12" stroke="black" stroke-width="1.5" stroke-linecap="round" stroke-linejoin="round"/>
<path d="M14.6667 8H15H15.3333" stroke="black" stroke-width="1.5" stroke-linecap="round" stroke-linejoin="round"/>
<path d="M4.15741 4.66665C4.47411 4.31281 4.66667 3.84555 4.66667 3.33331C4.66667 2.22875 3.77124 1.33331 2.66667 1.33331C1.56211 1.33331 0.666672 2.22875 0.666672 3.33331C0.666672 4.43788 1.56211 5.33331 2.66667 5.33331C3.25901 5.33331 3.7912 5.07581 4.15741 4.66665ZM4.15741 4.66665L12.6667 12" stroke="black" stroke-width="1.5" stroke-linecap="round" stroke-linejoin="round"/>
<path d="M4.15741 11.3333C4.47411 11.6872 4.66667 12.1544 4.66667 12.6667C4.66667 13.7713 3.77124 14.6667 2.66667 14.6667C1.56211 14.6667 0.666672 13.7713 0.666672 12.6667C0.666672 11.5621 1.56211 10.6667 2.66667 10.6667C3.25901 10.6667 3.7912 10.9242 4.15741 11.3333ZM4.15741 11.3333L12.6667 4" stroke="black" stroke-width="1.5" stroke-linecap="round" stroke-linejoin="round"/>
</g>
<defs>
<clipPath id="clip0_1_6103">
<rect width="16" height="16" fill="white"/>
</clipPath>
</defs>
</svg>
