<svg width="16" height="16" viewBox="0 0 16 16" fill="none" xmlns="http://www.w3.org/2000/svg">
<path d="M2 13.6V2.4C2 2.17909 2.17909 2 2.4 2H13.6C13.8209 2 14 2.17909 14 2.4V13.6C14 13.8209 13.8209 14 13.6 14H2.4C2.17909 14 2 13.8209 2 13.6Z" stroke="black" stroke-width="1.5"/>
<path d="M5.00008 5.33335C4.81599 5.33335 4.66675 5.18411 4.66675 5.00002C4.66675 4.81593 4.81599 4.66669 5.00008 4.66669C5.18417 4.66669 5.33341 4.81593 5.33341 5.00002C5.33341 5.18411 5.18417 5.33335 5.00008 5.33335Z" fill="black" stroke="black" stroke-width="1.5" stroke-linecap="round" stroke-linejoin="round"/>
<path d="M11.0001 5.33335C10.816 5.33335 10.6667 5.18411 10.6667 5.00002C10.6667 4.81593 10.816 4.66669 11.0001 4.66669C11.1841 4.66669 11.3334 4.81593 11.3334 5.00002C11.3334 5.18411 11.1841 5.33335 11.0001 5.33335Z" fill="black" stroke="black" stroke-width="1.5" stroke-linecap="round" stroke-linejoin="round"/>
<path d="M5.00008 8.33335C4.81599 8.33335 4.66675 8.18409 4.66675 8.00002C4.66675 7.81595 4.81599 7.66669 5.00008 7.66669C5.18417 7.66669 5.33341 7.81595 5.33341 8.00002C5.33341 8.18409 5.18417 8.33335 5.00008 8.33335Z" fill="black" stroke="black" stroke-width="1.5" stroke-linecap="round" stroke-linejoin="round"/>
<path d="M11.0001 8.33335C10.816 8.33335 10.6667 8.18409 10.6667 8.00002C10.6667 7.81595 10.816 7.66669 11.0001 7.66669C11.1841 7.66669 11.3334 7.81595 11.3334 8.00002C11.3334 8.18409 11.1841 8.33335 11.0001 8.33335Z" fill="black" stroke="black" stroke-width="1.5" stroke-linecap="round" stroke-linejoin="round"/>
<path d="M5.00008 11.3334C4.81599 11.3334 4.66675 11.1841 4.66675 11C4.66675 10.816 4.81599 10.6667 5.00008 10.6667C5.18417 10.6667 5.33341 10.816 5.33341 11C5.33341 11.1841 5.18417 11.3334 5.00008 11.3334Z" fill="black" stroke="black" stroke-width="1.5" stroke-linecap="round" stroke-linejoin="round"/>
<path d="M11.0001 11.3334C10.816 11.3334 10.6667 11.1841 10.6667 11C10.6667 10.816 10.816 10.6667 11.0001 10.6667C11.1841 10.6667 11.3334 10.816 11.3334 11C11.3334 11.1841 11.1841 11.3334 11.0001 11.3334Z" fill="black" stroke="black" stroke-width="1.5" stroke-linecap="round" stroke-linejoin="round"/>
</svg>
