<svg width="16" height="16" viewBox="0 0 16 16" fill="none" xmlns="http://www.w3.org/2000/svg">
<path d="M5 14H3.33333C2.59695 14 2 13.4031 2 12.6667V3.33333C2 2.59695 2.59695 2 3.33333 2H12.6666C13.403 2 13.9999 2.59695 13.9999 3.33333L14 12.6667C14 13.4031 13.4031 14 12.6667 14H11" stroke="black" stroke-width="1.5" stroke-linecap="round" stroke-linejoin="round"/>
<path d="M14 4.66669H2.00003" stroke="black" stroke-width="1.5" stroke-linecap="round" stroke-linejoin="round"/>
<path d="M7.99999 10.6667V14M7.99999 14H6.66666M7.99999 14H9.33332" stroke="black" stroke-width="1.5" stroke-linecap="round" stroke-linejoin="round"/>
<path d="M8 10.6667C9.1046 10.6667 10 9.67175 10 8.44449V6.66669H6V8.44449C6 9.67175 6.8954 10.6667 8 10.6667Z" stroke="black" stroke-width="1.5" stroke-linecap="round" stroke-linejoin="round"/>
<path d="M12 3.33999L12.0067 3.33258" stroke="black" stroke-width="1.5" stroke-linecap="round" stroke-linejoin="round"/>
<path d="M10 3.33999L10.0067 3.33258" stroke="black" stroke-width="1.5" stroke-linecap="round" stroke-linejoin="round"/>
</svg>
