<svg width="16" height="16" viewBox="0 0 16 16" fill="none" xmlns="http://www.w3.org/2000/svg">
<g clip-path="url(#clip0_1_5409)">
<path d="M3.33329 2.00002C3.70148 2.00002 3.99996 1.70154 3.99996 1.33335C3.99996 0.965167 3.70148 0.666687 3.33329 0.666687C2.96511 0.666687 2.66663 0.965167 2.66663 1.33335C2.66663 1.70154 2.96511 2.00002 3.33329 2.00002Z" fill="black" stroke="black" stroke-width="1.5" stroke-linecap="round" stroke-linejoin="round"/>
<path d="M3.33337 14.6667H8.66671" stroke="black" stroke-width="1.5" stroke-linecap="round" stroke-linejoin="round"/>
<path d="M3.33337 14.6666V1.33331" stroke="black" stroke-width="1.5" stroke-linecap="round" stroke-linejoin="round"/>
<path d="M3.33329 15.3333C3.70148 15.3333 3.99996 15.0349 3.99996 14.6667C3.99996 14.2985 3.70148 14 3.33329 14C2.96511 14 2.66663 14.2985 2.66663 14.6667C2.66663 15.0349 2.96511 15.3333 3.33329 15.3333Z" fill="black" stroke="black" stroke-width="1.5" stroke-linecap="round" stroke-linejoin="round"/>
<path d="M5.33337 2.79551C6.24644 1.88058 7.40544 1.33331 8.66671 1.33331C11.6122 1.33331 14 4.31808 14 7.99998C14 10.1808 13.1624 12.117 11.8672 13.3333" stroke="black" stroke-width="1.5" stroke-linecap="round" stroke-linejoin="round" stroke-dasharray="3 3"/>
<path d="M5.46607 13.3333C5.17506 13.06 4.90714 12.7503 4.66663 12.4097" stroke="black" stroke-width="1.5" stroke-linecap="round" stroke-linejoin="round"/>
<path d="M8.66667 15.3333C9.03487 15.3333 9.33333 15.0349 9.33333 14.6667C9.33333 14.2985 9.03487 14 8.66667 14C8.29847 14 8 14.2985 8 14.6667C8 15.0349 8.29847 15.3333 8.66667 15.3333Z" fill="black" stroke="black" stroke-width="1.5" stroke-linecap="round" stroke-linejoin="round"/>
</g>
<defs>
<clipPath id="clip0_1_5409">
<rect width="16" height="16" fill="white"/>
</clipPath>
</defs>
</svg>
