<svg width="16" height="16" viewBox="0 0 16 16" fill="none" xmlns="http://www.w3.org/2000/svg">
<g clip-path="url(#clip0_1_5414)">
<path d="M7.99998 2.00002C8.36818 2.00002 8.66665 1.70154 8.66665 1.33335C8.66665 0.965167 8.36818 0.666687 7.99998 0.666687C7.63178 0.666687 7.33331 0.965167 7.33331 1.33335C7.33331 1.70154 7.63178 2.00002 7.99998 2.00002Z" fill="black" stroke="black" stroke-width="1.5" stroke-linecap="round" stroke-linejoin="round"/>
<path d="M8.00002 14.6666C10.9456 14.6666 13.3334 11.6818 13.3334 7.99998C13.3334 4.31808 10.9456 1.33331 8.00002 1.33331C5.0545 1.33331 2.66669 4.31808 2.66669 7.99998C2.66669 11.6818 5.0545 14.6666 8.00002 14.6666Z" stroke="black" stroke-width="1.5" stroke-linecap="round" stroke-linejoin="round"/>
<path d="M7.99998 15.3333C8.36818 15.3333 8.66665 15.0349 8.66665 14.6667C8.66665 14.2985 8.36818 14 7.99998 14C7.63178 14 7.33331 14.2985 7.33331 14.6667C7.33331 15.0349 7.63178 15.3333 7.99998 15.3333Z" fill="black" stroke="black" stroke-width="1.5" stroke-linecap="round" stroke-linejoin="round"/>
</g>
<defs>
<clipPath id="clip0_1_5414">
<rect width="16" height="16" fill="white"/>
</clipPath>
</defs>
</svg>
