<svg width="16" height="16" viewBox="0 0 16 16" fill="none" xmlns="http://www.w3.org/2000/svg">
<path d="M10.3333 5.99998C10.5174 5.99998 10.6667 5.85074 10.6667 5.66665C10.6667 5.48255 10.5174 5.33331 10.3333 5.33331C10.1493 5.33331 10 5.48255 10 5.66665C10 5.85074 10.1493 5.99998 10.3333 5.99998Z" fill="black" stroke="black" stroke-width="1.5" stroke-linecap="round" stroke-linejoin="round"/>
<path d="M14.3615 9.99998C14.5598 9.36865 14.6667 8.69678 14.6667 7.99998C14.6667 4.31808 11.6819 1.33331 8.00004 1.33331C4.31814 1.33331 1.33337 4.31808 1.33337 7.99998C1.33337 11.6818 4.31814 14.6666 8.00004 14.6666C10.9851 14.6666 13.512 12.7047 14.3615 9.99998ZM14.3615 9.99998H11.3334" stroke="black" stroke-width="1.5" stroke-linecap="round" stroke-linejoin="round"/>
</svg>
