<svg width="16" height="16" viewBox="0 0 16 16" fill="none" xmlns="http://www.w3.org/2000/svg">
<g clip-path="url(#clip0_1_5400)">
<path d="M8.00004 14.6666C4.31814 14.6666 1.33337 11.6818 1.33337 7.99998C1.33337 4.31808 4.31814 1.33331 8.00004 1.33331C11.6819 1.33331 14.6667 4.31808 14.6667 7.99998C14.6667 11.6818 11.6819 14.6666 8.00004 14.6666Z" stroke="black" stroke-width="1.5" stroke-linecap="round" stroke-linejoin="round"/>
<path d="M11 9.66669C11 9.66669 10 11 8 11C6 11 5 9.66669 5 9.66669" stroke="black" stroke-width="1.5" stroke-linecap="round" stroke-linejoin="round"/>
<path d="M10.3333 5.99998C10.1493 5.99998 10 5.85074 10 5.66665C10 5.48255 10.1493 5.33331 10.3333 5.33331C10.5174 5.33331 10.6667 5.48255 10.6667 5.66665C10.6667 5.85074 10.5174 5.99998 10.3333 5.99998Z" fill="black" stroke="black" stroke-width="1.5" stroke-linecap="round" stroke-linejoin="round"/>
<path d="M5.66671 5.99998C5.48261 5.99998 5.33337 5.85074 5.33337 5.66665C5.33337 5.48255 5.48261 5.33331 5.66671 5.33331C5.8508 5.33331 6.00004 5.48255 6.00004 5.66665C6.00004 5.85074 5.8508 5.99998 5.66671 5.99998Z" fill="black" stroke="black" stroke-width="1.5" stroke-linecap="round" stroke-linejoin="round"/>
</g>
<defs>
<clipPath id="clip0_1_5400">
<rect width="16" height="16" fill="white"/>
</clipPath>
</defs>
</svg>
