<svg width="16" height="16" viewBox="0 0 16 16" fill="none" xmlns="http://www.w3.org/2000/svg">
<path d="M2 10V6C2 3.79086 3.79086 2 6 2H10C12.2091 2 14 3.79086 14 6V10C14 12.2091 12.2091 14 10 14H6C3.79086 14 2 12.2091 2 10Z" stroke="black" stroke-width="1.5" stroke-linecap="round" stroke-linejoin="round"/>
<path d="M10 2C10 2 7 2 7 8C8 8 8 8 8.66667 8C8.66667 14 10 14 10 14" stroke="black" stroke-width="1.5" stroke-linecap="round" stroke-linejoin="round"/>
<path d="M11 9.66669C11 9.66669 10 11 8 11C6 11 5 9.66669 5 9.66669" stroke="black" stroke-width="1.5" stroke-linecap="round" stroke-linejoin="round"/>
<path d="M4.66675 6V7.33333" stroke="black" stroke-width="1.5" stroke-linecap="round" stroke-linejoin="round"/>
<path d="M11.3333 6V7.33333" stroke="black" stroke-width="1.5" stroke-linecap="round" stroke-linejoin="round"/>
</svg>
