<svg width="17" height="16" viewBox="0 0 17 16" fill="none" xmlns="http://www.w3.org/2000/svg">
<path d="M3 5V3.33333C3 2.59695 3.59695 2 4.33333 2H11.7811C12.1347 2 12.4738 2.14047 12.7239 2.39053L14.6095 4.27614C14.8595 4.52619 15 4.86533 15 5.21895V12.6667C15 13.4031 14.4031 14 13.6667 14H4.33333C3.59695 14 3 13.4031 3 12.6667V11" stroke="black" stroke-width="1.5" stroke-linecap="round" stroke-linejoin="round"/>
<path d="M5 14V11.3333" stroke="black" stroke-width="1.5" stroke-linecap="round" stroke-linejoin="round"/>
<path d="M13 14V9.06669C13 8.84575 12.8209 8.66669 12.6 8.66669H11" stroke="black" stroke-width="1.5" stroke-linecap="round" stroke-linejoin="round"/>
<path d="M11.6667 2V5.6C11.6667 5.82091 11.4876 6 11.2667 6H10" stroke="black" stroke-width="1.5" stroke-linecap="round" stroke-linejoin="round"/>
<path d="M6.33337 2V4" stroke="black" stroke-width="1.5" stroke-linecap="round" stroke-linejoin="round"/>
<path d="M1.66663 8H8.99996M8.99996 8L6.99996 6M8.99996 8L6.99996 10" stroke="black" stroke-width="1.5" stroke-linecap="round" stroke-linejoin="round"/>
</svg>
