<svg width="16" height="16" viewBox="0 0 16 16" fill="none" xmlns="http://www.w3.org/2000/svg">
<g clip-path="url(#clip0_1_4867)">
<path d="M7.99974 9.99969C9.10434 9.99969 9.99974 9.10429 9.99974 7.99969C9.99974 6.89516 9.10434 5.99969 7.99974 5.99969C6.8952 5.99969 5.99976 6.89516 5.99976 7.99969C5.99976 9.10429 6.8952 9.99969 7.99974 9.99969Z" stroke="black" stroke-width="1.5" stroke-miterlimit="1.5" stroke-linecap="round" stroke-linejoin="round"/>
<path d="M8.66663 6.00002C8.66663 6.00002 9.33329 4.66669 9.33329 3.33335C9.33329 2.00002 7.99996 0.666687 7.99996 0.666687C7.99996 0.666687 6.66663 2.00002 6.66663 3.33335C6.66663 4.66669 7.33329 6.00002 7.33329 6.00002" stroke="black" stroke-width="1.5" stroke-miterlimit="1.5" stroke-linecap="round" stroke-linejoin="round"/>
<path d="M5.99996 7.33335C5.99996 7.33335 4.66663 6.66669 3.33329 6.66669C1.99996 6.66669 0.666626 8.00002 0.666626 8.00002C0.666626 8.00002 1.99996 9.33335 3.33329 9.33335C4.66663 9.33335 5.99996 8.66669 5.99996 8.66669" stroke="black" stroke-width="1.5" stroke-miterlimit="1.5" stroke-linecap="round" stroke-linejoin="round"/>
<path d="M8.66663 10C8.66663 10 9.33329 11.3333 9.33329 12.6667C9.33329 14 7.99996 15.3333 7.99996 15.3333C7.99996 15.3333 6.66663 14 6.66663 12.6667C6.66663 11.3333 7.33329 10 7.33329 10" stroke="black" stroke-width="1.5" stroke-miterlimit="1.5" stroke-linecap="round" stroke-linejoin="round"/>
<path d="M10 7.33335C10 7.33335 11.3333 6.66669 12.6667 6.66669C14 6.66669 15.3333 8.00002 15.3333 8.00002C15.3333 8.00002 14 9.33335 12.6667 9.33335C11.3333 9.33335 10 8.66669 10 8.66669" stroke="black" stroke-width="1.5" stroke-miterlimit="1.5" stroke-linecap="round" stroke-linejoin="round"/>
<path d="M7.05722 6.11452C7.05722 6.11452 6.58581 4.70031 5.643 3.7575C4.7002 2.8147 2.81458 2.8147 2.81458 2.8147C2.81458 2.8147 2.81458 4.70031 3.75738 5.64312C4.7002 6.58593 6.11441 7.05735 6.11441 7.05735" stroke="black" stroke-width="1.5" stroke-miterlimit="1.5" stroke-linecap="round" stroke-linejoin="round"/>
<path d="M6.11429 8.94281C6.11429 8.94281 4.70007 9.41421 3.75727 10.357C2.81445 11.2998 2.81445 13.1855 2.81445 13.1855C2.81445 13.1855 4.70007 13.1855 5.64288 12.2427C6.58569 11.2998 7.05707 9.88561 7.05707 9.88561" stroke="black" stroke-width="1.5" stroke-miterlimit="1.5" stroke-linecap="round" stroke-linejoin="round"/>
<path d="M9.88567 8.94281C9.88567 8.94281 11.2999 9.41421 12.2427 10.357C13.1855 11.2998 13.1855 13.1855 13.1855 13.1855C13.1855 13.1855 11.2999 13.1855 10.3571 12.2427C9.41427 11.2998 8.94287 9.88561 8.94287 9.88561" stroke="black" stroke-width="1.5" stroke-miterlimit="1.5" stroke-linecap="round" stroke-linejoin="round"/>
<path d="M8.94275 6.11452C8.94275 6.11452 9.41415 4.70031 10.3569 3.7575C11.2997 2.8147 13.1854 2.8147 13.1854 2.8147C13.1854 2.8147 13.1854 4.70031 12.2426 5.64312C11.2997 6.58593 9.88555 7.05735 9.88555 7.05735" stroke="black" stroke-width="1.5" stroke-miterlimit="1.5" stroke-linecap="round" stroke-linejoin="round"/>
</g>
<defs>
<clipPath id="clip0_1_4867">
<rect width="16" height="16" fill="white"/>
</clipPath>
</defs>
</svg>
