<svg width="24" height="24" viewBox="0 0 24 24" fill="none" xmlns="http://www.w3.org/2000/svg">
<path d="M11.8832 4.76892L10.9888 5.21613L10.9888 5.21613L11.8832 4.76892ZM10.4149 3.10931L10.7409 2.16396L10.7409 2.16396L10.4149 3.10931ZM11.1621 3.57116L11.8619 2.85675L11.8619 2.85674L11.1621 3.57116ZM3.0908 3.21799L2.63681 2.32698L2.63681 2.32698L3.0908 3.21799ZM2.21677 4.09202L1.32576 3.63803L1.32576 3.63803L2.21677 4.09202ZM3.63681 20.673L3.18282 21.564L3.18282 21.564L3.63681 20.673ZM2.32576 19.362L1.43475 19.816L1.43475 19.816L2.32576 19.362ZM20.3607 7.32698L20.8147 6.43597L20.8147 6.43597L20.3607 7.32698ZM20.9988 11C20.9988 11.5523 21.4465 12 21.9988 12C22.5511 12 22.9988 11.5523 22.9988 11H21.9988H20.9988ZM21.6718 8.63803L22.5628 8.18404L22.5628 8.18404L21.6718 8.63803ZM12.4988 22C13.0511 22 13.4988 21.5523 13.4988 21C13.4988 20.4477 13.0511 20 12.4988 20V21V22ZM15.7934 17.5633C16.2981 17.7876 16.8891 17.5603 17.1134 17.0556C17.3377 16.551 17.1104 15.96 16.6057 15.7357L16.1996 16.6495L15.7934 17.5633ZM15.7057 15.3357C15.201 15.1114 14.6101 15.3387 14.3857 15.8434C14.1614 16.3481 14.3887 16.939 14.8934 17.1633L15.2996 16.2495L15.7057 15.3357ZM16.6057 19.7634C17.1104 19.5391 17.3377 18.9482 17.1134 18.4435C16.8891 17.9388 16.2981 17.7115 15.7934 17.9358L16.1996 18.8496L16.6057 19.7634ZM14.8934 18.3358C14.3887 18.5601 14.1614 19.1511 14.3857 19.6557C14.6101 20.1604 15.201 20.3877 15.7057 20.1634L15.2996 19.2496L14.8934 18.3358ZM16.9857 15.3555C17.21 15.8601 17.801 16.0874 18.3057 15.8631C18.8104 15.6388 19.0377 15.0479 18.8134 14.5432L17.8996 14.9493L16.9857 15.3555ZM18.4134 13.6432C18.1891 13.1385 17.5981 12.9112 17.0934 13.1355C16.5887 13.3598 16.3614 13.9508 16.5857 14.4555L17.4996 14.0493L18.4134 13.6432ZM18.8134 20.9555C19.0377 20.4508 18.8104 19.8598 18.3057 19.6355C17.801 19.4112 17.21 19.6385 16.9857 20.1432L17.8996 20.5493L18.8134 20.9555ZM16.5857 21.0432C16.3614 21.5479 16.5887 22.1388 17.0934 22.3631C17.5981 22.5874 18.1891 22.3601 18.4134 21.8555L17.4996 21.4493L16.5857 21.0432ZM21.4134 14.4555C21.6377 13.9508 21.4104 13.3598 20.9057 13.1355C20.401 12.9112 19.81 13.1385 19.5857 13.6432L20.4996 14.0493L21.4134 14.4555ZM19.1857 14.5432C18.9614 15.0479 19.1887 15.6388 19.6934 15.8631C20.1981 16.0874 20.7891 15.8601 21.0134 15.3555L20.0996 14.9493L19.1857 14.5432ZM19.5857 21.8555C19.81 22.3601 20.401 22.5874 20.9057 22.3631C21.4104 22.1388 21.6377 21.5479 21.4134 21.0432L20.4996 21.4493L19.5857 21.8555ZM21.0134 20.1432C20.7891 19.6385 20.1981 19.4112 19.6934 19.6355C19.1887 19.8598 18.9614 20.4508 19.1857 20.9555L20.0996 20.5493L21.0134 20.1432ZM23.1057 17.1633C23.6104 16.939 23.8377 16.3481 23.6134 15.8434C23.3891 15.3387 22.7981 15.1114 22.2934 15.3357L22.6996 16.2495L23.1057 17.1633ZM21.3934 15.7357C20.8887 15.96 20.6614 16.551 20.8857 17.0556C21.1101 17.5603 21.701 17.7876 22.2057 17.5633L21.7996 16.6495L21.3934 15.7357ZM22.2934 20.1634C22.7981 20.3877 23.3891 20.1604 23.6134 19.6557C23.8377 19.1511 23.6104 18.5601 23.1057 18.3358L22.6996 19.2496L22.2934 20.1634ZM22.2057 17.9358C21.701 17.7115 21.1101 17.9388 20.8857 18.4435C20.6614 18.9482 20.8887 19.5391 21.3934 19.7634L21.7996 18.8496L22.2057 17.9358ZM5.19878 3V4H9.02107V3V2H5.19878V3ZM11.8832 4.76892L10.9888 5.21613L12.1044 7.44721L12.9988 7L13.8932 6.55279L12.7777 4.3217L11.8832 4.76892ZM1.99878 7H2.99878V6.2H1.99878H0.998779V7H1.99878ZM9.02107 3V4C9.81148 4 9.96815 4.01305 10.0888 4.05466L10.4149 3.10931L10.7409 2.16396C10.2277 1.98695 9.66649 2 9.02107 2V3ZM11.8832 4.76892L12.7777 4.3217C12.489 3.74443 12.2497 3.23659 11.8619 2.85675L11.1621 3.57116L10.4624 4.28558C10.5536 4.37487 10.6353 4.50918 10.9888 5.21613L11.8832 4.76892ZM10.4149 3.10931L10.0888 4.05465C10.2289 4.10299 10.3565 4.18187 10.4624 4.28558L11.1621 3.57116L11.8619 2.85674C11.5442 2.5456 11.1613 2.30896 10.7409 2.16396L10.4149 3.10931ZM5.19878 3V2C4.65523 2 4.18742 1.99922 3.80375 2.03057C3.40841 2.06287 3.01519 2.13419 2.63681 2.32698L3.0908 3.21799L3.54479 4.10899C3.59423 4.0838 3.69495 4.04612 3.96661 4.02393C4.24995 4.00078 4.62223 4 5.19878 4V3ZM1.99878 6.2H2.99878C2.99878 5.62345 2.99956 5.25117 3.02271 4.96784C3.0449 4.69617 3.08258 4.59545 3.10777 4.54601L2.21677 4.09202L1.32576 3.63803C1.13297 4.01641 1.06165 4.40963 1.02935 4.80497C0.998001 5.18864 0.998779 5.65645 0.998779 6.2H1.99878ZM3.0908 3.21799L2.63681 2.32698C2.07232 2.6146 1.61338 3.07354 1.32576 3.63803L2.21677 4.09202L3.10777 4.54601C3.20365 4.35785 3.35663 4.20487 3.54479 4.10899L3.0908 3.21799ZM1.99878 7V8H12.9988V7V6H1.99878V7ZM12.9988 7V8H17.1988V7V6H12.9988V7ZM1.99878 16.2H2.99878V7H1.99878H0.998779V16.2H1.99878ZM6.79878 21V20C5.9422 20 5.35991 19.9992 4.90982 19.9624C4.4714 19.9266 4.2472 19.8617 4.0908 19.782L3.63681 20.673L3.18282 21.564C3.66815 21.8113 4.18486 21.9099 4.74695 21.9558C5.29738 22.0008 5.9752 22 6.79878 22V21ZM1.99878 16.2H0.998779C0.998779 17.0236 0.998001 17.7014 1.04297 18.2518C1.0889 18.8139 1.18746 19.3306 1.43475 19.816L2.32576 19.362L3.21677 18.908C3.13708 18.7516 3.07215 18.5274 3.03633 18.089C2.99956 17.6389 2.99878 17.0566 2.99878 16.2H1.99878ZM3.63681 20.673L4.0908 19.782C3.71447 19.5903 3.40851 19.2843 3.21677 18.908L2.32576 19.362L1.43475 19.816C1.81825 20.5686 2.43017 21.1805 3.18282 21.564L3.63681 20.673ZM17.1988 7V8C18.0554 8 18.6377 8.00078 19.0877 8.03755C19.5262 8.07337 19.7504 8.1383 19.9068 8.21799L20.3607 7.32698L20.8147 6.43597C20.3294 6.18868 19.8127 6.09012 19.2506 6.04419C18.7002 5.99922 18.0224 6 17.1988 6V7ZM21.9988 11H22.9988C22.9988 10.1999 23.0013 9.6804 22.9488 9.29472C22.8835 8.81545 22.7323 8.51668 22.5628 8.18404L21.6718 8.63803L20.7808 9.09202C20.9383 9.40111 20.9505 9.44325 20.967 9.56449C20.9963 9.77932 20.9988 10.12 20.9988 11H21.9988ZM20.3607 7.32698L19.9068 8.21799C20.2831 8.40973 20.589 8.7157 20.7808 9.09202L21.6718 8.63803L22.5628 8.18404C22.1793 7.43139 21.5674 6.81947 20.8147 6.43597L20.3607 7.32698ZM12.4988 21V20H6.79878V21V22H12.4988V21ZM16.1996 16.6495L16.6057 15.7357L15.7057 15.3357L15.2996 16.2495L14.8934 17.1633L15.7934 17.5633L16.1996 16.6495ZM16.1996 18.8496L15.7934 17.9358L14.8934 18.3358L15.2996 19.2496L15.7057 20.1634L16.6057 19.7634L16.1996 18.8496ZM17.8996 14.9493L18.8134 14.5432L18.4134 13.6432L17.4996 14.0493L16.5857 14.4555L16.9857 15.3555L17.8996 14.9493ZM17.8996 20.5493L16.9857 20.1432L16.5857 21.0432L17.4996 21.4493L18.4134 21.8555L18.8134 20.9555L17.8996 20.5493ZM20.4996 14.0493L19.5857 13.6432L19.1857 14.5432L20.0996 14.9493L21.0134 15.3555L21.4134 14.4555L20.4996 14.0493ZM20.4996 21.4493L21.4134 21.0432L21.0134 20.1432L20.0996 20.5493L19.1857 20.9555L19.5857 21.8555L20.4996 21.4493ZM22.6996 16.2495L22.2934 15.3357L21.3934 15.7357L21.7996 16.6495L22.2057 17.5633L23.1057 17.1633L22.6996 16.2495ZM22.6996 19.2496L23.1057 18.3358L22.2057 17.9358L21.7996 18.8496L21.3934 19.7634L22.2934 20.1634L22.6996 19.2496ZM21.9996 17.7495H20.9996C20.9996 18.8541 20.1041 19.7495 18.9996 19.7495V20.7495V21.7495C21.2087 21.7495 22.9996 19.9587 22.9996 17.7495H21.9996ZM18.9996 20.7495V19.7495C17.895 19.7495 16.9996 18.8541 16.9996 17.7495H15.9996H14.9996C14.9996 19.9587 16.7904 21.7495 18.9996 21.7495V20.7495ZM15.9996 17.7495H16.9996C16.9996 16.6449 17.895 15.7495 18.9996 15.7495V14.7495V13.7495C16.7904 13.7495 14.9996 15.5404 14.9996 17.7495H15.9996ZM18.9996 14.7495V15.7495C20.1041 15.7495 20.9996 16.6449 20.9996 17.7495H21.9996H22.9996C22.9996 15.5404 21.2087 13.7495 18.9996 13.7495V14.7495Z" fill="black"/>
</svg>
