<svg width="16" height="16" viewBox="0 0 16 16" fill="none" xmlns="http://www.w3.org/2000/svg">
<path d="M3.33219 1.33398H1.33325V3.33292H3.33219V1.33398Z" stroke="black" stroke-width="1.5" stroke-miterlimit="1.5" stroke-linecap="round" stroke-linejoin="round"/>
<path d="M3.33219 7.00134H1.33325V9.00028H3.33219V7.00134Z" stroke="black" stroke-width="1.5" stroke-miterlimit="1.5" stroke-linecap="round" stroke-linejoin="round"/>
<path d="M13.6653 3.33368V7.00202" stroke="black" stroke-width="1.5" stroke-miterlimit="1.5" stroke-linecap="round" stroke-linejoin="round"/>
<path d="M2.33325 3.33368V7.00202" stroke="black" stroke-width="1.5" stroke-miterlimit="1.5" stroke-linecap="round" stroke-linejoin="round"/>
<path d="M13.6653 9.00098V12.6693" stroke="black" stroke-width="1.5" stroke-miterlimit="1.5" stroke-linecap="round" stroke-linejoin="round"/>
<path d="M2.33325 9.00098V12.6693" stroke="black" stroke-width="1.5" stroke-miterlimit="1.5" stroke-linecap="round" stroke-linejoin="round"/>
<path d="M3.33276 13.6677H7.00002" stroke="black" stroke-width="1.5" stroke-miterlimit="1.5" stroke-linecap="round" stroke-linejoin="round"/>
<path d="M3.33276 2.33563H7.00002" stroke="black" stroke-width="1.2195" stroke-miterlimit="1.5" stroke-linecap="round" stroke-linejoin="round"/>
<path d="M8.99878 13.666H12.666" stroke="black" stroke-width="1.5" stroke-miterlimit="1.5" stroke-linecap="round" stroke-linejoin="round"/>
<path d="M8.99878 2.33398H12.666" stroke="black" stroke-width="1.2195" stroke-miterlimit="1.5" stroke-linecap="round" stroke-linejoin="round"/>
<path d="M3.33219 12.6674H1.33325V14.6663H3.33219V12.6674Z" stroke="black" stroke-width="1.5" stroke-miterlimit="1.5" stroke-linecap="round" stroke-linejoin="round"/>
<path d="M14.6649 1.33466H12.666V3.33359H14.6649V1.33466Z" stroke="black" stroke-width="1.5" stroke-miterlimit="1.5" stroke-linecap="round" stroke-linejoin="round"/>
<path d="M8.9982 1.33331H6.99927V3.33225H8.9982V1.33331Z" stroke="black" stroke-width="1.5" stroke-miterlimit="1.5" stroke-linecap="round" stroke-linejoin="round"/>
<path d="M14.6649 7.00195H12.666V9.00089H14.6649V7.00195Z" stroke="black" stroke-width="1.5" stroke-miterlimit="1.5" stroke-linecap="round" stroke-linejoin="round"/>
<path d="M14.6649 12.668H12.666V14.667H14.6649V12.668Z" stroke="black" stroke-width="1.5" stroke-miterlimit="1.5" stroke-linecap="round" stroke-linejoin="round"/>
<path d="M8.9982 12.6667H6.99927V14.6656H8.9982V12.6667Z" stroke="black" stroke-width="1.5" stroke-miterlimit="1.5" stroke-linecap="round" stroke-linejoin="round"/>
</svg>
