<svg width="16" height="16" viewBox="0 0 16 16" fill="none" xmlns="http://www.w3.org/2000/svg">
<g clip-path="url(#clip0_1_4500)">
<path d="M14.6667 5.66663H13.1667C12.5223 5.66663 12 6.18896 12 6.83329C12 7.47763 12.5223 7.99996 13.1667 7.99996H14.1667C14.811 7.99996 15.3333 8.52229 15.3333 9.16663C15.3333 9.81096 14.811 10.3333 14.1667 10.3333H12" stroke="black" stroke-width="1.5" stroke-linecap="round" stroke-linejoin="round"/>
<path d="M7 10.3333V8.46663M7 8.46663C7.31747 8.46663 8.14287 8.46663 8.90473 8.46663C9.38093 8.46663 10.3333 8.46663 10.3333 7.06663C10.3333 5.66663 9.38093 5.66663 8.90473 5.66663H7V8.46663Z" stroke="black" stroke-width="1.5" stroke-linecap="round" stroke-linejoin="round"/>
<path d="M4.33341 6.08485C3.95547 5.82123 3.49583 5.66663 3.00008 5.66663C1.71141 5.66663 0.666748 6.71129 0.666748 7.99996C0.666748 9.28863 1.71141 10.3333 3.00008 10.3333C4.28875 10.3333 5.33341 9.33329 5.33341 7.99996H3.33341" stroke="black" stroke-width="1.5" stroke-linecap="round" stroke-linejoin="round"/>
</g>
<defs>
<clipPath id="clip0_1_4500">
<rect width="16" height="16" fill="white"/>
</clipPath>
</defs>
</svg>
