<svg width="16" height="16" viewBox="0 0 16 16" fill="none" xmlns="http://www.w3.org/2000/svg">
<g clip-path="url(#clip0_1_4464)">
<path d="M0.666748 13.3333V12.6667C0.666748 10.0893 2.75609 8 5.33341 8C7.91075 8 10.0001 10.0893 10.0001 12.6667V13.3333" stroke="black" stroke-width="1.5" stroke-linecap="round"/>
<path d="M8.66675 9.33333C8.66675 7.4924 10.1591 6 12.0001 6C13.841 6 15.3334 7.4924 15.3334 9.33333V9.66667" stroke="black" stroke-width="1.5" stroke-linecap="round"/>
<path d="M5.33341 7.99996C6.80615 7.99996 8.00008 6.80603 8.00008 5.33329C8.00008 3.86053 6.80615 2.66663 5.33341 2.66663C3.86065 2.66663 2.66675 3.86053 2.66675 5.33329C2.66675 6.80603 3.86065 7.99996 5.33341 7.99996Z" stroke="black" stroke-width="1.5" stroke-linecap="round" stroke-linejoin="round"/>
<path d="M12 6C13.1046 6 14 5.10457 14 4C14 2.89543 13.1046 2 12 2C10.8954 2 10 2.89543 10 4C10 5.10457 10.8954 6 12 6Z" stroke="black" stroke-width="1.5" stroke-linecap="round" stroke-linejoin="round"/>
</g>
<defs>
<clipPath id="clip0_1_4464">
<rect width="16" height="16" fill="white"/>
</clipPath>
</defs>
</svg>
