<svg width="16" height="16" viewBox="0 0 16 16" fill="none" xmlns="http://www.w3.org/2000/svg">
<g clip-path="url(#clip0_1_4458)">
<path d="M4.93341 4.66663H3.06675C2.84583 4.66663 2.66675 4.84571 2.66675 5.06663V10.9333C2.66675 11.1542 2.84583 11.3333 3.06675 11.3333H4.93341C5.15433 11.3333 5.33341 11.1542 5.33341 10.9333V5.06663C5.33341 4.84571 5.15433 4.66663 4.93341 4.66663Z" stroke="black" stroke-width="1.5" stroke-linecap="round" stroke-linejoin="round"/>
<path d="M12.9334 4.66663H11.0667C10.8458 4.66663 10.6667 4.84571 10.6667 5.06663V10.9333C10.6667 11.1542 10.8458 11.3333 11.0667 11.3333H12.9334C13.1543 11.3333 13.3334 11.1542 13.3334 10.9333V5.06663C13.3334 4.84571 13.1543 4.66663 12.9334 4.66663Z" stroke="black" stroke-width="1.5" stroke-linecap="round" stroke-linejoin="round"/>
<path d="M0.666748 9.6V6.4C0.666748 6.17909 0.845835 6 1.06675 6H2.26675C2.48766 6 2.66675 6.17909 2.66675 6.4V9.6C2.66675 9.82093 2.48766 10 2.26675 10H1.06675C0.845835 10 0.666748 9.82093 0.666748 9.6Z" stroke="black" stroke-width="1.5" stroke-linecap="round" stroke-linejoin="round"/>
<path d="M15.3333 9.6V6.4C15.3333 6.17909 15.1542 6 14.9333 6H13.7333C13.5123 6 13.3333 6.17909 13.3333 6.4V9.6C13.3333 9.82093 13.5123 10 13.7333 10H14.9333C15.1542 10 15.3333 9.82093 15.3333 9.6Z" stroke="black" stroke-width="1.5" stroke-linecap="round" stroke-linejoin="round"/>
<path d="M5.33325 8H10.6666" stroke="black" stroke-width="1.5" stroke-linecap="round" stroke-linejoin="round"/>
</g>
<defs>
<clipPath id="clip0_1_4458">
<rect width="16" height="16" fill="white"/>
</clipPath>
</defs>
</svg>
