<svg width="16" height="16" viewBox="0 0 16 16" fill="none" xmlns="http://www.w3.org/2000/svg">
<path d="M14.5333 9.33326C13.9155 12.3763 11.2252 14.6666 7.99992 14.6666C4.31802 14.6666 1.33325 11.6819 1.33325 7.99993C1.33325 4.54306 3.96437 1.70069 7.33325 1.36621" stroke="black" stroke-width="1.5" stroke-linecap="round" stroke-linejoin="round"/>
<path d="M4.33333 6.66667C4.14924 6.66667 4 6.51743 4 6.33333C4 6.14924 4.14924 6 4.33333 6C4.51743 6 4.66667 6.14924 4.66667 6.33333C4.66667 6.51743 4.51743 6.66667 4.33333 6.66667Z" stroke="black" stroke-width="1.5" stroke-linecap="round" stroke-linejoin="round"/>
<path d="M13.6666 2.66667C13.4825 2.66667 13.3333 2.51743 13.3333 2.33333C13.3333 2.14924 13.4825 2 13.6666 2C13.8507 2 13.9999 2.14924 13.9999 2.33333C13.9999 2.51743 13.8507 2.66667 13.6666 2.66667Z" stroke="black" stroke-width="1.5" stroke-linecap="round" stroke-linejoin="round"/>
<path d="M7.99992 12.6667C7.63172 12.6667 7.33325 12.3682 7.33325 12C7.33325 11.6318 7.63172 11.3334 7.99992 11.3334C8.36812 11.3334 8.66659 11.6318 8.66659 12C8.66659 12.3682 8.36812 12.6667 7.99992 12.6667Z" stroke="black" stroke-width="1.5" stroke-linecap="round" stroke-linejoin="round"/>
<path d="M4.66675 10.0067L4.67341 9.99927" stroke="black" stroke-width="1.5" stroke-linecap="round" stroke-linejoin="round"/>
<path d="M11.3333 10.0067L11.3399 9.99927" stroke="black" stroke-width="1.5" stroke-linecap="round" stroke-linejoin="round"/>
<path d="M7.33325 8.00667L7.33992 7.99927" stroke="black" stroke-width="1.5" stroke-linecap="round" stroke-linejoin="round"/>
<path d="M14 6.00667L14.0067 5.99927" stroke="black" stroke-width="1.5" stroke-linecap="round" stroke-linejoin="round"/>
<path d="M11.3333 4.00667L11.3399 3.99927" stroke="black" stroke-width="1.5" stroke-linecap="round" stroke-linejoin="round"/>
<path d="M7.33323 1.33337C6.99989 2.33337 7.66649 3.33337 8.72356 3.33337C7.33323 5.66671 8.66656 8.00004 11.9999 7.66671C11.9999 9.33337 13.6666 9.66671 14.4664 9.34244" stroke="black" stroke-width="1.5" stroke-linecap="round" stroke-linejoin="round"/>
</svg>
