<svg width="16" height="16" viewBox="0 0 16 16" fill="none" xmlns="http://www.w3.org/2000/svg">
<g clip-path="url(#clip0_1_4378)">
<path d="M4 5.66663V7.99996M4 7.99996V10.3333M4 7.99996H7M7 7.99996V5.66663M7 7.99996V10.3333" stroke="black" stroke-width="1.5" stroke-linecap="round" stroke-linejoin="round"/>
<path d="M9.33331 7.99996V5.66663C11 5.66663 12.6666 5.66663 12.6666 7.99996C12.6666 10.3333 11 10.3333 9.33331 10.3333V7.99996Z" stroke="black" stroke-width="1.5" stroke-linecap="round" stroke-linejoin="round"/>
<path d="M0.666687 10V6C0.666687 3.79086 2.45755 2 4.66669 2H11.3334C13.5425 2 15.3334 3.79086 15.3334 6V10C15.3334 12.2091 13.5425 14 11.3334 14H4.66669C2.45755 14 0.666687 12.2091 0.666687 10Z" stroke="black" stroke-width="1.5"/>
</g>
<defs>
<clipPath id="clip0_1_4378">
<rect width="16" height="16" fill="white"/>
</clipPath>
</defs>
</svg>
