<svg width="16" height="16" viewBox="0 0 16 16" fill="none" xmlns="http://www.w3.org/2000/svg">
<path d="M14 2.4V13.6C14 13.8209 13.8209 14 13.6 14H2.4C2.17909 14 2 13.8209 2 13.6V2.4C2 2.17909 2.17909 2 2.4 2H13.6C13.8209 2 14 2.17909 14 2.4Z" stroke="black" stroke-width="1.5" stroke-linecap="round" stroke-linejoin="round"/>
<path d="M5.33326 4C5.33326 4 3.66662 6 5.33326 8C6.99989 10 5.33326 12 5.33326 12" stroke="black" stroke-width="1.5" stroke-linecap="round" stroke-linejoin="round"/>
<path d="M7.99999 4C7.99999 4 6.33339 6 7.99999 8C9.66665 10 7.99999 12 7.99999 12" stroke="black" stroke-width="1.5" stroke-linecap="round" stroke-linejoin="round"/>
<path d="M10.6666 4C10.6666 4 9.00001 6 10.6666 8C12.3333 10 10.6666 12 10.6666 12" stroke="black" stroke-width="1.5" stroke-linecap="round" stroke-linejoin="round"/>
</svg>
