<svg width="16" height="16" viewBox="0 0 16 16" fill="none" xmlns="http://www.w3.org/2000/svg">
<path d="M4 2H2V4" stroke="black" stroke-width="1.5" stroke-linecap="round" stroke-linejoin="round"/>
<path d="M7.99996 9.33329C8.73636 9.33329 9.33329 8.73636 9.33329 7.99996C9.33329 7.26356 8.73636 6.66663 7.99996 6.66663C7.26356 6.66663 6.66663 7.26356 6.66663 7.99996C6.66663 8.73636 7.26356 9.33329 7.99996 9.33329Z" stroke="black" stroke-width="1.5" stroke-linecap="round" stroke-linejoin="round"/>
<path d="M14 8C12.7409 9.994 10.4789 12 8 12C5.52113 12 3.25904 9.994 2 8C3.53237 6.1055 5.32775 4 8 4C10.6723 4 12.4677 6.10547 14 8Z" stroke="black" stroke-width="1.5" stroke-linecap="round" stroke-linejoin="round"/>
<path d="M12 2H14V4" stroke="black" stroke-width="1.5" stroke-linecap="round" stroke-linejoin="round"/>
<path d="M4 14H2V12" stroke="black" stroke-width="1.5" stroke-linecap="round" stroke-linejoin="round"/>
<path d="M12 14H14V12" stroke="black" stroke-width="1.5" stroke-linecap="round" stroke-linejoin="round"/>
</svg>
