<svg width="16" height="16" viewBox="0 0 16 16" fill="none" xmlns="http://www.w3.org/2000/svg">
<path d="M9.33337 7.99836C9.33337 6.33723 7.78871 4.66663 5.9048 4.66663C5.68165 4.66663 4.94607 4.66663 4.76195 4.66663C2.8684 4.66663 1.33337 6.15831 1.33337 7.99836C1.33337 9.58396 2.47319 10.9109 4.00004 11.2476C4.24508 11.3016 4.50008 11.3301 4.76195 11.3301" stroke="black" stroke-width="1.5" stroke-linecap="round" stroke-linejoin="round"/>
<path d="M11.238 4.66663C11.4999 4.66663 11.7549 4.69515 12 4.74919C13.5268 5.08586 14.6666 6.41277 14.6666 7.99839C14.6666 8.95965 14.2477 9.82585 13.5776 10.434" stroke="black" stroke-width="1.5" stroke-linecap="round" stroke-linejoin="round"/>
<path d="M6.66675 7.99841C6.66675 9.65955 8.21141 11.3301 10.0953 11.3301" stroke="black" stroke-width="1.5" stroke-linecap="round" stroke-linejoin="round"/>
<path d="M12 14.8284L13.4142 13.4142M13.4142 13.4142L14.8284 12M13.4142 13.4142L12 12M13.4142 13.4142L14.8284 14.8284" stroke="black" stroke-width="1.5" stroke-linecap="round" stroke-linejoin="round"/>
</svg>
