<svg width="16" height="16" viewBox="0 0 16 16" fill="none" xmlns="http://www.w3.org/2000/svg">
<path d="M14 2.4V13.6C14 13.8209 13.8209 14 13.6 14H2.4C2.17909 14 2 13.8209 2 13.6V2.4C2 2.17909 2.17909 2 2.4 2H13.6C13.8209 2 14 2.17909 14 2.4Z" stroke="black" stroke-width="1.5" stroke-linecap="round" stroke-linejoin="round"/>
<path d="M6.66667 11.7724C7.08373 11.9198 7.53247 12 8 12C10.2091 12 12 10.2091 12 8C12 6.25837 10.8869 4.77672 9.33333 4.22761M6.66667 11.7724C5.11308 11.2233 4 9.7416 4 8C4 5.79086 5.79086 4 8 4C8.46753 4 8.91627 4.08021 9.33333 4.22761M6.66667 11.7724L9.33333 4.22761" stroke="black" stroke-width="1.5" stroke-linecap="round" stroke-linejoin="round"/>
</svg>
