<svg width="16" height="16" viewBox="0 0 16 16" fill="none" xmlns="http://www.w3.org/2000/svg">
<path d="M8.66667 14H2.4C2.17909 14 2 13.8209 2 13.6V2.4C2 2.17909 2.17909 2 2.4 2H13.6C13.8209 2 14 2.17909 14 2.4V8.66667" stroke="black" stroke-width="1.5" stroke-linecap="round" stroke-linejoin="round"/>
<path d="M10.6667 12.6666H12.6667M12.6667 12.6666H14.6667M12.6667 12.6666V10.6666M12.6667 12.6666V14.6666" stroke="black" stroke-width="1.5" stroke-linecap="round" stroke-linejoin="round"/>
<path d="M6.59845 5.67536C6.33179 5.52298 6 5.71553 6 6.02266V9.97746C6 10.2846 6.33179 10.4771 6.59845 10.3247L10.0589 8.34732C10.3276 8.19379 10.3276 7.80632 10.0589 7.65279L6.59845 5.67536Z" stroke="black" stroke-width="1.5" stroke-linecap="round" stroke-linejoin="round"/>
</svg>
