<svg width="16" height="16" viewBox="0 0 16 16" fill="none" xmlns="http://www.w3.org/2000/svg">
<path d="M14.0001 5.06663V13.6C14.0001 13.8209 13.821 14 13.6001 14H5.06675C4.84583 14 4.66675 13.8209 4.66675 13.6V5.06663C4.66675 4.84571 4.84583 4.66663 5.06675 4.66663H13.6001C13.821 4.66663 14.0001 4.84571 14.0001 5.06663Z" stroke="black" stroke-width="1.5" stroke-linecap="round" stroke-linejoin="round"/>
<path d="M12.0001 2.66663H3.06675C2.84583 2.66663 2.66675 2.84571 2.66675 3.06663V12" stroke="black" stroke-width="1.5" stroke-linecap="round" stroke-linejoin="round"/>
<path d="M8.6058 7.69677C8.3392 7.53684 8 7.72884 8 8.03977V10.6268C8 10.9378 8.3392 11.1298 8.6058 10.9698L10.7617 9.6763C11.0206 9.52097 11.0206 9.14564 10.7617 8.9903L8.6058 7.69677Z" stroke="black" stroke-width="1.5" stroke-linecap="round" stroke-linejoin="round"/>
</svg>
