<svg width="16" height="16" viewBox="0 0 16 16" fill="none" xmlns="http://www.w3.org/2000/svg">
<g clip-path="url(#clip0_1_3358)">
<path d="M10 3.33337C10 2.2288 9.10457 1.33337 8 1.33337C6.89543 1.33337 6 2.2288 6 3.33337V7.33337C6 8.43794 6.89543 9.33337 8 9.33337C9.10457 9.33337 10 8.43794 10 7.33337V3.33337Z" stroke="black" stroke-width="1.5"/>
<path d="M3.33329 2.00004V3.33337M0.666626 1.33337V4.00004M12.6666 2.00004V3.33337M15.3333 1.33337V4.00004" stroke="black" stroke-width="1.5" stroke-linecap="round" stroke-linejoin="round"/>
<path d="M3.33337 6.66663V7.33329C3.33337 9.91063 5.42271 12 8.00004 12C10.5774 12 12.6667 9.91063 12.6667 7.33329V6.66663" stroke="black" stroke-width="1.5" stroke-linecap="round" stroke-linejoin="round"/>
<path d="M8 12V14.6667M8 14.6667H6M8 14.6667H10" stroke="black" stroke-width="1.5" stroke-linecap="round" stroke-linejoin="round"/>
</g>
<defs>
<clipPath id="clip0_1_3358">
<rect width="16" height="16" fill="white"/>
</clipPath>
</defs>
</svg>
