<svg width="16" height="16" viewBox="0 0 16 16" fill="none" xmlns="http://www.w3.org/2000/svg">
<g clip-path="url(#clip0_1_3364)">
<path d="M11.3281 12.6666H13.3281M13.3281 12.6666H15.3281M13.3281 12.6666V10.6666M13.3281 12.6666V14.6666" stroke="black" stroke-width="1.5" stroke-linecap="round" stroke-linejoin="round"/>
<path d="M7.33337 3.33337C7.33337 2.2288 6.43794 1.33337 5.33337 1.33337C4.2288 1.33337 3.33337 2.2288 3.33337 3.33337V7.33337C3.33337 8.43794 4.2288 9.33337 5.33337 9.33337C6.43794 9.33337 7.33337 8.43794 7.33337 7.33337V3.33337Z" stroke="black" stroke-width="1.5"/>
<path d="M0.666626 6.66663V7.33329C0.666626 9.91063 2.75597 12 5.33329 12C7.91063 12 9.99996 9.91063 9.99996 7.33329V6.66663" stroke="black" stroke-width="1.5" stroke-linecap="round" stroke-linejoin="round"/>
<path d="M5.33337 12V14.6667M5.33337 14.6667H3.33337M5.33337 14.6667H7.33337" stroke="black" stroke-width="1.5" stroke-linecap="round" stroke-linejoin="round"/>
</g>
<defs>
<clipPath id="clip0_1_3364">
<rect width="16" height="16" fill="white"/>
</clipPath>
</defs>
</svg>
