<svg width="16" height="16" viewBox="0 0 16 16" fill="none" xmlns="http://www.w3.org/2000/svg">
<g clip-path="url(#clip0_1_3376)">
<path d="M11.3281 12.6666H13.3281H15.3281" stroke="black" stroke-width="1.5" stroke-linecap="round" stroke-linejoin="round"/>
<path d="M7.33331 3.33337C7.33331 2.2288 6.43788 1.33337 5.33331 1.33337C4.22874 1.33337 3.33331 2.2288 3.33331 3.33337V7.33337C3.33331 8.43794 4.22874 9.33337 5.33331 9.33337C6.43788 9.33337 7.33331 8.43794 7.33331 7.33337V3.33337Z" stroke="black" stroke-width="1.5"/>
<path d="M0.666687 6.66663V7.33329C0.666687 9.91063 2.75603 12 5.33335 12C7.91069 12 10 9.91063 10 7.33329V6.66663" stroke="black" stroke-width="1.5" stroke-linecap="round" stroke-linejoin="round"/>
<path d="M5.33331 12V14.6667M5.33331 14.6667H3.33331M5.33331 14.6667H7.33331" stroke="black" stroke-width="1.5" stroke-linecap="round" stroke-linejoin="round"/>
</g>
<defs>
<clipPath id="clip0_1_3376">
<rect width="16" height="16" fill="white"/>
</clipPath>
</defs>
</svg>
