<svg width="16" height="16" viewBox="0 0 16 16" fill="none" xmlns="http://www.w3.org/2000/svg">
<g clip-path="url(#clip0_1_3241)">
<path d="M3.33341 12.6667C4.80617 12.6667 6.00008 11.4728 6.00008 10C6.00008 8.52731 4.80617 7.33337 3.33341 7.33337C1.86065 7.33337 0.666748 8.52731 0.666748 10C0.666748 11.4728 1.86065 12.6667 3.33341 12.6667Z" stroke="black" stroke-width="1.5" stroke-linecap="round" stroke-linejoin="round"/>
<path d="M12.6667 10L10.6667 4.00004L11.3334 3.33337" stroke="black" stroke-width="1.5" stroke-linecap="round" stroke-linejoin="round"/>
<path d="M10.6667 5.66663H7.66675L4.66675 7.66663" stroke="black" stroke-width="1.5" stroke-linecap="round" stroke-linejoin="round"/>
<path d="M3.66675 10.3333H8.00008L8.66675 8.66663L11.0001 5.66663" stroke="black" stroke-width="1.5" stroke-linecap="round" stroke-linejoin="round"/>
<path d="M5.66667 6.66663C4.33333 5.66663 2.33333 5.66663 1 6.66663" stroke="black" stroke-width="1.5" stroke-linecap="round" stroke-linejoin="round"/>
<path d="M12.6667 12.6667C14.1394 12.6667 15.3333 11.4728 15.3333 10C15.3333 8.52731 14.1394 7.33337 12.6667 7.33337C11.1939 7.33337 10 8.52731 10 10C10 11.4728 11.1939 12.6667 12.6667 12.6667Z" stroke="black" stroke-width="1.5" stroke-linecap="round" stroke-linejoin="round"/>
</g>
<defs>
<clipPath id="clip0_1_3241">
<rect width="16" height="16" fill="white"/>
</clipPath>
</defs>
</svg>
