<svg width="16" height="16" viewBox="0 0 16 16" fill="none" xmlns="http://www.w3.org/2000/svg">
<g clip-path="url(#clip0_1_3148)">
<path d="M11.3333 4.33337H13.3333M13.3333 4.33337H15.3333M13.3333 4.33337V2.33337M13.3333 4.33337V6.33337" stroke="black" stroke-width="1.5" stroke-linecap="round" stroke-linejoin="round"/>
<path d="M4 10.6666V3.33324L9.33333 2.66663" stroke="black" stroke-width="1.5" stroke-linecap="round" stroke-linejoin="round"/>
<path d="M10 9.33329V6.66663" stroke="black" stroke-width="1.5" stroke-linecap="round" stroke-linejoin="round"/>
<path d="M7.99999 12.6667H8.66666C9.40306 12.6667 9.99999 12.0698 9.99999 11.3334V9.33337H7.99999C7.26359 9.33337 6.66666 9.93031 6.66666 10.6667V11.3334C6.66666 12.0698 7.26359 12.6667 7.99999 12.6667Z" stroke="black" stroke-width="1.5" stroke-linecap="round" stroke-linejoin="round"/>
<path d="M1.99999 14H2.66666C3.40304 14 3.99999 13.403 3.99999 12.6666V10.6666H1.99999C1.26361 10.6666 0.666656 11.2636 0.666656 12V12.6666C0.666656 13.403 1.26361 14 1.99999 14Z" stroke="black" stroke-width="1.5" stroke-linecap="round" stroke-linejoin="round"/>
</g>
<defs>
<clipPath id="clip0_1_3148">
<rect width="16" height="16" fill="white"/>
</clipPath>
</defs>
</svg>
