<svg width="16" height="16" viewBox="0 0 16 16" fill="none" xmlns="http://www.w3.org/2000/svg">
<path d="M10 8V10" stroke="black" stroke-width="1.5" stroke-linecap="round" stroke-linejoin="round"/>
<path d="M9.99996 6C9.99996 5.33333 9.52376 4.66667 8.57136 4.66667C7.51943 4.66667 6.66663 3.81387 6.66663 2.76191V2" stroke="black" stroke-width="1.5" stroke-linecap="round" stroke-linejoin="round"/>
<path d="M12 5.99996V2.66663" stroke="black" stroke-width="1.5" stroke-linecap="round" stroke-linejoin="round"/>
<path d="M12 8V10" stroke="black" stroke-width="1.5" stroke-linecap="round" stroke-linejoin="round"/>
<path d="M10 10H4.4C4.17909 10 4 9.82093 4 9.6V8.4C4 8.17907 4.17909 8 4.4 8H8" stroke="black" stroke-width="1.5"/>
<path d="M3.33337 3.33337L12.6667 12.6667" stroke="black" stroke-width="1.5" stroke-linecap="round" stroke-linejoin="round"/>
<path d="M8.00004 14.6667C11.6819 14.6667 14.6667 11.6819 14.6667 8.00004C14.6667 4.31814 11.6819 1.33337 8.00004 1.33337C4.31814 1.33337 1.33337 4.31814 1.33337 8.00004C1.33337 11.6819 4.31814 14.6667 8.00004 14.6667Z" stroke="black" stroke-width="1.5" stroke-linecap="round" stroke-linejoin="round"/>
<path d="M8.00004 14.6667C11.6819 14.6667 14.6667 11.6819 14.6667 8.00004C14.6667 4.31814 11.6819 1.33337 8.00004 1.33337C4.31814 1.33337 1.33337 4.31814 1.33337 8.00004C1.33337 11.6819 4.31814 14.6667 8.00004 14.6667Z" stroke="black" stroke-width="1.5" stroke-linecap="round" stroke-linejoin="round"/>
</svg>
