<svg width="16" height="16" viewBox="0 0 16 16" fill="none" xmlns="http://www.w3.org/2000/svg">
<path d="M2 13.6V2.4C2 2.17909 2.17909 2 2.4 2H13.6C13.8209 2 14 2.17909 14 2.4V13.6C14 13.8209 13.8209 14 13.6 14H2.4C2.17909 14 2 13.8209 2 13.6Z" stroke="black" stroke-width="1.5"/>
<path d="M6.33337 6.66671C6.33337 5.93033 7.07957 5.33337 8.00004 5.33337C8.92051 5.33337 9.66671 5.93033 9.66671 6.66671C9.66671 7.40311 9.25384 8.00004 8.33337 8.00004" stroke="black" stroke-width="1.5" stroke-linecap="round" stroke-linejoin="round"/>
<path d="M6.33337 9.33333C6.33337 10.0697 7.07957 10.6667 8.00004 10.6667C8.92051 10.6667 9.66671 10.0697 9.66671 9.33333C9.66671 8.59693 9.25384 8 8.33337 8" stroke="black" stroke-width="1.5" stroke-linecap="round" stroke-linejoin="round"/>
</svg>
