<svg width="24" height="24" viewBox="0 0 24 24" fill="none" xmlns="http://www.w3.org/2000/svg">
<path d="M5.99999 22H3.59999C3.38136 22.0257 3.15976 22.0052 2.94958 21.9397C2.7394 21.8743 2.54534 21.7653 2.37999 21.62C2.23466 21.4547 2.12572 21.2606 2.06026 21.0504C1.99479 20.8402 1.97426 20.6186 1.99999 20.4V19.5C1.97681 19.2572 1.97681 19.0128 1.99999 18.77C2.08016 18.33 2.2925 17.925 2.60872 17.6087C2.92494 17.2925 3.33003 17.0802 3.76999 17C4.01299 16.977 4.25699 16.977 4.49999 17H4.84999C4.88846 16.9921 4.92355 16.9725 4.95041 16.9438C4.97727 16.9152 4.99459 16.8789 4.99999 16.84V16.5C5.00652 16.3834 5.00652 16.2666 4.99999 16.15C4.9921 16.1115 4.97247 16.0764 4.94382 16.0496C4.91517 16.0227 4.87889 16.0054 4.83999 16H2.99999C2.73477 16 2.48042 15.8946 2.29288 15.7071C2.10535 15.5196 1.99999 15.2652 1.99999 15C1.99999 14.7348 2.10535 14.4804 2.29288 14.2929C2.48042 14.1054 2.73477 14 2.99999 14H4.49999C4.74299 13.977 4.98699 13.977 5.22999 14C5.66995 14.0802 6.07504 14.2925 6.39126 14.6087C6.70748 14.925 6.91983 15.33 6.99999 15.77C7.02317 16.0128 7.02317 16.2572 6.99999 16.5C7.02317 16.7428 7.02317 16.9872 6.99999 17.23C6.91593 17.6683 6.70231 18.0712 6.38676 18.3868C6.07122 18.7023 5.66825 18.9159 5.22999 19C4.98721 19.0232 4.74277 19.0232 4.49999 19C4.38362 18.9883 4.26637 18.9883 4.14999 19C4.11291 19.0073 4.07883 19.0254 4.05211 19.0521C4.02539 19.0788 4.00724 19.1129 3.99999 19.15V20H5.99999C6.26521 20 6.51956 20.1054 6.7071 20.2929C6.89463 20.4804 6.99999 20.7348 6.99999 21C6.99999 21.2652 6.89463 21.5196 6.7071 21.7071C6.51956 21.8946 6.26521 22 5.99999 22ZM21 19H9.99999C9.73477 19 9.48042 18.8946 9.29288 18.7071C9.10535 18.5196 8.99999 18.2652 8.99999 18C8.99999 17.7348 9.10535 17.4804 9.29288 17.2929C9.48042 17.1054 9.73477 17 9.99999 17H21C21.2652 17 21.5196 17.1054 21.7071 17.2929C21.8946 17.4804 22 17.7348 22 18C22 18.2652 21.8946 18.5196 21.7071 18.7071C21.5196 18.8946 21.2652 19 21 19ZM21 13H9.99999C9.73477 13 9.48042 12.8946 9.29288 12.7071C9.10535 12.5196 8.99999 12.2652 8.99999 12C8.99999 11.7348 9.10535 11.4804 9.29288 11.2929C9.48042 11.1054 9.73477 11 9.99999 11H21C21.2652 11 21.5196 11.1054 21.7071 11.2929C21.8946 11.4804 22 11.7348 22 12C22 12.2652 21.8946 12.5196 21.7071 12.7071C21.5196 12.8946 21.2652 13 21 13ZM5.99999 10H2.99999C2.73477 10 2.48042 9.89464 2.29288 9.70711C2.10535 9.51957 1.99999 9.26522 1.99999 9C1.99999 8.73478 2.10535 8.48043 2.29288 8.29289C2.48042 8.10536 2.73477 8 2.99999 8H3.49999V4H2.99999C2.73477 4 2.48042 3.89464 2.29288 3.70711C2.10535 3.51957 1.99999 3.26522 1.99999 3C1.99999 2.73478 2.10535 2.48043 2.29288 2.29289C2.48042 2.10536 2.73477 2 2.99999 2H4.19999C4.54477 2 4.87543 2.13696 5.11923 2.38076C5.36303 2.62456 5.49999 2.95522 5.49999 3.3V8H5.99999C6.26521 8 6.51956 8.10536 6.7071 8.29289C6.89463 8.48043 6.99999 8.73478 6.99999 9C6.99999 9.26522 6.89463 9.51957 6.7071 9.70711C6.51956 9.89464 6.26521 10 5.99999 10ZM21 7H9.99999C9.73477 7 9.48042 6.89464 9.29288 6.70711C9.10535 6.51957 8.99999 6.26522 8.99999 6C8.99999 5.73478 9.10535 5.48043 9.29288 5.29289C9.48042 5.10536 9.73477 5 9.99999 5H21C21.2652 5 21.5196 5.10536 21.7071 5.29289C21.8946 5.48043 22 5.73478 22 6C22 6.26522 21.8946 6.51957 21.7071 6.70711C21.5196 6.89464 21.2652 7 21 7Z" fill="black"/>
</svg>
