<svg width="16" height="16" viewBox="0 0 16 16" fill="none" xmlns="http://www.w3.org/2000/svg">
<path d="M2 3.33337H10" stroke="black" stroke-width="1.5" stroke-linecap="round" stroke-linejoin="round"/>
<path d="M13.6667 4.66667V2L12.6667 3" stroke="black" stroke-width="1.5" stroke-linecap="round" stroke-linejoin="round"/>
<path d="M14.0001 9.33329H12.6667L13.9365 7.35803C13.978 7.29349 14.0015 7.21783 13.9848 7.14296C13.9463 6.97043 13.8107 6.66663 13.3334 6.66663C12.6667 6.66663 12.6667 7.25923 12.6667 7.25923V7.40736" stroke="black" stroke-width="1.5" stroke-linecap="round" stroke-linejoin="round"/>
<path d="M13.0001 12.6666H13.3334C13.7016 12.6666 14.0001 12.9651 14.0001 13.3333C14.0001 13.7015 13.7016 14 13.3334 14H12.6667" stroke="black" stroke-width="1.5" stroke-linecap="round" stroke-linejoin="round"/>
<path d="M12.6667 11.3334H14.0001L13.0001 12.6667" stroke="black" stroke-width="1.5" stroke-linecap="round" stroke-linejoin="round"/>
<path d="M2 8H10" stroke="black" stroke-width="1.5" stroke-linecap="round" stroke-linejoin="round"/>
<path d="M2 12.6666H10" stroke="black" stroke-width="1.5" stroke-linecap="round" stroke-linejoin="round"/>
</svg>
