<svg width="16" height="16" viewBox="0 0 16 16" fill="none" xmlns="http://www.w3.org/2000/svg">
<path d="M2 13.6V2.4C2 2.17909 2.17909 2 2.4 2H13.6C13.8209 2 14 2.17909 14 2.4V13.6C14 13.8209 13.8209 14 13.6 14H2.4C2.17909 14 2 13.8209 2 13.6Z" stroke="black" stroke-width="1.5"/>
<path d="M7.99992 5.33337C8.92039 5.33337 9.66659 5.66671 9.66659 7.00004C9.66659 8.00004 8.92039 8.33337 7.99992 8.33337C7.07945 8.33337 6.33325 8.00004 6.33325 7.00004C6.33325 5.66671 7.07945 5.33337 7.99992 5.33337Z" stroke="black" stroke-width="1.5" stroke-linecap="round" stroke-linejoin="round"/>
<path d="M9.66675 7.33337C9.66675 9.33337 9.66675 10.6667 6.66675 10.6667" stroke="black" stroke-width="1.5" stroke-linecap="round" stroke-linejoin="round"/>
</svg>
