<svg width="16" height="16" viewBox="0 0 16 16" fill="none" xmlns="http://www.w3.org/2000/svg">
<g clip-path="url(#clip0_1_2963)">
<path d="M7.84702 0.730035C7.94502 0.689435 8.05515 0.689435 8.15315 0.730035L13.0325 2.75111C13.1305 2.7917 13.2084 2.86957 13.249 2.96759L15.27 7.84689C15.3106 7.94489 15.3106 8.05503 15.27 8.15303L13.249 13.0324C13.2084 13.1304 13.1305 13.2082 13.0325 13.2488L8.15315 15.2699C8.05515 15.3105 7.94502 15.3105 7.84702 15.2699L2.96771 13.2488C2.8697 13.2082 2.79182 13.1304 2.75123 13.0324L0.730157 8.15303C0.689557 8.05503 0.689557 7.94489 0.730157 7.84689L2.75123 2.96759C2.79182 2.86957 2.8697 2.7917 2.96771 2.75111L7.84702 0.730035Z" stroke="black" stroke-width="1.5" stroke-linecap="round" stroke-linejoin="round"/>
</g>
<defs>
<clipPath id="clip0_1_2963">
<rect width="16" height="16" fill="white"/>
</clipPath>
</defs>
</svg>
