<svg width="18" height="18" viewBox="0 0 18 18" fill="none" xmlns="http://www.w3.org/2000/svg">
<path d="M8.84702 1.73003C8.94502 1.68943 9.05515 1.68943 9.15315 1.73003L14.0325 3.75111C14.1305 3.7917 14.2084 3.86957 14.249 3.96759L16.27 8.84689C16.3106 8.94489 16.3106 9.05503 16.27 9.15303L14.249 14.0324C14.2084 14.1304 14.1305 14.2082 14.0325 14.2488L9.15315 16.2699C9.05515 16.3105 8.94502 16.3105 8.84702 16.2699L3.96771 14.2488C3.8697 14.2082 3.79182 14.1304 3.75123 14.0324L1.73016 9.15303C1.68956 9.05503 1.68956 8.94489 1.73016 8.84689L3.75123 3.96759C3.79182 3.86957 3.8697 3.7917 3.96771 3.75111L8.84702 1.73003Z" stroke="black" stroke-width="1.5" stroke-linecap="round" stroke-linejoin="round"/>
</svg>
