<svg width="16" height="16" viewBox="0 0 16 16" fill="none" xmlns="http://www.w3.org/2000/svg">
<path d="M13.3333 8.00004V3.83239C13.3333 3.72631 13.2912 3.62457 13.2162 3.54955L11.1171 1.45053C11.0421 1.37551 10.9404 1.33337 10.8343 1.33337H3.06663C2.84571 1.33337 2.66663 1.51246 2.66663 1.73337V14.2667C2.66663 14.4876 2.84571 14.6667 3.06663 14.6667H7.33329" stroke="black" stroke-width="1.5" stroke-linecap="round" stroke-linejoin="round"/>
<path d="M5.33337 6.66667H10.6667M5.33337 4H8.00004M5.33337 9.33333H7.33337" stroke="black" stroke-width="1.5" stroke-linecap="round" stroke-linejoin="round"/>
<path d="M13.6666 13.6666L14.6666 14.6666" stroke="black" stroke-width="1.5" stroke-linecap="round" stroke-linejoin="round"/>
<path d="M10 12C10 13.1046 10.8954 14 12 14C12.5533 14 13.054 13.7753 13.4161 13.4123C13.7769 13.0505 14 12.5513 14 12C14 10.8954 13.1046 10 12 10C10.8954 10 10 10.8954 10 12Z" stroke="black" stroke-width="1.5" stroke-linecap="round" stroke-linejoin="round"/>
<path d="M10.6666 1.33337V3.60004C10.6666 3.82095 10.8457 4.00004 11.0666 4.00004H13.3333" stroke="black" stroke-width="1.5" stroke-linecap="round" stroke-linejoin="round"/>
</svg>
