<svg width="16" height="16" viewBox="0 0 16 16" fill="none" xmlns="http://www.w3.org/2000/svg">
<path d="M8 7.33337H9.66667H11.3333" stroke="black" stroke-width="1.5" stroke-linecap="round" stroke-linejoin="round"/>
<path d="M8 4.66663H9.66667H11.3333" stroke="black" stroke-width="1.5" stroke-linecap="round" stroke-linejoin="round"/>
<path d="M5.33337 10V2.4C5.33337 2.17909 5.51246 2 5.73337 2H13.6C13.821 2 14 2.17909 14 2.4V11.3333C14 12.8061 12.8061 14 11.3334 14" stroke="black" stroke-width="1.5" stroke-linecap="round" stroke-linejoin="round"/>
<path d="M3.33333 10H5.33333H8.26667C8.4876 10 8.66873 10.1779 8.68653 10.3981C8.7684 11.4098 9.18747 14 11.3333 14H5.33333H4C2.89543 14 2 13.1046 2 12V11.3333C2 10.5969 2.59695 10 3.33333 10Z" stroke="black" stroke-width="1.5" stroke-linecap="round" stroke-linejoin="round"/>
</svg>
