<svg width="16" height="16" viewBox="0 0 16 16" fill="none" xmlns="http://www.w3.org/2000/svg">
<g clip-path="url(#clip0_1_2722)">
<path d="M5.66675 2.66663H4.00008C3.2637 2.66663 2.66675 3.26358 2.66675 3.99996V13.3333C2.66675 14.0697 3.2637 14.6666 4.00008 14.6666H12.0001C12.7365 14.6666 13.3334 14.0697 13.3334 13.3333V3.99996C13.3334 3.26358 12.7365 2.66663 12.0001 2.66663H10.3334" stroke="black" stroke-width="1.5" stroke-linecap="round"/>
<path d="M5.33325 4.26663V2.99996C5.33325 2.81587 5.48249 2.66663 5.66659 2.66663C5.85068 2.66663 6.00273 2.51732 6.03427 2.33595C6.13304 1.76777 6.51591 0.666626 7.99992 0.666626C9.48392 0.666626 9.86678 1.76777 9.96558 2.33595C9.99712 2.51732 10.1492 2.66663 10.3333 2.66663C10.5173 2.66663 10.6666 2.81587 10.6666 2.99996V4.26663C10.6666 4.48754 10.4875 4.66663 10.2666 4.66663H5.73325C5.51234 4.66663 5.33325 4.48754 5.33325 4.26663Z" stroke="black" stroke-width="1.5" stroke-linecap="round"/>
</g>
<defs>
<clipPath id="clip0_1_2722">
<rect width="16" height="16" fill="white"/>
</clipPath>
</defs>
</svg>
