<svg width="16" height="16" viewBox="0 0 16 16" fill="none" xmlns="http://www.w3.org/2000/svg">
<path d="M9.26667 12H6.73333C6.51242 12 6.33333 11.8209 6.33333 11.6V10.0667C6.33333 9.84573 6.15425 9.66667 5.93333 9.66667H4.4C4.17909 9.66667 4 9.4876 4 9.26667V6.73333C4 6.51242 4.17909 6.33333 4.4 6.33333H5.93333C6.15425 6.33333 6.33333 6.15425 6.33333 5.93333V4.4C6.33333 4.17909 6.51242 4 6.73333 4H9.26667C9.4876 4 9.66667 4.17909 9.66667 4.4V5.93333C9.66667 6.15425 9.84573 6.33333 10.0667 6.33333H11.6C11.8209 6.33333 12 6.51242 12 6.73333V9.26667C12 9.4876 11.8209 9.66667 11.6 9.66667H10.0667C9.84573 9.66667 9.66667 9.84573 9.66667 10.0667V11.6C9.66667 11.8209 9.4876 12 9.26667 12Z" stroke="black" stroke-width="1.5"/>
<path d="M8.00004 14.6667C11.6819 14.6667 14.6667 11.6819 14.6667 8.00004C14.6667 4.31814 11.6819 1.33337 8.00004 1.33337C4.31814 1.33337 1.33337 4.31814 1.33337 8.00004C1.33337 11.6819 4.31814 14.6667 8.00004 14.6667Z" stroke="black" stroke-width="1.5" stroke-linecap="round" stroke-linejoin="round"/>
</svg>
