<svg width="16" height="16" viewBox="0 0 16 16" fill="none" xmlns="http://www.w3.org/2000/svg">
<g clip-path="url(#clip0_1_2440)">
<path d="M7.99992 14.6667C11.6818 14.6667 14.6666 11.6819 14.6666 8.00004C14.6666 4.31814 11.6818 1.33337 7.99992 1.33337C4.31802 1.33337 1.33325 4.31814 1.33325 8.00004C1.33325 11.6819 4.31802 14.6667 7.99992 14.6667Z" stroke="black" stroke-width="1.5" stroke-linecap="round" stroke-linejoin="round"/>
<path d="M5.33333 9.33329C6.06971 9.33329 6.66667 8.73636 6.66667 7.99996C6.66667 7.26356 6.06971 6.66663 5.33333 6.66663C4.59695 6.66663 4 7.26356 4 7.99996C4 8.73636 4.59695 9.33329 5.33333 9.33329Z" stroke="black" stroke-width="1.5" stroke-linecap="round" stroke-linejoin="round"/>
<path d="M10.6666 9.33329C11.403 9.33329 11.9999 8.73636 11.9999 7.99996C11.9999 7.26356 11.403 6.66663 10.6666 6.66663C9.93019 6.66663 9.33325 7.26356 9.33325 7.99996C9.33325 8.73636 9.93019 9.33329 10.6666 9.33329Z" stroke="black" stroke-width="1.5" stroke-linecap="round" stroke-linejoin="round"/>
</g>
<defs>
<clipPath id="clip0_1_2440">
<rect width="16" height="16" fill="white"/>
</clipPath>
</defs>
</svg>
