<svg width="16" height="16" viewBox="0 0 16 16" fill="none" xmlns="http://www.w3.org/2000/svg">
<g clip-path="url(#clip0_1_2389)">
<path d="M3.99998 12.6671C2.38072 11.4508 1.33331 9.51436 1.33331 7.33329C1.33331 3.65139 4.31808 0.666626 7.99998 0.666626C11.6818 0.666626 14.6666 3.65139 14.6666 7.33329C14.6666 9.51436 13.6192 11.4508 12 12.6671" stroke="black" stroke-width="1.5" stroke-linecap="round" stroke-linejoin="round"/>
<path d="M3.99998 12.6671C2.38072 11.4508 1.33331 9.51436 1.33331 7.33329C1.33331 3.65139 4.31808 0.666626 7.99998 0.666626C11.6818 0.666626 14.6666 3.65139 14.6666 7.33329C14.6666 9.51436 13.6192 11.4508 12 12.6671" stroke="black" stroke-width="1.5" stroke-linecap="round" stroke-linejoin="round"/>
<path d="M5.01853 10C4.38514 9.29237 4 8.35784 4 7.33337C4 5.12423 5.79086 3.33337 8 3.33337C10.2091 3.33337 12 5.12423 12 7.33337C12 8.35784 11.6149 9.29237 10.9815 10" stroke="black" stroke-width="1.5" stroke-linecap="round" stroke-linejoin="round"/>
<path d="M8.00002 8.66667C8.73642 8.66667 9.33335 8.06973 9.33335 7.33333C9.33335 6.59695 8.73642 6 8.00002 6C7.26362 6 6.66669 6.59695 6.66669 7.33333C6.66669 8.06973 7.26362 8.66667 8.00002 8.66667Z" stroke="black" stroke-width="1.5" stroke-linecap="round" stroke-linejoin="round"/>
<path d="M6.71732 10.8552L7.26039 10.4931C7.70826 10.1945 8.29172 10.1945 8.73959 10.4931L9.28266 10.8552C9.71926 11.1462 9.94452 11.6662 9.85826 12.1838L9.51899 14.2192C9.41186 14.8622 8.85559 15.3334 8.20379 15.3334H7.79619C7.14439 15.3334 6.58812 14.8622 6.48097 14.2192L6.14172 12.1838C6.05546 11.6662 6.28075 11.1462 6.71732 10.8552Z" stroke="black" stroke-width="1.5" stroke-linecap="round" stroke-linejoin="round"/>
</g>
<defs>
<clipPath id="clip0_1_2389">
<rect width="16" height="16" fill="white"/>
</clipPath>
</defs>
</svg>
