<svg width="16" height="16" viewBox="0 0 16 16" fill="none" xmlns="http://www.w3.org/2000/svg">
<path d="M7.99992 14.6667C4.31802 14.6667 1.33325 11.6819 1.33325 8.00004C1.33325 4.31814 4.31802 1.33337 7.99992 1.33337C11.6818 1.33337 14.6666 4.31814 14.6666 8.00004C14.6666 11.6819 11.6818 14.6667 7.99992 14.6667Z" stroke="black" stroke-width="1.5" stroke-linecap="round" stroke-linejoin="round"/>
<path d="M12.6667 8L10.6667 6M12.6667 8L10.6667 10M12.6667 8H8" stroke="black" stroke-width="1.5" stroke-linecap="round" stroke-linejoin="round"/>
<path d="M7.99992 8.66671C8.36812 8.66671 8.66659 8.36824 8.66659 8.00004C8.66659 7.63184 8.36812 7.33337 7.99992 7.33337C7.63172 7.33337 7.33325 7.63184 7.33325 8.00004C7.33325 8.36824 7.63172 8.66671 7.99992 8.66671Z" fill="black" stroke="black" stroke-width="1.5" stroke-linecap="round" stroke-linejoin="round"/>
</svg>
