<svg width="16" height="16" viewBox="0 0 16 16" fill="none" xmlns="http://www.w3.org/2000/svg">
<g clip-path="url(#clip0_1_1994)">
<path d="M10.2667 14.6667H5.73337C5.51246 14.6667 5.33337 14.4876 5.33337 14.2667V1.73337C5.33337 1.51246 5.51246 1.33337 5.73337 1.33337H10.2667C10.4876 1.33337 10.6667 1.51246 10.6667 1.73337V14.2667C10.6667 14.4876 10.4876 14.6667 10.2667 14.6667Z" stroke="black" stroke-width="1.5" stroke-linecap="round" stroke-linejoin="round"/>
<path d="M10.6666 11.3334H8.66663" stroke="black" stroke-width="1.5" stroke-linecap="round" stroke-linejoin="round"/>
<path d="M10.6666 4.66663H8.66663" stroke="black" stroke-width="1.5" stroke-linecap="round" stroke-linejoin="round"/>
<path d="M8.66663 7.99996H15.3333M15.3333 7.99996L14 9.33329M15.3333 7.99996L14 6.66663" stroke="black" stroke-width="1.5" stroke-linecap="round" stroke-linejoin="round"/>
<path d="M0.666626 7.99996L1.99996 6.66663M0.666626 7.99996L1.99996 9.33329M0.666626 7.99996H5.33329" stroke="black" stroke-width="1.5" stroke-linecap="round" stroke-linejoin="round"/>
</g>
<defs>
<clipPath id="clip0_1_1994">
<rect width="16" height="16" fill="white"/>
</clipPath>
</defs>
</svg>
