<svg width="16" height="16" viewBox="0 0 16 16" fill="none" xmlns="http://www.w3.org/2000/svg">
<path d="M14 4.90198V11.098C14 11.2432 13.9213 11.377 13.7943 11.4476L8.19428 14.5587C8.07348 14.6258 7.92655 14.6258 7.80575 14.5587L2.20575 11.4476C2.07877 11.377 2.00001 11.2432 2.00001 11.098L2 4.90198C2 4.75671 2.07876 4.62286 2.20575 4.55232L7.80575 1.4412C7.92655 1.37409 8.07348 1.37409 8.19428 1.4412L13.7943 4.55232C13.9212 4.62286 14 4.75671 14 4.90198Z" stroke="black" stroke-width="1.5" stroke-linecap="round" stroke-linejoin="round"/>
<path d="M8 14V8" stroke="black" stroke-width="1.5" stroke-linecap="round" stroke-linejoin="round"/>
<path d="M8.33335 7.33333V14C8.33335 14.1841 8.18409 14.3333 8.00002 14.3333C7.81595 14.3333 7.66669 14.1841 7.66669 14V7.33333C7.66669 7.14927 7.81595 7 8.00002 7C8.18409 7 8.33335 7.14927 8.33335 7.33333Z" fill="black" stroke="black" stroke-width="1.5" stroke-linecap="round" stroke-linejoin="round"/>
</svg>
