<svg width="16" height="16" viewBox="0 0 16 16" fill="none" xmlns="http://www.w3.org/2000/svg">
<path d="M9 8.66663L10 9.66663" stroke="black" stroke-width="1.5" stroke-linecap="round" stroke-linejoin="round"/>
<path d="M6 7.33329C6 8.25376 6.7462 8.99996 7.66667 8.99996C8.12773 8.99996 8.545 8.81276 8.84673 8.51023C9.1474 8.20876 9.33333 7.79276 9.33333 7.33329C9.33333 6.41282 8.58713 5.66663 7.66667 5.66663C6.7462 5.66663 6 6.41282 6 7.33329Z" stroke="black" stroke-width="1.5" stroke-linecap="round" stroke-linejoin="round"/>
<path d="M3.33326 12L2.08684 3.27501C2.03757 2.93015 2.26252 2.6083 2.60258 2.53273L7.71066 1.39759C7.9012 1.35526 8.09866 1.35526 8.2892 1.39759L13.3973 2.53273C13.7373 2.6083 13.9623 2.93015 13.913 3.275L12.6666 12C12.6195 12.33 12.3333 14.3333 7.99993 14.3333C3.6666 14.3333 3.3804 12.33 3.33326 12Z" stroke="black" stroke-width="1.5" stroke-linecap="round" stroke-linejoin="round"/>
</svg>
