<svg width="16" height="16" viewBox="0 0 16 16" fill="none" xmlns="http://www.w3.org/2000/svg">
<g clip-path="url(#clip0_1_1415)">
<path d="M0.666626 3.06675C0.666626 2.84583 0.845713 2.66675 1.06663 2.66675H14.9333C15.1542 2.66675 15.3333 2.84583 15.3333 3.06675V5.67458C15.3333 5.86416 15.2007 6.02802 15.0162 6.07139C14.3144 6.23631 12.5924 6.68055 11.3333 7.33341C9.03756 8.52381 8.71296 11.77 8.67116 12.9215C8.66296 13.1473 8.47956 13.3334 8.25363 13.3334H7.74629C7.52036 13.3334 7.33696 13.1473 7.32876 12.9215C7.28696 11.77 6.96236 8.52381 4.66663 7.33341C3.40753 6.68055 1.68558 6.23631 0.983766 6.07139C0.799206 6.02802 0.666626 5.86416 0.666626 5.67458V3.06675Z" stroke="black" stroke-width="1.5"/>
</g>
<defs>
<clipPath id="clip0_1_1415">
<rect width="16" height="16" fill="white"/>
</clipPath>
</defs>
</svg>
