<svg width="16" height="16" viewBox="0 0 16 16" fill="none" xmlns="http://www.w3.org/2000/svg">
<g clip-path="url(#clip0_1_1315)">
<path d="M0.666748 9.23806V6.76193C0.666748 6.02552 1.2637 5.42857 2.00008 5.42857H3.93341C4.06387 5.42857 4.19147 5.39029 4.30039 5.31848L8.29975 2.68152C8.74301 2.38926 9.33341 2.70716 9.33341 3.23809V12.7619C9.33341 13.2928 8.74301 13.6107 8.29975 13.3185L4.30039 10.6815C4.19147 10.6097 4.06387 10.5714 3.93341 10.5714H2.00008C1.2637 10.5714 0.666748 9.97446 0.666748 9.23806Z" stroke="black" stroke-width="1.5"/>
<path d="M11.6667 5C11.6667 5 12.6667 6 12.6667 7.66667C12.6667 9.33333 11.6667 10.3333 11.6667 10.3333" stroke="black" stroke-width="1.5" stroke-linecap="round" stroke-linejoin="round"/>
<path d="M13.6667 3C13.6667 3 15.3334 4.66667 15.3334 7.66667C15.3334 10.6667 13.6667 12.3333 13.6667 12.3333" stroke="black" stroke-width="1.5" stroke-linecap="round" stroke-linejoin="round"/>
</g>
<defs>
<clipPath id="clip0_1_1315">
<rect width="16" height="16" fill="white"/>
</clipPath>
</defs>
</svg>
