<svg width="16" height="16" viewBox="0 0 16 16" fill="none" xmlns="http://www.w3.org/2000/svg">
<path d="M10 2.4V9.6C10 9.82093 9.82093 10 9.6 10H2.4C2.17909 10 2 9.82093 2 9.6V2.4C2 2.17909 2.17909 2 2.4 2H9.6C9.82093 2 10 2.17909 10 2.4Z" stroke="black" stroke-width="1.5" stroke-linecap="round" stroke-linejoin="round"/>
<path d="M9 14H11" stroke="black" stroke-width="1.5" stroke-linecap="round" stroke-linejoin="round"/>
<path d="M14 9V11" stroke="black" stroke-width="1.5" stroke-linecap="round" stroke-linejoin="round"/>
<path d="M14 13V13.6C14 13.8209 13.8209 14 13.6 14H13" stroke="black" stroke-width="1.5" stroke-linecap="round" stroke-linejoin="round"/>
<path d="M7 14H6.4C6.17909 14 6 13.8209 6 13.6V13" stroke="black" stroke-width="1.5" stroke-linecap="round" stroke-linejoin="round"/>
<path d="M13 6H13.6C13.8209 6 14 6.17909 14 6.4V7" stroke="black" stroke-width="1.5" stroke-linecap="round" stroke-linejoin="round"/>
<path d="M11 6H6.4C6.17909 6 6 6.17909 6 6.4V11" stroke="black" stroke-width="1.5" stroke-linecap="round" stroke-linejoin="round"/>
</svg>
