<svg width="16" height="16" viewBox="0 0 16 16" fill="none" xmlns="http://www.w3.org/2000/svg">
<path d="M2.66675 4V2.4C2.66675 2.17909 2.84583 2 3.06675 2H12.9334C13.1543 2 13.3334 2.17909 13.3334 2.4V4" stroke="black" stroke-width="1.5" stroke-linecap="round"/>
<path d="M2.66675 12V13.6C2.66675 13.8209 2.84583 14 3.06675 14H12.9334C13.1543 14 13.3334 13.8209 13.3334 13.6V12" stroke="black" stroke-width="1.5" stroke-linecap="round"/>
<path d="M8 10V6H10" stroke="black" stroke-width="1.5" stroke-linecap="round" stroke-linejoin="round"/>
<path d="M11.6667 10V6H13.6667" stroke="black" stroke-width="1.5" stroke-linecap="round" stroke-linejoin="round"/>
<path d="M2.33325 6H3.33325M3.33325 6H4.33325M3.33325 6V10" stroke="black" stroke-width="1.5" stroke-linecap="round" stroke-linejoin="round"/>
<path d="M8 8H9.66667" stroke="black" stroke-width="1.5" stroke-linecap="round" stroke-linejoin="round"/>
<path d="M11.6667 8H13.3334" stroke="black" stroke-width="1.5" stroke-linecap="round" stroke-linejoin="round"/>
<path d="M6 10V6" stroke="black" stroke-width="1.5" stroke-linecap="round" stroke-linejoin="round"/>
</svg>
