<svg width="16" height="16" viewBox="0 0 16 16" fill="none" xmlns="http://www.w3.org/2000/svg">
<g clip-path="url(#clip0_1_838)">
<path d="M14.6666 7.99992C14.6666 4.31802 11.6818 1.33325 7.99992 1.33325C4.31802 1.33325 1.33325 4.31802 1.33325 7.99992C1.33325 11.6818 4.31802 14.6666 7.99992 14.6666" stroke="black" stroke-width="1.5" stroke-linecap="round" stroke-linejoin="round"/>
<path d="M8.66675 1.36621C8.66675 1.36621 10.6667 3.99996 10.6667 7.99993" stroke="black" stroke-width="1.5" stroke-linecap="round" stroke-linejoin="round"/>
<path d="M7.33325 14.6337C7.33325 14.6337 5.33325 11.9999 5.33325 7.99993C5.33325 3.99996 7.33325 1.36621 7.33325 1.36621" stroke="black" stroke-width="1.5" stroke-linecap="round" stroke-linejoin="round"/>
<path d="M1.75317 10.3333H8.00008" stroke="black" stroke-width="1.5" stroke-linecap="round" stroke-linejoin="round"/>
<path d="M1.75317 5.66675H14.247" stroke="black" stroke-width="1.5" stroke-linecap="round" stroke-linejoin="round"/>
<path d="M12.6667 11.6667V12.6667H13.6667" stroke="black" stroke-width="1.5" stroke-linecap="round" stroke-linejoin="round"/>
<path d="M12.6667 15.3333C14.1394 15.3333 15.3333 14.1394 15.3333 12.6667C15.3333 11.1939 14.1394 10 12.6667 10C11.1939 10 10 11.1939 10 12.6667C10 14.1394 11.1939 15.3333 12.6667 15.3333Z" stroke="black" stroke-width="1.5" stroke-linecap="round" stroke-linejoin="round"/>
</g>
<defs>
<clipPath id="clip0_1_838">
<rect width="16" height="16" fill="white"/>
</clipPath>
</defs>
</svg>
