<svg width="16" height="16" viewBox="0 0 16 16" fill="none" xmlns="http://www.w3.org/2000/svg">
<g clip-path="url(#clip0_1_790)">
<path d="M6.33325 10.3334V8.46675M6.33325 8.46675V5.66675H8.23798C8.71418 5.66675 9.66659 5.66675 9.66659 7.06675C9.66659 8.46675 8.71418 8.46675 8.23798 8.46675M6.33325 8.46675C6.65071 8.46675 7.47612 8.46675 8.23798 8.46675M8.23798 8.46675L9.66659 10.3334" stroke="black" stroke-width="1.5" stroke-linecap="round" stroke-linejoin="round"/>
<path d="M7.99992 14.6666C11.6818 14.6666 14.6666 11.6818 14.6666 7.99992C14.6666 4.31802 11.6818 1.33325 7.99992 1.33325C4.31802 1.33325 1.33325 4.31802 1.33325 7.99992C1.33325 11.6818 4.31802 14.6666 7.99992 14.6666Z" stroke="black" stroke-width="1.5" stroke-linecap="round" stroke-linejoin="round"/>
</g>
<defs>
<clipPath id="clip0_1_790">
<rect width="16" height="16" fill="white"/>
</clipPath>
</defs>
</svg>
