<svg width="16" height="16" viewBox="0 0 16 16" fill="none" xmlns="http://www.w3.org/2000/svg">
<g clip-path="url(#clip0_1_643)">
<path d="M15.3333 2.00671C15.3333 2.00671 13.988 2.80145 13.24 3.02671C12.8384 2.56505 12.3048 2.23783 11.7113 2.08932C11.1178 1.94081 10.493 1.97817 9.92136 2.19634C9.34976 2.41451 8.85889 2.80297 8.51529 3.30918C8.17163 3.81539 7.99176 4.41493 7.99996 5.02671V5.69337C6.82836 5.72375 5.66747 5.46391 4.62063 4.937C3.57379 4.41009 2.67351 3.63246 1.99996 2.67337C1.99996 2.67337 -0.666707 8.6734 5.33329 11.3401C3.96031 12.272 2.32473 12.7393 0.666626 12.6734C6.66663 16.0067 14 12.6734 14 5.00671C13.9994 4.82101 13.9815 4.63577 13.9466 4.45337C14.627 3.78237 15.3333 2.00671 15.3333 2.00671Z" stroke="black" stroke-width="1.5" stroke-linecap="round" stroke-linejoin="round"/>
</g>
<defs>
<clipPath id="clip0_1_643">
<rect width="16" height="16" fill="white"/>
</clipPath>
</defs>
</svg>
