<svg width="16" height="16" viewBox="0 0 16 16" fill="none" xmlns="http://www.w3.org/2000/svg">
<g clip-path="url(#clip0_1_611)">
<path d="M13.1854 2.69566C11.8004 1.38724 9.95876 0.666748 7.99996 0.666748C6.04116 0.666748 4.19952 1.38734 2.81443 2.69566C1.42945 4.00419 0.666626 5.74379 0.666626 7.59415C0.666626 7.81835 0.858979 8.00008 1.09621 8.00008C1.33355 8.00008 1.5259 7.81835 1.5259 7.59415C1.5259 6.91901 2.10745 6.36967 2.82215 6.36967C4.08378 6.36967 3.62088 8.00008 4.54809 8.00008C5.47529 8.00008 5.01243 6.36967 6.27402 6.36967C7.53563 6.36967 7.99996 8.00008 7.99996 8.00008C7.99996 8.00008 8.46429 6.36967 9.72589 6.36967C10.9875 6.36967 10.6586 8.00008 11.4518 8.00008C12.2451 8.00008 11.9162 6.36967 13.1778 6.36967C13.8925 6.36967 14.474 6.91901 14.474 7.59415C14.474 7.81835 14.6664 8.00008 14.9037 8.00008C15.141 8.00008 15.3333 7.81835 15.3333 7.59415C15.3333 5.74379 14.5706 4.00419 13.1854 2.69566Z" stroke="black" stroke-width="1.5"/>
<path d="M8 8C8 8 8 10.7299 8 13.3333C8 16 4 16 4 13.3333" stroke="black" stroke-width="1.5" stroke-linecap="round" stroke-linejoin="round"/>
</g>
<defs>
<clipPath id="clip0_1_611">
<rect width="16" height="16" fill="white"/>
</clipPath>
</defs>
</svg>
