<svg width="24" height="24" viewBox="0 0 24 24" fill="none" xmlns="http://www.w3.org/2000/svg">
<path d="M21.2931 1.29306C21.6836 0.902567 22.3166 0.902547 22.7071 1.29306C23.0976 1.68358 23.0976 2.31662 22.7071 2.70712L20.4142 5.00009L21.006 5.59189L21.1222 5.71298C21.3849 6.00201 21.5961 6.33489 21.7462 6.69638C21.9177 7.10957 22.0059 7.55271 22.006 8.00009C22.0059 8.44747 21.9177 8.89061 21.7462 9.3038C21.5748 9.7166 21.3224 10.0907 21.006 10.4063L18.7071 12.7071C18.5196 12.8946 18.2653 13.0001 18.0001 13.0001C17.768 13.0001 17.5442 12.9193 17.3663 12.7735L17.2931 12.7071L11.2931 6.70712C11.1056 6.51961 11.0001 6.26526 11.0001 6.00009C11.0001 5.73489 11.1055 5.48059 11.2931 5.29306L13.5929 2.99326C13.9085 2.67678 14.2836 2.42541 14.6964 2.254C15.1096 2.08246 15.5527 1.99423 16.0001 1.99423C16.4475 1.99425 16.8906 2.08246 17.3038 2.254C17.7166 2.42541 18.0917 2.67681 18.4073 2.99326L19.0001 3.58603L21.2931 1.29306Z" fill="black"/>
<path d="M9.29306 10.2931C9.68359 9.90257 10.3166 9.90255 10.7071 10.2931C11.0976 10.6836 11.0976 11.3166 10.7071 11.7071L8.91415 13.5001L10.5001 15.086L12.2931 13.2931C12.6836 12.9026 13.3166 12.9025 13.7071 13.2931C14.0976 13.6836 14.0976 14.3166 13.7071 14.7071L11.9142 16.5001L12.7071 17.2931L12.7735 17.3663C12.9193 17.5442 13.0001 17.768 13.0001 18.0001C13.0001 18.2653 12.8946 18.5196 12.7071 18.7071L10.4073 21.0069C10.0917 21.3234 9.7166 21.5748 9.3038 21.7462C8.89061 21.9177 8.44747 22.0059 8.00009 22.006C7.55271 22.0059 7.10957 21.9177 6.69638 21.7462C6.28359 21.5748 5.9085 21.3234 5.59287 21.0069L5.00009 20.4142L2.70712 22.7071C2.31662 23.0976 1.68358 23.0976 1.29306 22.7071C0.902547 22.3166 0.902567 21.6836 1.29306 21.2931L3.58603 19.0001L2.99423 18.4063C2.67779 18.0907 2.42541 17.7166 2.254 17.3038C2.10396 16.9424 2.01744 16.5581 1.99814 16.1681L1.99423 16.0001C1.99423 15.5527 2.08246 15.1096 2.254 14.6964C2.42559 14.2831 2.6773 13.9077 2.99423 13.5919L5.29306 11.2931L5.3663 11.2267C5.54425 11.0808 5.76801 11.0001 6.00009 11.0001C6.26526 11.0001 6.51961 11.1056 6.70712 11.2931L7.50009 12.086L9.29306 10.2931Z" fill="black"/>
</svg>
