<svg width="16" height="16" viewBox="0 0 16 16" fill="none" xmlns="http://www.w3.org/2000/svg">
<g clip-path="url(#clip0_1_511)">
<path d="M4.66666 12V11.3333C4.66666 9.4924 6.15904 8 7.99999 8C9.84092 8 11.3333 9.4924 11.3333 11.3333V12" stroke="black" stroke-width="1.5" stroke-linecap="round"/>
<path d="M8 8C9.1046 8 10 7.1046 10 6C10 4.89543 9.1046 4 8 4C6.8954 4 6 4.89543 6 6C6 7.1046 6.8954 8 8 8Z" stroke="black" stroke-width="1.5" stroke-linecap="round" stroke-linejoin="round"/>
<path d="M8.00001 14.6666C11.6819 14.6666 14.6667 11.6818 14.6667 7.99992C14.6667 4.31802 11.6819 1.33325 8.00001 1.33325C4.31811 1.33325 1.33334 4.31802 1.33334 7.99992C1.33334 11.6818 4.31811 14.6666 8.00001 14.6666Z" stroke="black" stroke-width="1.5"/>
</g>
<defs>
<clipPath id="clip0_1_511">
<rect width="16" height="16" fill="white"/>
</clipPath>
</defs>
</svg>
