<svg width="16" height="16" viewBox="0 0 16 16" fill="none" xmlns="http://www.w3.org/2000/svg">
<g clip-path="url(#clip0_1_473)">
<path d="M12.4142 8.08085L13.8284 6.66665M13.8284 6.66665L15.2427 5.25244M13.8284 6.66665L12.4142 5.25244M13.8284 6.66665L15.2427 8.08085" stroke="black" stroke-width="1.5" stroke-linecap="round" stroke-linejoin="round"/>
<path d="M0.666687 13.3333V12.6667C0.666687 10.0893 2.75603 8 5.33335 8C7.91069 8 10 10.0893 10 12.6667V13.3333" stroke="black" stroke-width="1.5" stroke-linecap="round" stroke-linejoin="round"/>
<path d="M5.33335 8.00008C6.80609 8.00008 8.00002 6.80615 8.00002 5.33341C8.00002 3.86065 6.80609 2.66675 5.33335 2.66675C3.86059 2.66675 2.66669 3.86065 2.66669 5.33341C2.66669 6.80615 3.86059 8.00008 5.33335 8.00008Z" stroke="black" stroke-width="1.5" stroke-linecap="round" stroke-linejoin="round"/>
</g>
<defs>
<clipPath id="clip0_1_473">
<rect width="16" height="16" fill="white"/>
</clipPath>
</defs>
</svg>
