<svg width="16" height="16" viewBox="0 0 16 16" fill="none" xmlns="http://www.w3.org/2000/svg">
<path d="M9.33325 14.5333C8.90245 14.6207 8.45652 14.6666 7.99992 14.6666C4.31802 14.6666 1.33325 11.6818 1.33325 7.99992C1.33325 4.31802 4.31802 1.33325 7.99992 1.33325C11.6818 1.33325 14.6666 4.31802 14.6666 7.99992C14.6666 8.16925 14.6603 8.33705 14.6479 8.50318" stroke="black" stroke-width="1.5" stroke-linecap="round" stroke-linejoin="round"/>
<path d="M8 4V12" stroke="black" stroke-width="1.5" stroke-linecap="round" stroke-linejoin="round"/>
<path d="M6 6V10" stroke="black" stroke-width="1.5" stroke-linecap="round" stroke-linejoin="round"/>
<path d="M12 7.33325V8.66659" stroke="black" stroke-width="1.5" stroke-linecap="round" stroke-linejoin="round"/>
<path d="M4 7.33325V8.66659" stroke="black" stroke-width="1.5" stroke-linecap="round" stroke-linejoin="round"/>
<path d="M10 4.66675V11.3334" stroke="black" stroke-width="1.5" stroke-linecap="round" stroke-linejoin="round"/>
<path d="M14.1111 12.3333H14.2666C14.4875 12.3333 14.6666 12.5124 14.6666 12.7333V14.2667C14.6666 14.4876 14.4875 14.6667 14.2666 14.6667H11.7333C11.5123 14.6667 11.3333 14.4876 11.3333 14.2667V12.7333C11.3333 12.5124 11.5123 12.3333 11.7333 12.3333H11.8888M14.1111 12.3333V11.1667C14.1111 10.7778 13.8888 10 12.9999 10C12.1111 10 11.8888 10.7778 11.8888 11.1667V12.3333M14.1111 12.3333H11.8888" stroke="black" stroke-width="1.5" stroke-linecap="round" stroke-linejoin="round"/>
</svg>
