<svg width="16" height="16" viewBox="0 0 16 16" fill="none" xmlns="http://www.w3.org/2000/svg">
<path d="M1.33333 8H2.66666" stroke="black" stroke-width="1.5" stroke-linecap="round" stroke-linejoin="round"/>
<path d="M13.3333 8H14.6667" stroke="black" stroke-width="1.5" stroke-linecap="round" stroke-linejoin="round"/>
<path d="M2 13.3399L2.00667 13.3325" stroke="black" stroke-width="1.5" stroke-linecap="round" stroke-linejoin="round"/>
<path d="M4 10.6734L4.00667 10.666" stroke="black" stroke-width="1.5" stroke-linecap="round" stroke-linejoin="round"/>
<path d="M6 13.3399L6.00667 13.3325" stroke="black" stroke-width="1.5" stroke-linecap="round" stroke-linejoin="round"/>
<path d="M10 13.3399L10.0067 13.3325" stroke="black" stroke-width="1.5" stroke-linecap="round" stroke-linejoin="round"/>
<path d="M12 10.6734L12.0067 10.666" stroke="black" stroke-width="1.5" stroke-linecap="round" stroke-linejoin="round"/>
<path d="M14 13.3399L14.0067 13.3325" stroke="black" stroke-width="1.5" stroke-linecap="round" stroke-linejoin="round"/>
<path d="M8.26414 2.26421L10.3333 4.33339C11.622 5.62205 11.622 7.71139 10.3333 9.00006C9.04467 10.2887 6.95534 10.2887 5.66668 9.00006C4.37801 7.71139 4.37801 5.62205 5.66668 4.33339L7.73587 2.2642C7.88174 2.11831 8.11827 2.11831 8.26414 2.26421Z" stroke="black" stroke-width="1.5" stroke-linecap="round" stroke-linejoin="round"/>
</svg>
