<svg width="16" height="16" viewBox="0 0 16 16" fill="none" xmlns="http://www.w3.org/2000/svg">
<path d="M10.6667 10.9814V13.3333C10.6667 14.0696 10.0698 14.6666 9.33337 14.6666H6.66671C5.93033 14.6666 5.33337 14.0696 5.33337 13.3333V10.9814" stroke="black" stroke-width="1.5" stroke-linecap="round" stroke-linejoin="round"/>
<path d="M5.33337 5.01845V2.66659C5.33337 1.93021 5.93033 1.33325 6.66671 1.33325H9.33337C10.0698 1.33325 10.6667 1.93021 10.6667 2.66659V5.01845" stroke="black" stroke-width="1.5" stroke-linecap="round" stroke-linejoin="round"/>
<path d="M12 8C12 5.79086 10.2091 4 8 4C5.79086 4 4 5.79086 4 8C4 10.2091 5.79086 12 8 12C10.2091 12 12 10.2091 12 8Z" stroke="black" stroke-width="1.5" stroke-linecap="round" stroke-linejoin="round"/>
<path d="M9.33333 8.00008H8V6.66675" stroke="black" stroke-width="1.5" stroke-linecap="round" stroke-linejoin="round"/>
</svg>
