<svg width="16" height="16" viewBox="0 0 16 16" fill="none" xmlns="http://www.w3.org/2000/svg">
<g clip-path="url(#clip0_1_104)">
<path d="M2.22522 11.3333C3.37792 13.3259 5.5324 14.6666 8.00003 14.6666C10.4676 14.6666 12.6221 13.3259 13.7748 11.3333" stroke="black" stroke-width="1.5" stroke-linecap="round" stroke-linejoin="round"/>
<path d="M2.22522 4.66659C3.37792 2.67391 5.5324 1.33325 8.00003 1.33325C10.4676 1.33325 12.6221 2.67391 13.7748 4.66659" stroke="black" stroke-width="1.5" stroke-linecap="round" stroke-linejoin="round"/>
<path d="M8.66663 14.6337C8.66663 14.6337 9.60523 13.3977 10.1964 11.3333" stroke="black" stroke-width="1.5" stroke-linecap="round" stroke-linejoin="round"/>
<path d="M8.66663 1.36621C8.66663 1.36621 9.60523 2.60218 10.1964 4.66666" stroke="black" stroke-width="1.5" stroke-linecap="round" stroke-linejoin="round"/>
<path d="M7.33338 14.6337C7.33338 14.6337 6.39481 13.3977 5.80359 11.3333" stroke="black" stroke-width="1.5" stroke-linecap="round" stroke-linejoin="round"/>
<path d="M7.33338 1.36621C7.33338 1.36621 6.39481 2.60218 5.80359 4.66666" stroke="black" stroke-width="1.5" stroke-linecap="round" stroke-linejoin="round"/>
<path d="M6 6.66675L7 10.0001L8 6.66675L9 10.0001L10 6.66675" stroke="black" stroke-width="1.5" stroke-linecap="round" stroke-linejoin="round"/>
<path d="M0.666626 6.66675L1.66663 10.0001L2.66663 6.66675L3.66663 10.0001L4.66663 6.66675" stroke="black" stroke-width="1.5" stroke-linecap="round" stroke-linejoin="round"/>
<path d="M11.3334 6.66675L12.3334 10.0001L13.3334 6.66675L14.3334 10.0001L15.3334 6.66675" stroke="black" stroke-width="1.5" stroke-linecap="round" stroke-linejoin="round"/>
</g>
<defs>
<clipPath id="clip0_1_104">
<rect width="16" height="16" fill="white"/>
</clipPath>
</defs>
</svg>
