<svg width="16" height="16" viewBox="0 0 16 16" fill="none" xmlns="http://www.w3.org/2000/svg">
<path d="M8.00004 14.6666C11.6819 14.6666 14.6667 11.6818 14.6667 7.99992C14.6667 4.31802 11.6819 1.33325 8.00004 1.33325C4.31814 1.33325 1.33337 4.31802 1.33337 7.99992C1.33337 11.6818 4.31814 14.6666 8.00004 14.6666Z" stroke="black" stroke-width="1.5" stroke-linecap="round" stroke-linejoin="round"/>
<path d="M8.39911 7.88399C10.0892 7.88399 10.0892 10.6666 8.39911 10.6666C7.44571 10.6666 6.33337 10.6666 6.33337 10.6666V7.88399M8.39911 7.88399C7.44571 7.88399 6.33337 7.88399 6.33337 7.88399M8.39911 7.88399C10.0892 7.88399 10.0892 5.33325 8.39911 5.33325C7.64791 5.33325 6.33337 5.33325 6.33337 5.33325V7.88399" stroke="black" stroke-width="1.5" stroke-linecap="round" stroke-linejoin="round"/>
</svg>
